{"glyphs":{"0":{"ha":1171,"x_min":27,"x_max":1133,"o":"m 800 977 q 880 911 857 977 q 884 890 884 907 q 812 805 884 821 l 798 802 q 711 888 711 816 l 711 890 q 800 977 711 966 m 486 827 l 694 827 q 803 739 726 827 l 866 679 q 995 799 979 799 l 1006 799 q 1050 750 1042 799 q 1021 707 1047 734 q 1133 461 1133 561 q 1013 330 1115 330 q 898 427 931 330 q 892 473 892 439 q 955 639 897 542 l 955 642 l 952 642 q 872 573 897 573 l 858 573 q 763 656 838 573 l 751 665 l 746 665 q 626 522 746 659 q 755 378 755 395 l 755 358 q 674 17 688 35 q 640 0 653 0 l 626 0 q 574 54 583 0 l 629 309 l 497 435 q 353 292 377 292 q 305 286 331 286 l 96 286 q 27 347 27 286 q 79 401 43 401 q 136 398 117 398 l 282 398 q 577 739 285 398 l 505 739 q 351 570 355 570 l 328 570 q 291 616 297 570 q 376 724 291 637 q 471 825 445 813 q 486 827 476 827 m 987 604 l 987 576 q 981 570 987 570 l 943 570 l 943 538 q 955 532 955 538 l 955 424 q 943 418 955 418 l 943 389 l 983 389 l 983 361 l 1004 361 l 1004 389 l 1013 389 q 1018 384 1018 389 l 1018 361 l 1035 361 l 1035 389 q 1101 444 1093 389 q 1078 487 1099 466 q 1095 522 1088 487 q 1038 573 1095 562 l 1038 604 l 1021 604 l 1021 576 q 1015 570 1021 570 l 1009 570 q 1004 576 1004 570 l 1004 604 l 987 604 m 992 538 l 1044 538 q 1064 518 1064 538 q 1044 501 1064 501 l 992 501 q 987 507 987 501 l 987 532 q 992 538 987 538 m 992 470 l 1046 470 q 1069 441 1069 470 q 1041 421 1069 423 l 992 421 q 987 427 987 421 l 987 464 q 992 470 987 470 z "},"1":{"ha":1105,"x_min":41,"x_max":1063,"o":"m 187 966 l 203 966 q 277 901 254 966 q 328 830 281 830 l 336 814 q 228 773 336 787 l 222 765 l 222 754 q 266 735 222 745 l 269 730 l 269 716 q 201 681 241 681 l 190 681 q 119 724 141 681 q 163 746 119 739 l 168 754 l 168 765 q 95 784 168 774 q 57 817 57 798 l 57 822 q 92 841 57 827 q 119 922 107 841 q 187 966 154 966 m 911 966 q 990 884 972 966 l 990 876 q 917 760 982 783 l 898 760 q 817 863 840 760 l 817 890 q 887 966 817 941 l 911 966 m 819 727 q 854 616 825 718 l 860 613 l 871 613 q 882 632 882 618 l 882 705 q 903 727 882 727 q 925 703 925 727 l 925 629 q 941 613 925 613 l 944 613 q 982 724 956 613 l 987 727 q 1063 648 1063 696 l 1063 600 q 1028 570 1063 574 l 795 570 l 795 567 q 876 345 876 467 q 673 30 876 139 q 532 0 593 0 q 241 163 354 0 q 190 328 190 246 l 190 363 q 285 583 190 475 l 79 583 q 41 613 41 587 l 41 665 q 79 719 41 689 l 87 719 q 201 648 121 648 q 309 719 261 648 l 312 719 q 350 662 350 695 l 350 637 l 353 637 q 532 689 439 689 q 741 618 642 689 l 741 635 q 811 724 741 699 q 819 727 814 724 m 480 597 l 480 534 q 475 529 480 529 l 401 529 l 401 507 q 399 494 401 498 l 401 477 l 401 467 l 418 467 q 423 461 423 466 l 423 250 q 418 244 423 244 l 399 244 l 399 190 l 472 190 q 477 184 477 189 l 477 133 l 513 133 l 513 184 q 518 190 513 190 l 534 190 q 540 184 540 189 l 540 133 l 572 133 l 572 184 q 578 190 573 190 l 597 190 q 694 269 665 190 l 694 296 q 654 363 694 345 l 654 369 q 684 429 684 393 l 684 453 q 616 524 684 500 q 578 534 578 528 l 578 594 l 543 594 l 543 529 l 515 529 l 515 597 l 510 594 q 480 597 492 597 m 483 467 l 594 467 q 627 434 627 465 q 578 399 627 399 l 488 399 q 483 404 483 399 l 483 467 m 488 339 l 594 339 q 635 301 635 334 q 637 296 637 301 q 597 250 637 250 l 488 250 q 483 255 483 250 l 483 334 q 488 339 484 339 z "},"2":{"ha":1048,"x_min":34,"x_max":1006,"o":"m 516 972 l 526 972 q 929 751 769 972 q 1006 498 1006 625 l 1006 474 q 847 127 1006 280 q 522 0 702 0 q 130 197 288 0 q 34 486 34 332 q 170 823 34 674 q 516 972 321 972 m 98 496 l 98 482 q 283 136 98 274 q 504 64 396 64 l 534 64 q 815 182 685 64 q 943 484 943 313 l 943 494 q 761 836 943 694 q 518 909 649 909 q 176 733 315 909 q 98 496 98 617 m 520 869 q 849 683 727 869 q 903 496 903 590 l 903 480 q 726 163 903 290 q 516 102 625 102 q 227 241 353 102 q 138 474 138 354 l 138 496 q 307 805 138 677 q 520 869 408 869 m 397 753 l 397 694 q 393 690 397 690 l 321 690 l 321 644 l 363 644 q 367 640 367 644 l 367 333 q 363 330 367 330 l 321 330 l 321 281 l 393 281 q 397 277 397 281 l 397 221 l 444 221 l 444 277 q 448 281 444 281 l 506 281 q 510 277 510 281 l 510 221 l 556 221 l 556 277 q 562 281 556 281 q 711 353 669 281 q 721 397 721 374 q 650 498 721 460 l 650 500 q 701 578 701 532 l 701 588 q 590 689 701 661 q 562 690 573 690 l 556 690 l 556 749 q 552 753 556 753 l 510 753 l 510 694 q 506 690 510 690 q 504 692 504 690 l 500 690 l 448 690 q 444 694 444 690 l 444 753 l 397 753 m 471 644 l 484 644 q 594 621 574 644 q 610 585 610 601 l 610 572 q 562 520 610 536 q 530 516 553 516 l 510 516 q 508 518 508 516 l 504 516 l 471 516 q 468 520 468 516 l 468 640 q 471 644 468 644 m 468 470 l 538 470 q 624 418 601 470 q 628 399 626 414 q 548 333 617 333 q 524 332 548 332 l 471 332 q 468 335 468 332 l 468 470 z "},"3":{"ha":1183,"x_min":34,"x_max":1143,"o":"m 166 970 l 1004 970 q 1143 845 1143 941 l 1143 661 q 1128 646 1143 646 l 879 646 q 724 500 724 620 l 724 463 q 864 331 724 368 l 1128 331 q 1143 316 1143 328 l 1143 140 q 938 0 1143 0 l 210 0 q 34 176 34 0 l 34 801 q 166 970 34 943 m 189 889 l 189 874 l 233 874 l 233 889 l 189 889 m 277 889 l 277 874 l 321 874 l 321 889 l 277 889 m 372 889 l 372 874 l 416 874 l 416 889 l 372 889 m 467 889 l 467 874 l 504 874 l 504 889 l 467 889 m 555 889 l 555 874 l 600 874 l 600 889 l 555 889 m 651 889 l 651 874 l 695 874 l 695 889 l 651 889 m 747 889 l 747 874 l 783 874 l 783 889 l 747 889 m 835 889 l 835 874 l 879 874 l 879 889 l 835 889 m 930 889 l 930 874 l 975 874 l 975 889 l 930 889 m 1019 882 l 1019 874 q 1048 845 1019 863 l 1055 845 l 1055 860 q 1019 882 1055 876 m 115 823 l 137 823 q 144 867 144 861 l 137 867 q 115 823 122 867 m 1048 801 l 1048 757 l 1063 757 l 1063 801 l 1048 801 m 115 772 l 115 734 l 137 734 l 137 772 l 115 772 m 210 485 q 431 264 244 264 l 453 264 q 659 485 621 264 l 659 492 q 438 713 616 713 q 210 485 210 675 m 1048 705 l 1048 661 l 1063 661 l 1063 705 l 1048 705 m 438 698 q 644 500 644 655 l 644 492 q 453 279 613 279 l 416 279 q 233 441 288 279 q 225 492 225 450 q 438 698 225 661 m 115 684 l 115 640 l 137 640 l 137 684 l 115 684 m 247 477 q 438 301 247 334 q 622 492 592 301 q 431 676 622 641 q 254 507 254 637 q 247 477 247 507 m 379 632 q 394 602 394 632 l 423 602 q 438 632 423 632 q 526 573 455 602 l 534 536 q 511 492 534 519 q 541 463 523 492 l 541 419 q 453 368 536 391 l 453 345 l 438 345 q 423 375 423 345 l 394 375 q 379 345 394 345 q 328 382 354 379 l 328 389 q 350 404 328 404 l 350 566 q 328 581 328 566 l 328 588 q 365 617 365 607 q 379 632 367 632 m 879 617 l 1128 617 q 1143 602 1143 615 l 1143 375 q 1128 360 1143 360 l 871 360 q 754 477 754 378 l 754 507 q 879 617 754 591 m 115 588 l 115 558 q 130 544 117 544 l 137 558 l 137 588 l 115 588 m 409 566 l 409 507 l 460 507 q 482 536 471 507 q 438 566 475 566 l 409 566 m 806 470 q 871 419 827 419 l 879 419 q 945 463 923 419 l 945 507 q 871 558 919 558 q 806 470 806 558 m 115 492 l 115 456 l 137 456 l 137 492 l 115 492 m 409 477 l 409 419 q 423 404 411 404 q 490 433 490 412 l 490 448 q 423 477 479 477 l 409 477 m 115 404 l 115 360 l 137 360 l 137 404 l 115 404 m 115 309 l 115 272 l 137 272 l 137 309 l 115 309 m 1048 309 l 1048 272 l 1063 272 l 1063 309 l 1048 309 m 1048 235 l 1048 199 l 1063 199 l 1063 235 l 1048 235 m 115 220 l 115 176 l 137 176 l 137 220 l 115 220 m 1048 147 q 1033 125 1048 125 q 1040 103 1040 111 q 1063 125 1051 103 l 1063 147 l 1048 147 m 122 125 q 159 88 122 105 l 159 103 q 137 125 159 113 l 122 125 m 210 103 l 210 81 l 254 81 l 254 103 l 210 103 m 306 103 l 306 81 l 342 81 l 342 103 l 306 103 m 394 103 l 394 81 l 438 81 l 438 103 l 394 103 m 490 103 l 490 81 l 519 81 q 534 96 534 81 l 534 103 l 490 103 m 585 103 l 585 81 l 622 81 l 622 103 l 585 103 m 673 103 l 673 81 l 718 81 l 718 103 l 673 103 m 768 103 l 768 81 l 798 81 q 812 96 812 81 l 812 103 l 768 103 m 857 103 l 857 96 q 871 81 859 81 l 901 81 l 901 103 l 857 103 m 952 103 l 952 81 l 982 81 q 996 96 996 81 l 996 103 l 952 103 z "},"4":{"ha":648,"x_min":27,"x_max":618,"o":"m 103 972 l 543 972 q 618 901 618 972 l 618 58 q 560 0 607 0 l 85 0 q 27 58 27 12 l 27 913 q 103 972 27 964 m 238 919 q 243 901 243 908 l 390 901 q 401 913 401 901 l 401 925 q 372 931 372 925 l 361 925 l 267 925 q 261 931 261 925 l 238 919 m 92 837 l 92 123 l 554 123 l 554 837 q 543 849 554 849 l 103 849 q 92 837 92 847 m 320 661 q 496 486 496 633 l 496 469 q 367 316 496 367 q 320 311 344 311 q 150 469 150 342 l 150 503 q 320 661 150 625 m 174 480 q 326 334 174 359 q 472 480 472 366 l 472 492 q 320 632 472 612 l 308 632 q 174 486 198 632 l 174 480 m 308 621 l 338 621 q 460 474 444 621 q 326 345 460 377 q 185 492 203 345 q 308 621 213 621 m 279 580 q 256 556 279 556 l 256 550 q 267 533 256 547 l 267 439 l 256 422 l 256 416 q 279 392 279 416 l 296 392 q 308 416 296 416 q 320 392 320 416 l 332 392 q 385 427 332 417 l 390 439 l 390 451 q 372 480 390 480 l 372 492 q 385 509 385 507 l 385 515 q 332 562 385 549 l 332 580 l 320 580 q 308 556 320 556 l 285 580 l 279 580 m 320 545 q 355 527 355 538 l 355 509 q 320 492 349 492 l 314 492 q 302 503 302 492 l 302 533 q 320 545 302 545 m 314 480 l 326 480 q 361 463 361 476 l 361 445 q 326 427 355 427 l 314 427 q 302 439 302 427 l 302 469 q 314 480 304 480 m 279 82 l 279 58 q 314 24 279 24 l 320 24 q 367 58 367 24 l 367 82 q 349 100 367 90 l 296 100 q 279 82 288 100 z "},"5":{"ha":1121,"x_min":34,"x_max":1087,"o":"m 1004 972 q 1048 875 1042 972 q 1077 711 1057 840 q 1040 675 1065 675 l 1034 675 q 991 729 996 675 q 973 815 978 815 q 593 441 842 602 q 172 260 347 292 q 135 299 144 260 l 135 307 q 216 355 135 341 q 913 871 697 523 l 913 873 q 782 854 796 854 q 748 890 755 854 l 748 901 q 851 946 748 939 q 1004 972 886 955 m 227 965 l 240 965 q 416 847 353 965 q 434 766 434 804 q 298 576 434 637 q 234 566 269 568 q 54 680 117 566 q 34 761 34 720 l 34 768 q 150 948 34 885 q 227 965 191 965 m 60 763 q 168 606 60 661 q 230 593 195 593 l 238 593 q 397 709 347 593 q 406 755 406 735 l 406 779 q 328 911 406 852 q 234 939 281 939 q 68 819 118 939 q 60 763 60 791 m 232 924 q 376 834 325 924 q 391 768 391 802 l 391 759 q 346 656 391 705 q 230 608 300 608 q 83 716 132 608 q 75 766 77 743 q 189 918 75 871 q 232 924 211 922 m 182 875 l 182 854 q 178 849 182 849 l 152 849 l 152 834 l 155 830 l 159 832 q 161 830 161 832 l 165 832 l 168 832 q 172 828 172 831 l 172 705 q 168 701 172 701 l 152 701 l 152 682 l 178 682 q 182 677 182 681 l 182 658 l 201 658 l 201 677 q 206 682 202 682 l 225 682 q 230 677 230 681 l 230 658 l 247 658 l 247 677 q 290 690 247 680 q 315 733 315 705 q 288 772 315 751 l 288 774 q 307 802 300 774 l 307 806 q 247 851 298 851 l 247 875 l 230 875 l 230 854 q 225 849 230 849 l 206 849 q 201 854 201 849 l 201 875 l 182 875 m 219 832 q 271 806 271 832 l 271 802 q 243 779 271 782 l 216 779 q 212 783 212 779 l 212 828 q 219 832 212 832 m 223 761 q 277 733 277 761 l 277 727 q 247 703 277 707 l 216 703 q 212 707 212 703 l 212 759 l 223 761 m 941 589 l 971 589 q 1087 544 1087 580 l 1087 507 q 973 463 1087 472 l 935 463 q 821 507 821 472 l 821 544 q 941 589 821 581 m 831 544 q 935 509 859 509 l 950 509 q 958 507 955 509 q 967 509 962 509 l 976 509 q 1074 540 1040 509 l 1074 546 q 952 578 1044 578 q 831 544 848 573 m 913 568 l 924 568 q 930 564 925 568 l 947 564 l 954 568 l 965 568 q 1021 557 972 564 l 1021 551 l 1010 548 l 1010 546 q 1029 538 1027 546 q 967 527 1019 532 q 965 525 967 525 l 954 525 l 947 529 l 930 529 l 924 525 l 913 525 l 907 529 l 883 529 l 883 535 l 898 535 l 898 557 l 883 557 l 883 564 l 907 564 l 913 568 m 937 557 l 937 553 q 943 548 937 548 q 986 553 963 548 l 986 555 l 971 557 l 937 557 m 937 544 l 937 535 l 976 535 l 991 538 l 991 542 l 969 544 l 937 544 m 833 527 l 833 496 q 851 486 833 491 l 851 518 q 833 527 847 518 m 1046 514 l 1046 481 q 1064 490 1058 481 l 1064 520 q 1046 514 1052 514 m 859 514 l 859 484 q 877 475 859 480 l 877 509 q 859 514 873 509 m 888 505 l 888 473 l 903 471 l 903 503 l 892 505 l 888 505 m 821 488 l 823 488 q 950 452 858 452 l 952 452 q 1085 488 1053 452 l 1087 488 l 1087 452 q 954 404 1087 414 q 821 452 821 414 l 821 488 m 833 471 l 833 441 q 851 430 833 435 l 851 463 q 833 471 846 463 m 1046 458 l 1046 426 l 1048 426 q 1064 434 1064 429 l 1064 465 l 1061 465 q 1046 458 1052 458 m 859 458 l 859 428 q 877 419 859 424 l 877 454 q 859 458 873 454 m 888 450 l 888 417 l 903 415 l 903 445 q 898 450 903 450 l 888 450 m 821 432 l 825 432 q 945 393 835 401 l 954 393 q 1083 430 1050 393 l 1083 432 l 1087 432 l 1087 389 q 963 349 1059 349 l 945 349 q 821 389 850 349 l 821 432 m 833 413 l 833 382 q 851 372 843 372 l 851 402 q 836 413 851 405 l 833 413 m 1046 398 l 1046 368 q 1064 376 1064 372 l 1064 406 l 1061 406 q 1046 398 1046 401 m 859 400 l 859 370 q 877 363 859 365 l 877 395 q 859 400 863 400 m 888 393 l 888 359 l 903 357 l 903 391 l 892 391 l 888 393 m 821 374 l 825 374 q 954 336 836 344 q 1083 374 1073 344 l 1087 374 l 1087 338 q 952 290 1071 290 q 821 336 842 290 l 821 374 m 582 357 l 610 357 q 728 316 703 357 q 730 303 728 307 q 728 294 728 299 l 728 288 q 730 279 728 283 q 625 230 730 241 l 578 230 q 462 277 462 239 l 462 310 q 582 357 462 349 m 833 355 l 833 325 q 851 314 833 321 l 851 344 q 833 355 851 349 m 1046 340 l 1046 310 l 1048 310 q 1064 316 1059 316 l 1064 349 q 1046 340 1048 346 m 475 314 l 475 310 q 578 277 493 281 l 614 277 q 718 312 707 283 q 593 346 690 346 q 475 314 509 346 m 859 342 l 859 310 q 877 305 873 305 l 877 336 q 859 342 877 340 m 888 336 l 888 301 l 903 301 l 903 333 l 888 336 m 554 333 l 565 333 l 572 329 l 589 329 l 595 333 l 606 333 l 612 329 l 621 329 q 662 320 662 329 q 653 316 662 316 q 668 305 668 308 q 627 297 668 297 l 612 297 l 606 292 l 595 292 q 589 297 590 297 l 572 297 l 565 292 l 554 292 l 548 297 l 524 297 l 524 301 l 539 301 l 539 325 l 524 325 l 524 329 l 548 329 l 554 333 m 578 325 l 578 316 l 606 316 l 627 318 q 593 325 627 325 l 578 325 m 821 316 l 823 316 q 945 279 858 279 l 969 279 q 1083 316 1068 286 l 1087 316 l 1087 279 q 978 235 1087 245 l 952 232 q 821 279 821 241 l 821 316 m 578 312 l 578 301 l 593 301 q 631 307 631 301 q 585 312 614 312 l 578 312 m 833 299 l 833 269 q 851 256 833 265 l 851 290 q 833 299 846 290 m 475 294 l 477 279 l 477 262 q 492 254 477 258 l 492 283 q 477 294 492 286 l 475 294 m 1046 286 l 1046 252 q 1064 258 1059 258 l 1064 290 l 1061 290 l 1046 286 m 688 281 l 688 250 l 690 250 l 705 254 l 705 288 q 688 281 692 281 m 859 286 l 859 256 q 877 248 859 252 l 877 281 q 859 286 873 281 m 503 281 l 503 248 q 517 243 509 248 l 517 277 q 503 281 511 277 m 888 277 l 888 245 l 898 243 l 903 243 l 903 275 l 892 277 l 888 277 m 528 275 l 528 241 l 543 239 l 546 239 l 546 271 q 528 275 542 271 m 821 260 l 825 260 q 945 222 835 229 l 956 222 q 1085 258 1048 222 l 1087 258 l 1087 217 q 965 176 1059 176 l 943 176 q 821 217 850 176 l 821 260 m 462 256 l 464 256 q 600 219 498 219 q 724 254 690 219 l 724 256 l 728 256 l 728 213 q 614 174 696 174 l 582 174 q 462 222 462 182 l 462 256 m 833 241 l 833 211 q 851 200 843 200 l 851 230 q 833 241 851 233 m 475 239 l 477 235 l 477 204 q 492 198 490 198 l 492 228 q 477 239 492 231 l 475 239 m 1046 228 l 1046 196 q 1064 204 1064 199 l 1064 235 l 1061 235 q 1046 228 1051 228 m 688 226 l 688 193 l 690 193 l 705 198 l 705 232 q 688 226 692 226 m 859 228 l 859 198 q 877 191 861 191 l 877 224 q 859 228 861 228 m 503 226 l 503 191 q 517 187 509 191 l 517 222 q 503 226 511 222 m 888 222 l 888 187 l 903 185 l 903 215 q 888 222 903 218 m 528 217 l 528 185 l 543 182 l 546 182 l 546 215 l 535 217 l 528 217 m 821 202 l 825 202 q 952 163 836 171 q 1083 200 1048 163 l 1083 202 l 1087 202 l 1087 165 q 960 118 1087 126 l 954 118 q 821 165 838 118 l 821 202 m 462 200 l 466 200 q 600 161 494 161 q 724 196 685 161 l 724 198 l 728 198 l 728 161 q 610 116 728 126 l 591 116 q 462 163 462 123 l 462 200 m 833 182 l 833 153 q 851 142 833 149 l 851 172 q 833 182 842 182 m 475 180 l 477 176 l 477 146 q 492 140 481 146 l 492 174 q 477 180 485 174 l 475 180 m 1046 168 l 1046 138 l 1048 138 q 1064 146 1064 142 l 1064 176 q 1046 168 1046 172 m 688 168 l 688 136 q 705 144 705 139 l 705 174 q 688 168 690 168 m 859 170 l 859 138 q 877 134 873 134 l 877 163 q 859 170 877 168 m 503 168 l 503 138 q 517 131 503 132 l 517 163 l 503 168 m 888 163 l 888 129 q 903 127 894 129 l 903 161 l 888 163 m 528 161 l 528 127 q 543 125 535 127 l 546 129 l 546 155 q 528 161 546 159 m 821 144 l 825 144 q 943 108 836 114 l 965 108 q 1083 144 1073 114 l 1087 144 l 1087 108 q 952 60 1087 68 q 821 105 844 60 l 821 144 m 462 142 l 464 142 q 582 105 500 105 l 614 105 q 728 142 690 105 q 730 140 728 140 l 728 129 l 728 99 q 595 58 699 58 q 462 108 462 65 l 462 142 m 249 131 l 253 131 q 382 94 349 131 l 385 90 l 385 50 q 249 2 368 2 q 118 47 140 2 l 118 84 q 249 131 118 124 m 833 127 l 833 92 q 851 84 838 92 l 851 118 q 833 127 846 118 m 477 123 l 477 92 q 492 81 478 87 l 492 116 q 477 123 488 116 m 131 86 l 131 81 q 256 50 159 50 q 374 84 360 55 q 269 118 374 108 l 234 118 q 135 92 174 118 l 131 86 m 1046 114 l 1046 79 q 1064 86 1061 86 l 1064 118 q 1046 114 1062 118 m 688 112 l 688 77 q 705 84 690 77 l 705 116 q 688 112 691 112 m 862 114 l 859 110 l 859 84 q 877 75 859 79 l 877 110 q 862 114 870 110 m 503 110 l 503 77 q 517 73 504 77 l 517 108 l 503 110 m 888 105 l 888 73 l 898 71 l 903 71 l 903 103 l 888 105 m 212 105 l 223 105 l 230 101 l 247 101 l 253 105 l 264 105 l 271 101 l 273 101 q 320 92 320 100 l 320 88 q 311 84 311 88 q 328 77 328 84 q 288 68 328 68 l 269 68 q 264 62 269 62 l 253 62 q 249 68 249 62 l 232 68 l 223 62 l 212 62 q 208 68 208 62 l 184 68 l 184 73 l 199 73 l 199 92 q 195 97 199 97 l 184 97 l 184 101 l 206 101 l 212 105 m 528 103 l 528 73 q 533 68 529 68 l 546 68 l 546 97 q 528 103 546 102 m 238 97 l 236 92 l 236 88 l 275 88 l 286 90 q 281 94 286 94 q 238 97 267 94 m 821 86 l 823 86 q 958 50 857 50 q 1085 86 1047 50 l 1087 86 l 1087 50 q 965 4 1087 12 l 943 4 q 821 50 821 13 l 821 86 m 236 81 l 236 77 q 240 73 237 73 l 264 73 q 292 79 292 73 l 277 81 l 236 81 m 462 84 l 464 84 q 587 47 503 47 l 604 47 q 724 84 714 54 l 728 84 l 728 71 q 730 62 728 66 q 694 17 730 24 q 597 0 652 0 q 462 50 462 9 l 462 84 m 131 68 l 131 35 q 148 26 133 35 l 148 60 q 131 68 142 60 m 833 68 l 833 39 q 851 28 833 33 l 851 58 q 833 68 851 62 m 475 64 l 477 54 l 477 35 q 492 26 477 30 l 492 58 q 475 64 479 64 m 1046 56 l 1046 24 q 1064 33 1058 24 l 1064 62 q 1046 56 1049 56 m 344 52 l 344 22 l 346 22 q 361 28 357 28 l 361 60 q 344 52 345 58 m 688 54 l 688 22 l 690 22 q 705 26 703 26 l 705 60 q 688 54 694 54 m 859 56 l 859 26 q 877 17 859 22 l 877 52 q 859 56 873 52 m 157 54 l 157 26 q 174 17 157 21 l 174 47 q 157 54 172 54 m 503 54 l 503 20 q 517 15 509 20 l 517 50 q 503 54 511 50 m 888 50 l 888 15 l 903 13 l 903 43 q 888 50 903 47 m 182 47 l 184 43 l 184 17 q 199 11 184 14 l 199 45 q 182 47 197 45 m 528 45 l 528 13 l 543 11 l 546 15 l 546 43 l 530 45 l 528 45 z "},"6":{"ha":585,"x_min":47,"x_max":547,"o":"m 140 970 l 455 970 q 465 960 465 968 l 465 654 q 455 645 465 645 l 140 645 q 130 654 130 645 l 130 960 q 140 970 132 970 m 169 829 l 169 785 l 237 785 l 237 819 q 227 829 237 829 l 169 829 m 358 829 l 358 785 l 426 785 l 426 829 l 358 829 m 57 616 l 537 616 q 547 606 547 614 l 547 243 q 377 5 547 63 l 319 0 l 271 0 q 47 203 90 0 l 47 606 q 57 616 49 616 m 140 334 q 300 180 140 203 q 450 330 450 205 l 450 354 q 314 490 416 490 l 280 490 q 140 334 167 490 m 251 456 l 256 456 q 266 427 266 456 l 290 427 q 295 456 290 448 q 319 427 313 456 q 377 374 377 419 q 358 340 377 367 q 387 296 387 321 q 324 248 387 258 l 314 248 q 304 218 314 218 l 300 218 q 290 248 290 218 l 266 248 q 256 218 266 218 l 251 218 q 241 248 241 218 l 217 248 q 208 257 208 248 l 208 262 q 227 271 208 271 l 227 402 q 208 412 208 402 l 208 417 q 217 427 209 427 l 241 427 q 251 456 241 456 m 275 402 l 275 349 l 280 349 l 290 354 l 300 349 q 334 383 334 353 q 290 402 327 402 l 275 402 m 275 330 l 275 271 l 304 271 q 338 291 330 271 l 338 305 q 304 330 338 316 q 290 325 295 325 q 275 330 281 330 z "},"7":{"ha":1050,"x_min":34,"x_max":1006,"o":"m 115 972 l 914 972 q 1006 869 1006 972 l 1006 113 q 903 0 1006 0 l 130 0 q 34 81 34 11 l 34 898 q 115 972 34 953 m 412 770 q 454 728 422 728 l 462 728 q 504 770 504 736 q 458 820 504 810 q 412 770 421 820 m 536 777 l 536 767 q 574 728 545 728 l 585 728 q 627 774 616 728 q 578 820 627 809 q 536 777 536 808 m 200 593 l 200 583 q 232 562 211 562 q 306 643 244 562 l 730 643 q 808 562 795 562 l 811 562 q 840 593 833 562 q 744 703 772 703 l 299 703 q 232 643 268 703 q 200 593 200 610 m 320 608 q 179 339 304 572 q 285 201 179 275 q 515 155 379 155 l 525 155 q 847 300 776 155 q 857 342 857 323 q 712 608 718 606 l 320 608 m 483 548 l 493 548 q 500 541 500 547 l 500 505 l 511 505 q 518 513 518 505 l 518 548 l 536 548 q 543 541 543 547 l 543 505 l 553 505 q 614 459 614 495 l 614 446 q 585 399 614 418 q 624 353 624 384 l 624 342 q 543 279 624 279 l 543 244 q 529 240 535 244 q 518 244 522 244 l 518 279 l 500 279 l 500 244 l 475 244 l 475 279 l 458 283 l 451 283 l 416 279 l 412 286 l 412 315 q 433 321 412 321 l 433 463 q 412 470 412 463 l 412 498 q 419 505 413 505 l 475 505 l 475 541 q 483 548 477 548 m 500 463 l 500 414 l 518 414 q 543 441 543 414 q 525 463 538 456 l 500 463 m 500 378 l 500 321 l 536 321 q 553 353 553 332 q 525 378 553 374 l 500 378 z "},"8":{"ha":1057,"x_min":41,"x_max":1013,"o":"m 290 972 q 355 913 355 960 l 355 895 q 325 842 355 872 q 378 747 378 791 q 426 764 408 764 l 426 842 q 378 901 389 842 l 378 907 q 450 972 378 964 q 515 901 498 972 q 467 842 494 842 l 467 782 l 568 782 l 580 777 l 580 842 q 532 901 543 842 l 532 907 q 597 972 543 972 q 669 907 669 957 q 621 842 654 842 l 621 764 q 675 741 641 764 q 728 842 675 804 q 686 901 686 868 l 686 907 q 758 972 686 962 q 823 901 808 972 q 764 824 823 871 q 716 764 764 817 l 716 717 q 811 569 799 629 l 882 569 q 947 616 882 612 q 1013 551 1013 606 q 947 480 1013 500 q 882 528 882 497 l 823 528 l 823 474 l 817 415 l 882 415 q 941 463 882 452 l 947 463 q 1013 391 1005 463 q 947 326 1013 347 q 882 373 882 341 l 799 373 q 716 249 799 335 l 716 219 q 764 154 716 191 q 823 77 823 90 l 823 65 q 758 0 811 0 l 752 0 q 686 65 686 9 q 728 124 696 124 l 728 130 q 669 219 680 167 q 621 190 621 199 l 621 136 q 669 65 669 99 q 604 0 650 0 l 597 0 q 532 65 532 9 l 532 71 q 580 130 532 111 l 580 190 l 568 184 l 467 184 l 467 136 q 515 71 509 105 q 450 0 500 0 l 444 0 q 378 65 378 9 l 378 71 q 426 130 391 130 l 426 190 q 378 219 426 199 q 319 124 378 176 q 355 77 347 124 l 355 59 q 283 0 355 6 q 224 59 224 14 l 224 71 q 283 142 224 113 q 325 190 283 159 q 337 237 337 212 l 337 243 q 236 373 279 296 l 177 373 q 100 326 141 326 q 41 391 41 344 l 41 403 q 112 463 41 456 q 177 415 142 463 l 231 415 q 218 480 223 467 q 224 504 224 490 l 224 528 l 177 528 q 106 480 140 480 q 41 545 41 498 l 41 557 q 100 616 52 616 l 112 616 q 171 569 171 604 l 236 569 q 337 723 239 623 l 337 734 q 224 877 337 787 l 224 913 q 290 972 224 960 m 266 913 l 266 895 q 283 877 266 886 l 296 877 q 313 895 304 877 l 313 913 q 290 930 313 922 q 266 913 266 922 m 420 913 l 420 895 q 456 877 426 877 q 473 901 467 901 q 444 930 463 930 q 420 913 420 922 m 574 901 q 610 877 580 877 q 627 901 621 901 q 597 930 617 930 q 574 901 574 924 m 728 901 q 758 877 734 877 q 781 913 781 883 l 758 930 q 728 901 728 924 m 266 498 l 266 468 q 491 225 266 282 l 527 225 q 775 427 710 225 q 781 492 781 459 q 580 734 781 667 q 532 741 557 741 l 521 741 q 272 551 343 741 q 266 498 266 519 m 509 693 l 527 693 q 538 682 538 692 l 538 634 q 621 557 621 618 q 604 504 621 526 q 651 427 651 482 l 651 409 q 568 332 651 352 l 538 332 l 538 284 q 527 273 538 273 l 509 273 q 497 284 497 273 l 497 332 l 420 332 q 408 344 408 332 l 408 361 q 420 373 410 373 l 450 373 l 450 581 q 402 599 450 593 l 402 610 q 420 634 411 634 l 497 634 l 497 682 q 509 693 499 693 m 491 593 l 491 515 l 538 515 q 580 557 580 515 q 532 593 568 593 l 491 593 m 82 557 l 88 528 l 118 528 q 130 539 130 528 l 130 569 l 100 575 q 82 557 92 575 m 918 539 l 935 528 l 954 528 q 971 551 971 528 q 954 575 962 575 l 935 575 q 918 539 918 569 m 491 474 l 491 373 l 550 373 q 610 420 610 373 l 610 427 q 550 474 610 474 l 491 474 m 82 403 q 106 368 82 373 q 130 385 130 376 l 130 403 q 112 420 130 412 l 100 420 q 82 403 92 420 m 918 385 q 941 368 941 373 q 971 397 971 377 q 954 420 962 420 l 935 420 q 918 385 918 415 m 266 77 l 266 59 q 283 41 266 51 l 296 41 q 313 59 304 41 l 313 77 q 290 95 313 86 q 266 77 266 86 m 420 59 q 437 41 420 51 l 450 41 q 473 65 456 41 q 444 95 473 81 q 420 59 420 89 m 574 59 q 592 41 574 51 q 627 77 627 41 l 597 95 q 574 59 574 89 m 728 65 q 746 41 737 41 q 781 77 781 41 q 758 95 758 89 q 728 65 728 85 z "},"9":{"ha":1139,"x_min":41,"x_max":1089,"o":"m 552 972 l 572 972 q 583 962 583 970 l 583 865 q 572 854 583 854 l 552 854 q 542 865 542 854 l 542 962 q 552 972 543 972 m 481 916 l 496 916 q 506 905 506 914 l 506 865 q 496 854 506 854 l 481 854 q 471 865 471 854 l 471 905 q 481 916 472 916 m 624 895 l 639 895 q 650 885 650 894 l 650 865 q 639 854 650 854 l 624 854 q 614 865 614 854 l 614 885 q 624 895 615 895 m 920 844 l 941 844 q 956 829 948 844 q 900 640 900 705 l 900 629 q 966 517 900 619 q 982 491 973 491 l 987 491 q 1038 532 1010 532 l 1043 532 q 1089 475 1089 532 l 1089 322 q 1043 266 1089 266 l 1023 266 l 992 292 l 977 292 q 920 184 977 267 q 956 92 956 119 l 956 87 q 859 0 956 9 q 772 77 810 0 q 604 46 686 46 q 486 62 575 46 q 399 0 460 0 q 312 87 312 14 l 312 92 q 332 153 312 118 q 225 338 266 206 q 174 409 214 338 q 113 328 139 331 q 41 414 77 328 l 41 435 q 51 445 42 445 l 56 445 q 102 368 75 445 l 107 368 q 163 445 151 444 l 189 445 q 220 404 220 425 l 225 404 q 404 675 225 565 l 404 690 q 547 829 404 795 l 572 829 q 716 716 660 829 l 747 711 q 920 844 805 844 m 757 670 q 716 680 734 670 q 705 614 716 627 q 772 583 772 597 l 772 501 q 751 486 772 486 q 578 511 654 511 q 414 455 477 511 l 399 455 q 389 465 389 455 l 389 553 l 425 588 q 404 634 408 634 q 260 384 260 541 q 373 159 260 269 l 373 153 q 348 92 348 107 l 348 87 q 409 36 348 41 q 471 102 431 37 l 475 102 q 618 82 564 82 q 787 117 667 82 q 828 51 801 113 q 869 36 854 36 q 920 102 918 36 q 874 184 901 143 q 951 322 930 258 l 962 328 l 1013 328 q 1033 302 1033 317 l 1048 302 l 1053 328 l 1053 471 l 1048 496 l 1033 496 q 1013 455 1027 455 l 962 455 q 900 563 953 456 q 864 640 864 579 l 864 644 q 910 808 864 716 l 905 808 q 767 670 825 808 l 757 670 m 439 660 q 557 547 439 575 q 680 660 680 572 l 680 680 q 552 793 680 779 q 439 696 474 793 l 439 660 m 547 783 l 562 783 q 614 736 570 770 q 629 670 614 682 l 629 634 q 572 593 623 612 q 562 578 572 578 l 547 578 q 537 598 537 578 l 511 598 q 501 609 501 598 l 501 629 q 516 640 501 640 l 516 726 q 501 736 501 726 l 501 752 q 511 762 503 762 l 537 762 q 547 783 537 783 m 552 726 l 552 706 l 578 706 l 578 716 q 568 726 578 726 l 552 726 m 552 670 l 552 634 l 568 634 l 593 640 l 593 665 l 568 670 l 552 670 m 654 542 q 736 527 669 542 l 736 568 q 690 578 703 578 q 654 542 683 578 m 425 542 l 425 511 l 429 511 q 481 532 468 532 l 481 537 q 455 557 465 537 q 425 542 431 542 m 747 195 q 757 163 757 178 q 618 133 686 133 q 516 159 516 140 q 532 184 523 184 q 624 169 594 169 q 747 195 677 174 z "},"\u0000":{"ha":0,"x_min":0,"x_max":0,"o":""},"\u001d":{"ha":0,"x_min":0,"x_max":0,"o":""}," ":{"ha":345,"x_min":0,"x_max":0,"o":""}," ":{"ha":345,"x_min":0,"x_max":0,"o":""},"!":{"ha":1825,"x_min":61,"x_max":1740,"o":"m 656 1116 q 662 1110 661 1113 l 662 1104 q 623 1069 657 1085 l 612 1069 q 608 1074 610 1069 q 628 1105 608 1085 q 656 1116 635 1109 m 1111 1113 q 1156 1079 1137 1113 l 1156 1073 q 1148 1067 1154 1067 q 1101 1103 1127 1067 l 1101 1109 q 1111 1113 1102 1113 m 1176 1104 q 1198 1059 1198 1088 l 1198 1056 q 1183 1040 1198 1045 q 1164 1027 1183 1027 q 1124 1049 1133 1027 q 1149 1059 1124 1057 l 1166 1055 l 1171 1055 l 1171 1058 q 1163 1084 1164 1077 q 1176 1104 1163 1104 m 593 1103 q 600 1090 600 1099 l 600 1086 q 591 1053 600 1069 l 591 1052 q 625 1061 613 1061 q 642 1049 642 1055 q 611 1028 642 1038 l 608 1028 q 580 1038 585 1028 q 566 1057 566 1045 l 566 1067 q 593 1103 576 1103 m 1213 1059 l 1217 1059 q 1236 1024 1236 1043 l 1236 1015 q 1216 990 1236 1000 q 1200 983 1211 983 q 1160 1006 1182 983 l 1160 1011 q 1179 1019 1160 1017 q 1206 1007 1196 1017 l 1208 1007 l 1210 1010 q 1203 1028 1203 1027 l 1203 1039 q 1213 1059 1210 1059 m 545 1057 l 550 1057 q 560 1034 560 1050 q 557 1007 560 1023 q 583 1021 578 1021 l 589 1021 q 608 1010 608 1018 q 566 985 591 985 l 563 985 q 545 994 556 985 q 532 1006 532 994 q 528 1014 528 1007 l 528 1024 q 545 1057 538 1057 m 857 1052 q 872 1050 865 1050 l 884 1052 q 892 1040 892 1048 l 892 1005 q 906 1000 893 1000 q 911 1004 911 1002 l 911 1010 q 918 1029 911 1029 q 928 1018 928 1029 l 928 1004 q 930 1001 928 1001 l 932 1001 q 936 1005 934 1001 q 935 1044 935 1038 q 940 1050 937 1050 l 950 1050 q 968 1052 958 1050 q 981 1040 981 1050 l 981 1004 q 1023 989 981 999 q 1057 966 1050 975 q 1082 916 1076 945 q 1084 898 1082 916 q 1066 840 1079 855 l 1038 816 l 1038 814 l 1072 795 q 1104 720 1104 770 q 1080 654 1104 678 q 1057 632 1076 645 q 1045 619 1045 622 q 1034 611 1045 614 q 1015 601 1034 606 q 985 593 1015 597 q 980 567 981 590 q 971 563 975 563 q 960 564 966 563 q 944 563 953 563 q 935 572 937 563 q 936 586 935 574 q 933 611 935 611 q 928 612 931 612 l 895 612 q 892 610 892 610 q 899 604 893 604 l 919 604 q 928 595 928 604 l 928 564 q 936 553 928 555 q 947 555 943 555 l 949 555 q 960 549 956 555 l 960 546 q 954 541 960 544 l 920 541 q 911 550 911 541 l 911 585 q 907 589 911 587 l 895 589 q 892 585 894 589 l 892 573 q 885 563 892 566 l 858 563 q 847 574 847 563 q 848 604 847 581 q 843 612 846 612 l 732 612 q 722 620 726 612 l 724 627 l 724 644 q 722 683 724 656 q 735 688 728 688 l 766 688 q 770 699 770 689 l 770 869 q 759 898 770 898 q 735 903 759 903 l 709 903 q 700 908 702 903 q 699 935 700 925 q 700 956 700 945 q 699 970 700 958 q 704 977 701 977 l 710 977 q 715 968 715 975 l 715 929 q 721 918 715 919 l 756 918 q 786 888 786 913 l 786 709 l 787 703 l 790 703 q 793 710 793 703 l 793 895 q 773 925 793 917 l 752 925 q 734 926 745 925 l 731 925 q 724 935 724 925 l 724 950 q 722 994 724 967 q 734 1001 722 1001 l 807 1001 q 819 1000 812 1001 q 824 1004 824 1002 l 824 1013 q 829 1028 824 1028 l 834 1028 q 840 1019 840 1026 l 840 1005 q 843 1001 840 1004 q 848 1007 847 1002 q 847 1028 847 1021 l 847 1040 q 857 1052 847 1048 m 1247 1007 l 1254 1007 q 1267 976 1267 994 l 1267 970 q 1249 943 1261 943 q 1238 935 1245 943 l 1236 935 q 1189 966 1204 935 l 1189 968 q 1199 975 1192 975 l 1207 975 q 1238 958 1215 975 q 1234 981 1234 975 q 1247 1007 1243 1006 m 511 1006 l 517 1006 q 528 987 528 993 l 528 960 l 529 960 q 545 971 532 960 q 559 976 551 976 l 567 976 q 576 971 574 976 l 576 967 q 549 939 576 954 q 532 936 538 936 q 523 945 529 936 l 519 942 l 512 942 q 498 967 502 949 l 498 975 q 511 1006 504 1006 m 1279 953 q 1291 926 1291 943 l 1291 922 q 1268 888 1291 899 q 1261 890 1264 890 q 1255 882 1261 885 l 1254 882 q 1211 915 1231 882 l 1211 922 q 1220 928 1213 928 l 1221 928 q 1254 907 1238 928 l 1255 907 q 1258 909 1258 907 l 1258 920 q 1279 953 1266 953 m 485 951 q 506 919 503 947 l 506 903 l 509 903 q 534 928 509 914 q 545 929 540 928 q 554 922 554 928 q 525 888 554 901 q 516 886 520 886 q 485 895 485 886 q 475 920 475 902 l 475 924 q 485 951 478 951 m 884 922 l 884 920 q 886 918 884 918 l 913 918 q 978 898 969 918 q 985 864 982 892 l 988 864 q 991 880 991 873 l 991 882 q 975 918 991 909 q 903 926 954 926 q 893 925 896 925 q 889 926 890 926 q 884 922 884 924 m 882 899 l 882 848 q 886 844 882 846 l 932 844 q 967 854 967 848 l 967 867 q 945 897 966 897 q 895 903 942 902 l 890 903 q 882 899 882 902 m 1297 892 q 1306 871 1304 892 q 1288 834 1306 853 l 1279 831 l 1270 833 q 1264 827 1270 831 l 1261 827 q 1233 850 1238 838 q 1225 868 1225 864 q 1230 876 1225 873 l 1233 876 q 1270 846 1258 876 l 1271 846 q 1295 892 1271 882 l 1297 892 m 468 891 l 469 891 q 489 871 480 891 q 496 854 493 854 l 498 854 q 515 873 512 873 q 529 878 525 878 l 530 878 q 540 869 540 878 q 499 830 528 830 q 491 833 495 833 q 485 830 487 830 q 460 871 466 830 q 468 891 460 888 m 1305 833 q 1313 822 1313 830 l 1313 814 q 1293 778 1310 792 q 1280 772 1284 772 l 1279 772 q 1268 775 1278 772 q 1265 772 1268 772 l 1263 772 q 1234 802 1251 772 l 1233 809 l 1233 821 q 1238 826 1233 823 l 1240 826 q 1268 802 1254 826 q 1271 795 1268 795 q 1285 820 1276 799 q 1305 833 1300 833 m 460 830 q 485 809 470 830 q 492 788 490 789 q 509 821 498 810 q 522 826 518 826 l 528 826 q 533 821 530 826 l 533 817 q 500 774 522 774 l 491 775 q 482 770 489 770 q 454 822 454 782 q 460 830 455 827 m 884 770 l 884 769 q 886 766 884 766 l 919 766 q 1002 735 1002 766 q 1009 715 1006 715 q 1013 723 1013 717 l 1013 734 q 962 771 1013 771 q 936 774 962 774 l 888 774 q 884 770 886 774 m 525 774 q 536 765 536 773 q 520 727 529 727 q 506 718 513 718 q 500 720 503 720 q 491 714 498 714 l 489 714 q 456 747 472 714 l 455 760 q 461 769 456 769 q 496 739 475 769 l 498 739 q 506 761 499 739 q 525 774 518 774 m 1241 772 q 1264 749 1251 772 q 1270 737 1264 739 q 1303 770 1286 770 l 1306 770 q 1312 761 1310 770 q 1292 722 1312 743 q 1272 714 1276 714 q 1261 718 1263 718 q 1255 717 1257 718 q 1233 744 1240 724 q 1232 762 1232 752 l 1232 764 q 1241 772 1232 772 m 882 744 l 882 696 q 886 688 883 688 l 950 688 q 989 699 989 692 l 989 720 q 953 747 983 747 q 905 752 953 751 l 890 752 q 882 744 882 752 m 534 724 q 545 703 545 724 q 517 663 545 671 q 507 658 512 658 q 464 703 476 658 q 469 707 464 705 l 475 707 q 508 684 490 705 l 509 684 q 515 703 511 684 q 532 723 522 720 l 534 724 m 1228 723 l 1232 723 q 1251 699 1246 715 l 1251 683 q 1254 680 1252 680 q 1289 709 1275 709 l 1292 709 q 1299 705 1299 708 q 1265 659 1299 673 l 1257 659 q 1234 666 1241 666 q 1220 696 1225 676 l 1220 703 q 1228 723 1220 713 m 554 673 l 555 673 q 564 642 561 673 q 542 611 557 611 q 530 604 542 604 l 524 604 q 486 637 505 604 q 485 641 485 640 q 496 649 485 647 q 530 631 511 649 l 534 631 l 534 650 q 554 673 534 666 m 1215 672 q 1232 645 1225 672 q 1230 625 1230 631 l 1230 625 q 1275 649 1248 649 q 1281 641 1281 647 q 1251 607 1272 618 q 1240 604 1243 604 l 1237 604 q 1224 614 1224 604 l 1215 614 q 1202 637 1202 625 l 1202 652 q 1215 672 1202 672 m 708 667 q 715 654 715 667 l 715 614 q 725 604 715 604 l 829 604 q 840 591 840 604 l 840 564 q 847 553 840 557 l 854 555 l 859 555 q 869 550 869 553 l 869 545 q 861 541 868 541 l 830 541 q 824 553 824 544 l 824 577 q 825 583 824 580 q 820 589 823 588 l 711 589 q 699 604 699 589 l 700 614 l 700 658 q 708 667 700 667 m 574 628 l 578 628 q 591 594 591 615 q 574 562 591 574 q 555 555 574 557 q 513 586 532 555 l 513 587 q 530 594 513 593 q 562 580 547 593 l 564 580 l 564 585 q 560 601 560 597 q 574 628 567 628 m 1190 627 l 1192 627 q 1204 601 1204 616 q 1199 578 1204 593 q 1240 595 1220 594 q 1251 589 1251 593 l 1251 583 q 1207 556 1234 556 l 1204 556 q 1189 568 1196 556 q 1177 578 1177 568 q 1172 593 1173 585 q 1190 627 1177 627 m 1019 619 l 1019 616 l 1026 615 l 1027 615 q 1029 618 1029 615 q 1027 620 1029 620 l 1026 620 l 1019 619 m 983 610 q 985 607 983 607 l 995 607 q 1008 612 1008 609 l 1005 614 l 991 614 q 983 610 983 613 m 605 585 l 610 585 q 627 551 618 585 l 627 549 q 612 521 627 532 q 595 511 608 511 l 587 511 q 550 534 571 511 l 550 539 q 568 546 550 545 q 604 535 582 546 q 597 549 604 539 q 595 566 595 557 q 605 585 595 580 m 1159 585 l 1160 585 q 1171 564 1166 585 l 1171 559 q 1164 538 1164 542 l 1166 536 q 1196 546 1181 546 q 1216 538 1216 546 q 1192 516 1208 523 q 1179 511 1185 511 l 1172 511 q 1151 525 1156 511 q 1138 549 1138 525 q 1159 585 1143 583 m 642 550 q 670 508 659 550 q 658 492 669 492 l 659 484 q 637 471 648 471 l 629 471 q 595 492 595 480 l 595 495 q 612 504 602 504 l 628 504 q 644 499 642 499 l 646 499 l 646 500 q 635 528 635 513 l 635 532 q 642 550 635 550 m 1121 550 q 1131 530 1128 550 l 1131 528 q 1120 502 1131 517 l 1120 499 l 1121 499 q 1146 505 1138 505 q 1172 495 1165 505 l 1172 491 q 1135 471 1164 479 l 1129 471 q 1107 487 1107 477 l 1107 491 q 1095 508 1099 491 q 1116 547 1100 532 q 1121 550 1119 550 m 529 437 l 1238 437 q 1250 427 1250 437 l 1250 409 q 1255 404 1250 408 l 1268 405 l 1302 405 q 1310 401 1310 404 l 1310 399 q 1298 368 1310 395 q 1285 337 1290 353 q 1312 275 1292 318 l 1312 272 q 1302 267 1310 267 l 1192 267 q 1179 276 1179 267 l 1179 281 q 1181 293 1179 286 q 1176 300 1179 299 l 588 300 q 584 296 586 300 l 584 276 q 574 267 584 267 l 460 267 q 455 272 458 267 l 455 273 q 464 297 455 278 l 479 336 l 479 338 l 455 397 l 455 400 q 460 405 455 402 l 467 405 q 482 404 475 405 q 498 405 489 405 l 502 405 l 509 404 q 517 413 517 404 l 517 429 q 529 437 517 437 m 631 402 l 631 338 q 637 331 631 332 q 642 332 639 331 l 653 331 q 686 338 686 331 q 691 344 688 338 l 691 354 q 682 368 691 358 l 682 372 l 687 387 q 669 406 687 399 q 637 408 666 406 q 631 402 631 405 m 715 399 q 717 388 715 395 q 715 384 717 387 q 717 371 717 377 q 715 349 717 363 q 721 331 716 331 l 726 331 q 730 334 728 331 l 730 404 q 726 408 730 406 l 721 408 q 715 399 715 406 m 752 401 q 772 393 752 394 l 774 389 l 774 336 q 781 331 774 334 q 789 336 789 334 l 789 388 q 810 396 789 394 l 810 399 l 810 402 q 804 408 810 405 q 782 406 800 408 q 764 408 780 406 q 752 401 752 406 m 829 366 q 869 331 836 331 q 897 344 890 331 q 892 351 895 350 l 888 351 q 867 344 880 344 q 844 367 848 344 l 844 371 q 868 395 850 395 l 871 395 q 892 387 875 395 q 897 397 895 387 q 877 408 883 408 l 860 408 q 829 378 844 408 l 829 366 m 916 366 q 939 334 916 349 q 956 331 947 331 q 997 367 990 331 l 997 371 q 974 404 986 404 q 963 408 973 408 l 949 408 q 920 385 934 408 q 916 366 916 370 m 1021 401 q 1022 397 1021 399 q 1021 387 1022 394 q 1022 367 1022 370 l 1021 349 l 1022 347 q 1021 341 1021 344 l 1021 336 q 1029 331 1023 331 l 1031 331 q 1036 336 1033 331 l 1036 399 q 1031 408 1036 406 l 1029 408 q 1021 401 1023 408 m 1063 400 l 1063 338 q 1072 331 1063 331 q 1078 336 1078 333 l 1078 358 q 1077 370 1078 363 q 1080 375 1079 375 l 1083 375 q 1120 332 1115 335 l 1126 331 q 1133 340 1133 332 l 1133 399 q 1128 408 1133 406 l 1126 408 q 1118 400 1118 408 l 1118 366 q 1114 362 1118 364 l 1112 362 q 1080 404 1109 363 q 1069 408 1072 408 q 1063 400 1063 406 m 658 395 l 661 395 q 671 384 671 395 l 671 382 q 658 375 668 375 l 657 375 q 645 384 645 375 l 645 388 q 658 395 648 395 m 947 395 l 962 395 q 983 368 975 395 q 956 342 975 342 q 932 370 935 342 q 947 395 932 384 m 654 363 l 665 363 q 676 353 676 363 l 676 349 q 659 342 676 345 q 645 353 645 342 l 645 358 q 654 363 647 363 m 1576 221 l 1577 221 q 1584 208 1584 218 l 1584 156 q 1589 140 1589 142 q 1550 115 1581 125 q 1532 105 1538 105 l 1529 105 q 1511 118 1522 105 l 1510 118 q 1472 81 1510 94 l 1469 81 q 1447 95 1457 81 l 1444 96 q 1426 58 1440 58 q 1388 47 1393 47 q 1379 49 1388 47 q 1350 35 1368 35 q 1337 44 1343 35 l 1337 49 q 1343 67 1343 64 l 1343 102 q 1337 118 1343 118 q 1329 98 1334 116 q 1318 92 1322 92 l 1308 98 q 1306 95 1306 96 q 1314 52 1306 52 q 1319 40 1319 43 q 1288 15 1319 21 l 1281 15 q 1270 28 1272 15 q 1275 58 1275 56 l 1275 73 q 1265 118 1275 104 l 1265 125 q 1293 152 1265 141 q 1305 144 1299 152 l 1308 144 q 1319 155 1311 155 q 1333 142 1326 155 l 1335 142 q 1362 160 1354 160 l 1366 160 q 1373 129 1373 157 l 1374 129 q 1387 168 1382 168 l 1398 168 q 1430 170 1402 168 q 1436 160 1436 169 q 1421 92 1432 136 q 1422 88 1422 90 l 1425 88 q 1432 101 1428 88 q 1436 104 1434 104 q 1443 101 1440 101 q 1444 102 1443 102 q 1443 125 1443 118 q 1478 177 1443 170 l 1481 177 q 1508 161 1497 177 l 1511 161 q 1539 189 1521 189 l 1541 189 l 1549 187 q 1552 189 1551 189 q 1544 201 1552 193 q 1576 221 1544 216 m 1353 207 l 1358 207 q 1369 187 1369 201 q 1345 166 1362 166 q 1332 181 1335 166 l 1332 183 q 1353 207 1337 207 m 580 200 q 593 181 593 200 q 572 155 593 159 q 557 170 557 155 l 557 180 q 580 200 563 200 m 632 199 l 635 199 q 642 187 642 195 l 633 27 q 640 10 640 13 l 640 2 q 625 -11 640 -11 q 593 6 605 -11 q 576 -2 586 -2 q 549 18 555 -2 l 549 23 q 557 44 549 28 q 557 91 557 73 l 557 98 q 553 115 557 101 l 553 117 q 585 144 553 138 l 587 144 q 591 138 591 142 q 589 39 591 124 q 593 23 589 36 l 595 23 q 605 104 605 23 q 606 132 606 119 q 598 165 606 142 l 598 166 q 632 199 598 191 m 786 195 q 793 183 791 195 l 791 81 q 795 73 793 73 q 808 101 800 87 q 806 136 808 110 q 836 195 806 184 l 838 195 q 860 170 855 195 l 860 157 q 852 144 859 144 q 841 155 851 144 l 838 155 q 833 135 834 155 q 844 113 833 123 q 847 102 847 109 l 847 100 q 833 73 847 92 q 831 62 831 63 q 858 2 838 3 q 873 36 873 10 l 873 37 q 867 54 873 54 q 857 36 863 54 l 854 35 l 852 35 q 846 53 847 35 l 846 57 q 861 108 846 97 l 878 130 l 878 139 q 871 155 871 147 q 890 182 876 182 l 892 182 q 911 140 905 182 l 911 129 q 915 127 913 129 q 935 132 930 132 q 957 117 957 130 l 958 117 q 977 132 967 132 l 980 132 q 994 121 994 131 l 994 115 q 980 81 980 86 q 957 -29 962 -29 q 950 -32 957 -32 l 949 -32 q 928 43 942 -32 q 907 105 916 105 q 893 78 897 93 q 901 45 901 58 l 901 36 q 847 -36 894 -36 l 846 -36 q 793 35 809 -36 q 791 32 791 35 l 791 15 q 796 -4 791 12 l 796 -12 q 768 -32 791 -32 q 759 -19 764 -32 q 736 -28 745 -28 q 711 20 722 -28 l 710 20 q 676 -18 705 -18 q 650 7 661 -18 q 642 60 642 25 q 667 132 642 108 q 683 136 675 136 q 708 112 695 136 q 711 95 709 109 q 725 122 717 96 q 743 136 735 136 q 758 127 749 136 q 761 132 759 127 l 761 139 q 752 157 761 141 l 751 165 q 778 194 751 184 q 786 195 780 195 m 225 191 l 241 191 q 270 165 260 191 q 272 159 270 159 q 304 181 283 181 q 335 155 323 181 q 340 132 340 142 l 340 117 q 313 84 333 84 l 309 84 q 275 108 294 84 q 267 122 271 122 q 252 112 256 112 q 205 153 225 112 q 204 159 204 156 l 204 170 q 225 191 204 184 m 1156 177 l 1162 177 q 1165 169 1165 176 l 1165 152 q 1182 142 1165 142 q 1185 134 1185 138 l 1185 119 q 1169 106 1185 109 q 1168 102 1168 104 q 1173 32 1168 44 l 1175 32 q 1185 35 1183 35 l 1186 35 q 1190 31 1188 35 q 1159 -12 1190 -5 q 1138 64 1138 -12 q 1137 101 1137 87 l 1131 105 l 1130 105 q 1125 74 1126 105 q 1116 64 1118 64 l 1111 64 q 1099 98 1105 64 l 1094 98 q 1090 81 1090 85 q 1105 30 1095 30 l 1108 30 q 1121 36 1116 36 l 1122 36 q 1126 28 1126 35 l 1126 15 q 1097 -22 1126 -12 l 1094 -22 q 1069 2 1081 -22 q 1061 18 1065 18 q 1026 -28 1055 -28 q 989 50 996 -28 q 1026 132 996 132 q 1031 132 1026 132 q 1052 115 1044 128 q 1059 96 1055 110 l 1062 96 q 1100 138 1073 138 q 1121 122 1108 138 q 1134 146 1124 123 q 1156 177 1152 176 m 233 163 q 256 136 237 136 l 264 132 q 269 149 269 132 l 266 151 q 254 149 258 149 q 241 172 250 150 l 238 172 q 233 163 235 172 m 1538 149 l 1538 142 q 1544 132 1540 132 l 1546 132 q 1554 143 1554 136 l 1554 163 q 1550 170 1554 170 l 1546 170 q 1538 149 1538 163 m 375 168 q 387 157 381 168 l 389 157 q 403 165 399 165 q 422 149 412 165 q 438 160 435 160 l 441 160 q 460 132 456 160 q 458 68 458 86 q 460 43 458 62 q 447 32 456 32 q 421 49 437 32 l 420 49 q 409 45 413 45 q 382 61 396 45 q 379 62 382 62 q 372 60 375 60 q 344 78 344 64 l 344 81 q 352 115 352 98 l 352 134 l 348 153 q 375 168 356 168 m 98 165 l 100 165 q 112 151 112 158 q 85 54 105 135 l 86 54 q 144 96 92 54 q 170 113 164 113 q 184 102 176 113 l 184 98 q 159 9 159 16 l 159 7 q 197 37 164 7 q 235 70 223 62 l 238 70 q 250 62 245 70 l 250 58 q 153 -22 208 20 q 149 -24 151 -24 q 133 -9 133 -20 q 157 79 156 68 l 156 79 q 122 54 151 79 q 77 23 82 23 q 61 35 72 23 l 61 37 q 91 156 61 50 q 98 165 96 165 m 1472 151 q 1473 147 1473 149 l 1478 147 q 1483 156 1483 149 l 1480 159 l 1477 159 q 1472 151 1472 156 m 298 149 q 305 111 300 111 q 310 121 310 111 q 304 156 310 144 q 298 149 298 155 m 502 152 q 507 143 507 150 l 507 139 l 509 139 q 523 149 522 149 l 526 149 q 547 84 547 149 q 519 12 547 18 q 507 15 510 15 l 506 15 q 502 12 504 15 l 502 10 q 508 -14 508 -8 q 500 -22 506 -20 l 492 -22 q 461 10 461 -10 l 461 13 q 471 35 471 31 q 473 102 473 98 q 465 119 465 117 l 465 121 q 496 152 465 136 l 502 152 m 1682 152 q 1688 147 1687 150 q 1648 111 1688 139 q 1638 94 1638 99 q 1653 81 1643 81 q 1704 98 1659 81 l 1712 98 q 1740 66 1740 92 q 1671 -1 1740 31 l 1666 -1 q 1661 6 1664 0 q 1699 36 1664 15 q 1719 64 1719 54 q 1706 78 1719 72 q 1659 62 1701 78 q 1651 61 1658 61 l 1645 61 q 1617 91 1625 61 l 1617 94 q 1672 149 1617 121 q 1682 152 1672 152 m 1228 147 q 1262 88 1253 147 l 1262 66 q 1225 -1 1262 15 q 1221 -2 1224 -1 q 1190 41 1198 -2 q 1187 64 1187 48 l 1187 75 q 1223 147 1191 138 l 1228 147 m 1384 121 l 1383 121 q 1374 125 1379 121 l 1373 122 q 1381 67 1373 67 q 1398 135 1388 75 q 1396 138 1398 138 q 1384 121 1386 121 m 1473 118 q 1485 111 1476 111 l 1487 111 q 1510 121 1497 121 l 1510 122 q 1503 134 1510 134 q 1473 119 1473 121 l 1473 118 m 385 126 q 380 87 382 119 q 382 78 382 82 l 386 78 q 389 96 389 88 l 389 123 q 387 126 389 126 l 385 126 m 422 118 q 420 81 420 106 l 420 68 q 422 66 420 66 q 429 113 429 66 q 425 118 427 118 l 422 118 m 958 113 q 953 91 953 103 q 958 71 954 71 q 964 94 964 71 l 964 98 q 958 113 962 113 m 673 92 l 677 88 l 679 88 q 687 96 687 88 q 680 109 686 109 q 673 92 675 109 m 1217 102 q 1230 37 1221 37 l 1232 37 q 1233 43 1232 40 q 1224 109 1233 77 l 1221 109 q 1217 102 1219 109 m 507 106 q 503 53 505 87 q 507 47 505 47 l 509 47 q 517 79 515 47 q 511 106 516 106 l 507 106 m 1026 104 q 1021 87 1021 97 q 1025 81 1023 81 l 1029 81 q 1035 88 1031 81 q 1026 104 1034 104 m 742 45 l 742 39 q 749 10 743 10 l 752 10 q 760 52 759 10 l 760 79 q 753 96 760 94 l 752 96 q 742 45 744 96 m 1576 85 l 1577 85 q 1584 75 1584 82 l 1584 73 q 1528 37 1583 67 l 1528 35 q 1545 6 1535 16 q 1594 33 1546 6 l 1600 33 q 1606 22 1606 32 l 1606 20 q 1555 -11 1605 17 l 1554 -14 q 1572 -42 1567 -42 q 1637 -5 1635 -5 q 1645 -16 1645 -8 l 1645 -20 q 1565 -68 1640 -26 l 1559 -68 q 1531 -16 1552 -61 q 1501 39 1516 6 l 1501 40 q 1517 53 1501 48 q 1576 85 1573 85 m 673 44 q 684 20 673 33 l 690 20 q 705 30 701 30 q 709 28 707 28 l 710 31 l 710 45 q 707 49 710 47 l 705 49 q 677 52 699 49 q 673 44 673 50 m 1045 45 l 1032 45 q 1023 40 1025 45 l 1023 37 q 1036 13 1023 20 l 1038 13 q 1050 24 1048 24 q 1060 20 1054 24 l 1061 20 l 1061 24 q 1057 49 1061 45 q 1045 45 1048 45 m 292 32 q 368 -9 336 32 q 376 -39 372 -9 l 376 -41 q 331 -102 376 -85 q 321 -104 326 -104 l 307 -104 q 246 -73 281 -104 q 228 -33 228 -53 l 228 -25 q 246 13 231 -5 q 292 32 269 32 m 250 -35 q 309 -84 250 -71 l 314 -84 q 353 -53 342 -84 q 355 -39 355 -45 q 309 10 355 -4 q 296 13 298 13 q 250 -35 256 13 m 1401 -9 q 1438 -37 1426 -9 l 1439 -45 l 1439 -49 q 1419 -80 1439 -64 l 1419 -84 l 1472 -104 l 1473 -107 q 1459 -118 1470 -118 l 1396 -94 q 1378 -106 1380 -94 l 1378 -107 q 1390 -142 1385 -124 q 1377 -151 1390 -149 l 1373 -151 q 1356 -107 1367 -151 q 1331 -41 1354 -106 q 1330 -39 1330 -41 l 1330 -33 q 1383 -12 1345 -23 q 1401 -9 1393 -9 m 1354 -46 q 1373 -83 1368 -83 l 1374 -83 q 1409 -64 1398 -73 q 1418 -46 1418 -54 q 1398 -29 1413 -29 q 1356 -43 1367 -35 l 1354 -46 m 444 -33 l 454 -33 q 530 -104 530 -45 q 486 -163 530 -146 l 465 -166 q 399 -138 435 -166 q 383 -96 383 -120 l 383 -94 q 423 -37 383 -57 q 444 -33 437 -33 m 1293 -43 l 1296 -43 q 1302 -50 1297 -43 l 1302 -58 q 1242 -79 1301 -62 l 1240 -83 q 1253 -113 1246 -113 l 1254 -113 q 1305 -98 1298 -98 q 1313 -109 1313 -101 q 1284 -123 1313 -119 q 1254 -138 1254 -131 q 1265 -165 1261 -165 q 1332 -146 1286 -161 l 1335 -146 q 1341 -161 1339 -146 q 1263 -187 1338 -166 q 1253 -189 1253 -189 q 1237 -155 1242 -189 q 1216 -72 1227 -121 q 1264 -53 1216 -62 q 1293 -43 1287 -43 m 404 -97 q 457 -145 404 -133 l 472 -145 q 508 -111 496 -145 q 509 -101 509 -106 q 451 -53 509 -60 l 444 -53 q 404 -97 412 -53 m 576 -67 q 644 -89 597 -67 q 671 -134 671 -109 l 671 -148 q 636 -197 671 -178 q 611 -203 618 -203 l 600 -203 q 540 -186 540 -195 q 562 -93 540 -179 q 576 -67 566 -67 m 1190 -71 q 1199 -83 1199 -75 q 1159 -98 1199 -92 l 1156 -104 q 1175 -204 1175 -193 q 1162 -210 1167 -210 q 1148 -176 1152 -210 q 1135 -106 1139 -132 q 1129 -104 1131 -104 q 1097 -110 1126 -104 q 1083 -104 1092 -110 q 1042 -117 1083 -114 q 1036 -121 1036 -120 l 1046 -221 q 1035 -229 1046 -229 q 1022 -199 1022 -229 q 1011 -121 1018 -121 q 1010 -119 1010 -121 q 971 -121 991 -121 q 967 -113 967 -117 q 987 -102 967 -102 q 1073 -93 1028 -100 q 1083 -101 1074 -93 q 1149 -81 1083 -88 q 1190 -71 1155 -79 m 1510 -76 l 1515 -76 q 1518 -84 1518 -77 l 1518 -89 q 1506 -97 1514 -97 q 1497 -85 1497 -96 q 1510 -76 1497 -76 m 564 -175 q 605 -184 570 -180 q 648 -157 635 -184 q 650 -142 650 -152 l 650 -132 q 614 -96 650 -111 l 588 -89 q 564 -175 583 -89 m 762 -101 l 777 -101 q 814 -111 814 -104 l 814 -117 q 808 -121 814 -119 q 774 -121 786 -121 l 762 -121 q 713 -163 722 -121 l 713 -169 q 731 -199 717 -189 q 799 -212 753 -212 q 808 -218 808 -216 l 808 -223 q 791 -230 806 -230 l 785 -230 q 697 -191 718 -230 q 691 -169 692 -182 q 749 -102 691 -118 q 762 -101 756 -101 m 847 -104 q 857 -113 853 -104 q 854 -188 854 -183 q 873 -212 861 -212 q 889 -216 873 -215 l 901 -216 q 932 -186 932 -210 q 930 -121 932 -167 l 929 -115 q 943 -104 929 -106 q 951 -115 951 -109 q 954 -187 951 -136 q 920 -231 954 -218 q 897 -235 906 -235 l 889 -235 q 837 -206 851 -235 q 833 -193 833 -200 l 833 -188 q 840 -106 833 -106 q 847 -104 846 -104 z "},"\"":{"ha":920,"x_min":27,"x_max":880,"o":"m 559 974 q 644 926 574 974 l 729 932 q 777 871 777 918 q 759 768 759 777 q 880 665 863 705 l 880 647 q 789 581 860 581 l 789 574 q 856 538 856 555 q 771 375 819 538 q 831 6 831 109 l 819 0 l 27 0 l 27 6 q 227 448 54 181 l 227 454 q 178 665 178 633 l 178 696 q 233 720 178 713 q 311 713 284 713 q 281 792 281 755 q 390 877 281 877 l 414 877 l 444 871 q 559 974 509 974 m 433 847 l 414 817 q 747 713 486 713 l 753 750 l 711 750 q 433 847 552 750 m 203 696 l 197 684 l 197 659 q 578 406 294 495 q 632 369 632 406 l 632 363 l 638 363 q 644 412 644 390 q 299 557 424 452 q 203 677 203 640 l 203 684 l 209 696 l 203 696 m 680 611 l 663 611 q 584 617 623 611 l 572 617 l 572 611 q 717 599 692 599 q 856 641 847 605 l 856 659 q 680 611 802 611 m 493 635 l 493 629 l 505 629 l 505 635 l 493 635 m 517 629 l 517 623 l 529 623 l 529 629 l 517 629 m 541 623 l 541 617 l 559 617 l 559 623 l 541 623 m 408 581 l 408 568 q 475 551 408 551 l 499 551 l 499 557 q 408 581 481 557 m 559 545 l 559 532 q 584 526 562 532 q 650 538 599 526 l 650 545 l 559 545 m 626 357 l 626 345 l 632 345 l 632 357 l 626 357 m 433 327 q 420 302 433 302 l 366 302 l 366 266 q 402 254 402 266 l 402 151 q 366 139 402 139 l 366 103 l 420 103 q 433 73 433 103 l 450 73 q 463 103 450 103 l 487 73 l 499 73 q 547 115 499 106 q 566 163 566 140 q 529 212 566 174 q 553 254 553 222 q 499 315 553 276 l 499 327 l 475 327 q 463 302 475 302 q 450 327 450 302 l 433 327 m 456 266 l 487 266 q 505 248 496 266 l 505 236 q 450 218 505 221 l 444 230 l 444 254 q 456 266 446 266 m 456 187 l 481 187 q 517 170 517 184 l 517 157 q 499 139 517 149 l 456 139 q 444 151 444 139 l 444 176 q 456 187 446 187 z "},"#":{"ha":1042,"x_min":34,"x_max":1001,"o":"m 484 972 l 535 972 q 965 678 811 972 q 1001 511 1001 589 l 1001 466 q 758 66 1001 227 q 520 0 631 0 q 64 309 218 0 q 34 466 34 396 l 34 511 q 328 937 34 781 q 484 972 423 972 m 100 516 l 100 460 q 322 117 100 254 q 484 71 414 71 l 535 71 q 915 349 787 71 q 935 460 935 421 l 935 516 q 737 845 935 704 q 530 906 635 906 l 505 906 q 120 627 248 906 q 100 516 100 556 m 606 774 q 616 764 616 773 q 566 562 566 598 q 621 582 602 571 q 626 577 621 577 q 581 501 617 501 q 525 440 525 492 l 500 354 l 753 354 l 763 349 q 728 253 741 253 l 312 253 q 302 263 302 253 q 342 415 342 401 q 282 400 297 400 q 342 481 290 481 q 393 592 374 481 l 449 774 l 606 774 z "},"$":{"ha":1046,"x_min":34,"x_max":1008,"o":"m 500 974 l 541 974 q 977 665 818 974 q 1008 487 1008 553 q 673 25 1008 172 q 521 0 625 10 q 100 243 260 0 q 34 487 34 356 l 34 492 q 349 943 34 801 q 500 974 425 974 m 409 776 l 409 705 q 399 695 409 695 l 318 695 l 318 289 q 328 279 319 279 l 399 279 q 409 269 409 277 l 409 203 q 419 193 411 193 l 475 193 l 475 269 q 486 279 477 279 l 546 279 l 546 203 q 556 193 548 193 l 612 193 l 612 279 q 734 391 734 297 l 734 406 q 699 487 734 445 l 699 492 q 734 583 734 528 q 623 695 720 695 q 612 705 612 695 l 612 776 q 602 786 612 786 l 556 786 q 546 776 546 785 l 546 705 q 536 695 546 695 l 486 695 q 475 705 475 695 l 475 776 q 465 786 475 786 l 419 786 q 409 776 409 785 m 439 634 l 562 634 q 623 578 623 629 q 556 522 623 522 l 439 522 q 429 532 429 522 l 429 624 q 439 634 431 634 m 439 452 l 587 452 q 623 395 623 429 q 572 345 610 345 l 439 345 q 429 355 429 345 l 429 441 q 439 452 431 452 z "},"%":{"ha":1030,"x_min":27,"x_max":992,"o":"m 512 970 q 962 662 808 970 q 992 505 992 575 l 992 450 q 795 91 992 256 q 517 0 661 0 l 497 0 q 62 293 217 0 q 27 460 27 382 l 27 505 q 340 939 27 787 q 512 970 441 970 m 93 510 l 93 454 q 315 111 93 254 q 502 66 412 66 l 517 66 q 901 334 772 66 q 926 470 926 403 l 926 510 q 709 854 926 711 q 507 904 613 900 q 118 636 250 904 q 93 510 93 559 m 512 873 q 881 601 762 873 q 896 495 896 549 l 896 460 q 638 116 896 238 q 512 96 569 96 l 507 96 q 133 384 239 96 q 123 460 123 431 l 123 495 q 391 854 123 741 q 512 873 441 869 m 406 747 l 406 687 q 396 677 406 677 l 335 677 q 325 667 325 675 l 325 293 l 396 293 q 406 283 406 292 l 406 212 q 467 212 461 212 l 467 283 q 477 293 468 293 l 522 293 q 532 283 532 292 l 532 222 q 598 209 532 208 l 598 283 q 663 308 598 290 q 709 404 709 355 q 673 485 709 437 q 709 571 709 525 q 593 682 709 657 l 598 692 l 598 747 q 588 758 598 758 l 543 758 q 532 747 532 756 l 532 687 q 522 677 532 677 l 477 677 q 467 687 467 677 l 467 758 l 416 758 q 406 747 406 756 m 436 616 l 557 616 q 603 571 603 610 l 603 566 q 553 515 596 515 l 436 515 q 426 526 426 515 l 426 606 q 436 616 428 616 m 436 450 l 557 450 q 603 404 603 443 l 603 399 q 543 349 603 349 l 436 349 q 426 359 426 349 l 426 439 q 436 450 428 450 z "},"&":{"ha":1039,"x_min":27,"x_max":999,"o":"m 513 972 q 979 633 836 972 q 999 491 999 553 l 999 486 q 695 35 999 184 q 508 0 600 0 q 62 304 216 0 q 27 491 27 403 q 270 906 27 748 q 513 972 381 972 m 93 481 q 381 86 93 216 q 513 66 471 66 q 918 370 798 66 q 933 491 933 434 q 645 886 933 763 q 518 906 576 906 q 118 623 235 906 q 93 481 93 560 m 518 876 q 867 648 745 876 q 903 486 903 574 q 619 111 903 220 q 513 96 549 96 q 144 364 260 96 q 123 486 124 438 q 401 861 123 747 q 518 876 467 876 m 432 764 l 432 719 q 422 709 432 709 l 351 709 l 351 269 l 422 269 q 432 258 432 267 l 432 208 l 473 208 l 473 258 q 483 269 474 269 l 498 269 q 513 208 508 269 l 543 208 q 559 269 553 208 l 619 269 q 726 380 702 269 l 726 395 q 680 486 726 437 q 726 592 726 532 q 584 709 726 699 l 564 709 q 549 764 553 709 l 518 764 q 503 709 508 764 l 483 709 q 473 719 473 709 l 473 764 l 432 764 m 407 663 l 422 663 q 432 653 432 661 l 432 516 q 422 506 432 506 l 407 506 q 397 516 397 506 l 397 653 q 407 663 398 663 m 483 663 l 498 663 q 508 653 508 661 l 508 516 q 498 506 508 506 l 483 506 q 473 516 473 506 l 473 653 q 483 663 474 663 m 564 663 l 604 663 q 680 597 680 653 l 680 572 q 589 506 669 506 l 564 506 q 553 516 553 506 l 553 653 q 564 663 555 663 m 407 466 l 422 466 q 432 456 432 464 l 432 319 q 422 309 432 309 l 407 309 q 397 319 397 309 l 397 456 q 407 466 398 466 m 483 466 l 498 466 q 508 456 508 464 l 508 319 q 498 309 508 309 l 483 309 q 473 319 473 309 l 473 456 q 483 466 474 466 m 564 466 l 599 466 q 680 400 680 455 l 680 374 q 599 309 680 319 l 564 309 q 553 319 553 309 l 553 456 q 564 466 555 466 z "},"'":{"ha":1046,"x_min":34,"x_max":1004,"o":"m 519 970 q 968 667 816 970 q 1004 480 1004 564 q 706 35 1004 191 q 524 0 608 0 l 504 0 q 69 298 223 0 q 34 480 34 389 l 34 495 q 332 935 34 777 q 519 970 446 970 m 100 480 q 397 81 100 201 q 519 66 462 66 l 524 66 q 918 359 798 66 q 938 490 938 433 q 686 869 938 732 q 519 904 591 904 q 115 601 235 904 q 100 480 100 537 m 519 873 q 882 621 760 873 q 907 480 907 534 q 741 167 907 296 q 519 96 642 96 l 514 96 q 165 323 286 96 q 130 485 130 397 q 438 864 130 766 l 519 873 m 170 480 q 403 157 170 258 q 519 136 450 136 l 529 136 q 847 369 741 136 q 867 485 862 419 q 615 819 867 717 q 519 833 568 828 q 195 611 300 833 q 170 480 170 554 m 469 732 l 600 732 l 600 728 q 554 555 600 711 l 559 555 q 605 571 599 571 q 610 566 605 566 q 539 495 610 495 q 509 384 509 410 l 715 384 q 726 374 726 382 q 696 298 711 298 l 347 298 q 337 308 337 298 q 372 435 372 418 q 327 419 336 419 q 322 425 327 425 q 382 495 322 482 q 438 667 397 495 q 469 732 458 732 z "},"(":{"ha":1048,"x_min":34,"x_max":1004,"o":"m 509 970 l 519 970 q 943 718 791 970 q 1004 485 1004 606 q 701 35 1004 187 q 514 0 602 0 q 75 288 231 0 q 34 480 34 387 l 34 490 q 292 914 34 758 q 509 970 405 970 m 100 490 q 408 81 100 193 q 524 66 476 66 q 918 353 787 66 q 938 485 938 447 q 635 889 938 770 q 514 904 571 904 q 120 616 241 904 q 100 490 100 551 m 519 873 q 898 576 791 873 l 907 490 q 620 111 907 217 q 519 96 559 96 q 145 374 258 96 q 130 485 130 437 q 357 838 130 718 q 519 873 435 873 m 498 758 q 418 510 435 510 q 347 429 356 510 q 408 444 379 444 l 368 278 l 675 278 q 701 349 687 278 l 469 349 l 458 353 q 519 490 486 490 q 579 566 566 490 l 574 566 q 519 545 566 566 q 514 551 519 551 q 569 758 559 709 l 498 758 z "},")":{"ha":1026,"x_min":27,"x_max":997,"o":"m 522 970 q 962 672 804 970 q 997 485 997 557 q 684 31 997 183 q 502 0 585 0 q 62 293 226 0 q 27 480 27 396 l 27 500 q 275 909 27 749 q 522 970 380 970 m 93 485 l 93 480 q 386 86 93 205 q 517 66 454 66 q 906 338 770 66 q 931 490 931 435 q 644 884 931 758 q 512 904 570 904 l 507 904 q 113 616 234 904 q 93 485 93 557 m 512 873 q 891 576 785 873 l 901 490 q 613 111 901 217 q 512 96 545 96 q 159 323 281 96 q 123 485 123 397 l 123 490 q 351 838 123 717 q 512 873 424 873 m 163 485 q 431 146 163 237 q 512 136 497 136 q 846 389 744 136 q 861 485 855 435 q 603 823 861 720 q 502 833 540 833 q 184 601 288 833 q 163 485 163 554 m 436 768 l 456 768 q 471 753 464 768 l 471 707 l 502 707 l 502 753 q 517 768 502 760 l 537 768 q 553 737 553 763 l 553 707 l 608 707 q 724 586 701 707 q 673 485 724 536 l 673 480 q 724 384 707 480 q 603 262 701 262 l 553 262 l 553 222 q 537 207 553 215 l 512 207 q 502 217 502 207 l 502 262 l 471 262 l 471 217 q 462 207 471 207 l 431 207 q 421 217 421 207 l 421 262 l 355 262 q 345 273 345 262 l 345 697 q 355 707 347 707 l 421 707 l 421 753 q 436 768 421 760 m 391 652 l 391 510 l 421 510 l 421 662 l 401 662 q 391 652 391 660 m 471 662 l 471 510 l 502 510 l 502 662 l 471 662 m 553 662 q 553 510 553 515 l 608 510 q 673 576 673 527 l 673 591 q 583 662 663 662 l 553 662 m 391 460 l 391 313 l 421 313 l 421 460 l 391 460 m 471 460 l 471 313 l 502 313 l 502 460 l 471 460 m 553 460 l 551 313 l 613 313 q 673 379 656 313 l 673 394 q 603 460 673 448 l 553 460 z "},"*":{"ha":772,"x_min":34,"x_max":739,"o":"m 236 972 l 322 972 q 335 916 335 972 l 335 830 l 412 830 l 421 834 l 416 886 l 416 959 q 429 972 416 965 l 515 972 q 524 963 524 970 q 533 825 527 825 q 683 731 610 825 q 701 654 701 686 q 602 512 701 555 l 602 503 q 739 340 739 458 l 739 331 q 585 155 739 202 q 528 146 550 146 l 528 26 q 515 0 528 3 l 429 0 q 416 13 423 0 l 416 138 l 335 138 l 335 103 q 331 68 335 85 q 335 35 335 52 l 335 26 q 322 0 335 3 l 236 0 q 223 13 230 0 l 223 138 l 47 138 q 34 151 41 138 l 34 241 q 43 250 35 250 l 94 250 q 133 279 133 250 l 133 692 q 115 722 133 715 l 43 722 q 34 731 34 722 l 34 821 q 43 830 35 830 l 223 830 l 223 959 q 236 972 223 965 m 331 718 l 335 701 q 331 684 335 691 q 335 636 335 654 l 335 564 q 344 559 344 564 l 352 564 l 416 564 q 494 641 494 574 q 395 722 494 722 l 339 722 l 331 718 m 331 452 l 331 250 l 412 250 q 515 357 515 250 q 391 452 515 452 q 344 456 382 452 q 331 452 335 452 z "},"+":{"ha":1048,"x_min":41,"x_max":1006,"o":"m 522 970 l 526 970 q 552 930 536 970 l 561 930 l 596 966 l 601 966 l 627 917 q 667 948 633 917 l 671 948 q 693 895 680 948 l 742 922 q 755 864 749 915 l 764 864 q 808 882 797 882 l 812 873 l 812 855 l 808 825 q 812 820 812 825 q 865 833 853 833 l 869 825 q 861 772 861 785 l 865 772 q 913 776 895 776 q 918 763 918 767 l 901 719 q 958 701 958 713 l 931 657 q 984 635 984 642 l 984 631 l 954 591 q 1002 560 1002 569 q 966 529 980 529 l 966 516 q 1006 490 1006 499 l 1006 485 q 966 458 1006 474 l 966 450 l 1002 414 l 1002 410 q 954 379 954 382 q 984 344 959 379 l 984 340 q 931 317 984 330 l 958 273 l 958 269 q 901 256 958 260 q 918 203 901 254 l 909 199 l 861 199 l 861 194 q 869 146 861 186 l 861 141 q 812 150 820 150 q 808 146 812 146 l 812 123 l 812 102 q 799 93 812 93 l 755 111 l 751 102 l 751 62 q 737 53 751 53 l 693 79 q 671 22 679 22 l 627 58 q 601 9 606 9 l 596 9 q 561 44 592 9 l 552 44 q 522 0 549 20 q 495 44 495 35 l 481 44 q 451 9 481 31 l 446 9 l 416 58 q 380 26 416 51 l 376 26 q 354 79 368 26 q 305 53 313 53 q 292 111 298 60 l 288 111 q 239 93 252 93 q 235 106 235 101 l 235 150 q 182 141 186 141 l 178 150 q 186 199 186 181 l 138 199 q 129 212 129 199 q 142 256 142 231 q 90 269 90 260 l 116 317 q 63 340 63 330 l 63 344 q 94 384 81 365 q 45 410 45 404 l 45 414 l 81 450 l 81 458 q 41 485 63 458 l 41 490 l 81 520 l 81 529 q 45 560 67 529 q 94 587 45 572 l 94 591 l 63 631 l 63 635 q 116 657 63 642 l 90 701 q 146 719 90 713 l 146 723 q 129 772 129 760 q 142 776 138 776 q 186 772 180 772 l 186 776 q 178 829 186 789 l 186 833 q 239 825 217 825 l 235 869 l 235 873 q 243 882 236 882 q 292 864 284 864 q 305 917 296 917 q 354 895 317 917 q 376 948 368 948 l 380 948 q 420 917 401 929 l 425 917 q 451 966 437 966 q 486 930 454 966 l 495 930 q 522 970 495 942 m 433 776 l 433 701 q 420 688 433 694 q 328 692 362 692 l 319 692 l 314 670 l 314 644 q 323 635 315 635 l 363 635 q 376 617 376 635 q 372 573 376 574 q 376 490 376 525 l 376 366 q 340 340 376 340 q 314 326 314 340 l 314 291 q 323 282 315 282 l 420 282 q 433 269 426 282 l 433 199 l 477 199 q 486 208 486 199 l 486 273 q 495 282 488 282 l 539 282 q 548 273 548 281 l 548 208 q 557 199 549 199 l 601 199 l 601 252 q 627 287 601 287 q 720 353 720 315 q 733 397 728 353 q 645 498 733 458 l 645 503 q 707 582 707 533 l 707 595 q 631 684 707 654 q 601 701 601 684 l 601 776 l 557 776 q 548 767 548 774 l 548 696 q 539 688 548 688 l 495 688 q 486 696 486 688 l 486 767 q 477 776 486 776 l 433 776 m 495 635 l 539 635 q 596 582 596 628 q 517 525 596 525 l 499 525 q 486 538 493 525 l 486 626 q 495 635 488 635 m 490 472 l 543 472 q 610 406 610 466 q 539 335 610 335 l 495 335 q 481 349 488 335 l 481 463 q 490 472 483 472 z "},",":{"ha":1010,"x_min":34,"x_max":978,"o":"m 151 971 l 227 936 q 343 911 289 911 q 503 968 437 911 l 506 968 q 666 911 572 911 q 859 971 751 911 l 861 971 q 978 675 978 839 q 704 87 978 293 q 500 0 585 13 q 191 193 300 55 q 34 643 34 391 l 34 697 q 140 963 34 831 l 151 971 m 449 798 l 449 713 q 444 708 449 708 l 338 708 l 338 624 l 365 624 q 370 618 370 623 l 370 328 q 365 323 370 323 l 338 323 l 338 247 l 438 247 q 444 241 444 246 l 444 171 l 492 171 l 492 241 q 498 247 493 247 l 522 247 q 528 241 528 246 l 528 171 l 574 171 l 574 241 q 579 247 574 247 l 601 247 q 739 358 703 247 l 739 388 q 680 491 739 450 q 726 583 726 517 q 636 700 726 673 q 598 705 616 705 l 585 705 q 579 711 579 705 l 579 795 l 533 795 l 533 711 q 528 705 533 705 l 500 705 q 495 711 495 705 l 495 798 l 449 798 m 452 624 l 604 624 q 644 578 644 624 q 601 532 640 532 l 457 532 q 452 537 452 532 l 452 624 m 457 450 l 595 450 q 661 382 661 450 q 609 328 650 328 l 457 328 q 452 334 452 328 l 452 445 q 457 450 452 450 z "},"-":{"ha":1167,"x_min":34,"x_max":1114,"o":"m 905 990 q 1000 903 1000 981 l 1000 369 q 1114 133 1000 362 l 1114 98 q 1043 3 1114 22 q 1021 0 1033 0 l 118 0 q 34 73 60 0 l 34 127 q 142 355 34 142 q 145 366 145 360 l 145 892 q 227 990 145 973 l 905 990 m 259 477 q 308 429 267 429 l 840 429 q 886 469 876 429 l 886 575 q 888 578 886 578 l 886 583 l 886 640 q 888 665 886 650 q 886 673 886 670 q 888 689 886 675 l 886 705 l 888 711 l 886 716 l 888 722 l 886 727 q 888 735 886 735 l 886 768 l 886 836 q 831 876 886 870 l 308 876 q 259 825 265 876 l 259 477 m 530 814 l 547 814 q 552 808 552 813 l 552 768 l 568 768 l 568 811 q 579 814 574 811 q 593 811 584 811 l 593 768 l 598 768 q 666 713 658 768 l 666 705 q 644 656 666 675 q 674 605 667 656 q 609 537 674 550 l 590 537 l 590 505 q 585 499 590 499 l 571 499 q 566 505 566 499 l 566 537 l 549 537 l 549 505 q 544 499 549 499 l 525 499 l 522 513 l 522 537 l 476 537 q 471 543 471 537 l 471 572 q 487 578 471 578 l 487 724 q 471 730 471 724 l 471 762 q 476 768 471 768 l 525 768 l 525 789 q 528 800 525 795 q 525 811 525 805 l 530 814 m 530 724 l 530 681 l 604 681 q 625 703 625 684 q 604 724 621 724 l 530 724 m 530 637 l 530 583 q 536 578 531 578 l 598 578 q 631 605 631 578 l 631 610 q 601 637 631 637 l 530 637 m 438 225 l 416 136 l 728 136 l 728 138 q 707 225 728 144 l 438 225 z "},"­":{"ha":1167,"x_min":34,"x_max":1114,"o":"m 905 990 q 1000 903 1000 981 l 1000 369 q 1114 133 1000 362 l 1114 98 q 1043 3 1114 22 q 1021 0 1033 0 l 118 0 q 34 73 60 0 l 34 127 q 142 355 34 142 q 145 366 145 360 l 145 892 q 227 990 145 973 l 905 990 m 259 477 q 308 429 267 429 l 840 429 q 886 469 876 429 l 886 575 q 888 578 886 578 l 886 583 l 886 640 q 888 665 886 650 q 886 673 886 670 q 888 689 886 675 l 886 705 l 888 711 l 886 716 l 888 722 l 886 727 q 888 735 886 735 l 886 768 l 886 836 q 831 876 886 870 l 308 876 q 259 825 265 876 l 259 477 m 530 814 l 547 814 q 552 808 552 813 l 552 768 l 568 768 l 568 811 q 579 814 574 811 q 593 811 584 811 l 593 768 l 598 768 q 666 713 658 768 l 666 705 q 644 656 666 675 q 674 605 667 656 q 609 537 674 550 l 590 537 l 590 505 q 585 499 590 499 l 571 499 q 566 505 566 499 l 566 537 l 549 537 l 549 505 q 544 499 549 499 l 525 499 l 522 513 l 522 537 l 476 537 q 471 543 471 537 l 471 572 q 487 578 471 578 l 487 724 q 471 730 471 724 l 471 762 q 476 768 471 768 l 525 768 l 525 789 q 528 800 525 795 q 525 811 525 805 l 530 814 m 530 724 l 530 681 l 604 681 q 625 703 625 684 q 604 724 621 724 l 530 724 m 530 637 l 530 583 q 536 578 531 578 l 598 578 q 631 605 631 578 l 631 610 q 601 637 631 637 l 530 637 m 438 225 l 416 136 l 728 136 l 728 138 q 707 225 728 144 l 438 225 z "},".":{"ha":1063,"x_min":27,"x_max":1017,"o":"m 563 972 l 614 847 l 616 847 l 802 903 q 844 737 810 884 q 932 745 918 745 q 1017 630 1017 635 l 999 3 l 994 0 l 463 0 q 458 5 458 0 l 458 41 l 453 41 q 430 36 447 41 q 407 117 407 104 q 369 104 404 117 q 27 724 40 696 q 563 972 551 972 m 60 714 l 376 120 q 399 133 399 130 q 234 730 399 141 q 596 839 513 817 q 553 951 570 912 l 60 714 m 460 681 l 476 38 q 479 18 479 24 l 976 18 q 994 630 981 147 q 920 646 994 637 l 918 650 q 925 722 925 703 q 920 730 920 722 q 460 681 884 724 m 677 571 l 713 571 l 713 507 l 734 507 q 739 513 739 507 l 739 564 l 736 569 l 741 571 l 769 571 q 774 566 774 570 l 774 507 q 874 449 851 507 q 879 421 879 425 q 846 349 879 374 q 889 273 889 328 q 810 178 889 208 q 774 176 789 176 l 769 176 l 769 127 q 764 123 769 123 l 739 123 q 734 127 734 123 l 734 176 l 711 176 l 711 127 q 705 123 711 123 l 680 123 q 675 127 675 123 l 675 176 l 604 176 q 598 181 598 176 l 598 230 l 601 235 l 614 232 l 621 232 l 621 446 l 604 446 q 598 452 598 446 l 598 503 q 604 507 600 507 l 677 507 l 677 571 m 683 446 l 683 382 l 790 382 q 818 416 818 382 l 818 418 q 787 446 818 444 l 683 446 m 683 321 l 683 237 l 790 237 q 828 275 828 241 l 828 281 q 792 321 828 315 l 683 321 z "},"/":{"ha":1039,"x_min":27,"x_max":999,"o":"m 515 972 q 902 779 747 972 q 999 511 999 642 l 999 471 q 770 71 999 234 q 513 0 647 0 q 106 221 264 0 q 27 486 27 349 q 258 901 27 739 q 515 972 380 972 m 71 488 q 269 119 71 264 q 515 46 381 46 q 877 234 733 46 q 958 488 958 352 l 958 494 q 762 857 958 713 q 518 934 646 934 l 508 934 q 146 741 296 934 q 71 488 71 623 m 492 898 l 536 898 q 819 766 682 898 q 922 511 922 637 l 922 473 q 742 148 922 286 q 508 79 631 79 q 226 199 356 79 q 104 494 104 326 q 287 832 104 692 q 492 898 399 898 m 159 491 l 159 481 q 309 196 159 311 q 511 130 408 130 q 819 302 703 130 q 869 488 869 387 q 673 804 869 689 q 511 842 593 842 q 213 677 335 842 q 159 491 159 582 m 439 763 l 480 763 q 485 758 485 762 l 485 684 l 513 684 l 513 758 q 518 763 514 763 l 554 763 q 559 758 559 762 l 559 684 l 562 684 q 686 583 686 673 l 686 570 q 648 491 686 519 l 648 488 q 694 435 670 488 q 699 394 699 424 l 699 392 q 597 280 699 308 q 576 277 595 277 l 554 277 l 554 214 q 549 209 554 209 l 513 209 q 508 214 508 209 l 508 277 l 480 277 l 480 214 q 475 209 480 209 l 441 209 q 437 214 437 209 l 437 277 l 348 277 q 342 282 342 277 l 342 341 q 348 346 343 346 l 370 346 l 370 608 l 348 608 q 342 613 342 608 l 342 684 l 439 684 l 439 763 m 447 610 l 447 534 l 450 529 l 454 532 l 582 532 q 612 568 609 532 l 612 572 q 569 610 612 610 l 447 610 m 447 455 l 447 351 l 574 351 q 625 397 625 351 l 625 407 q 579 455 625 448 l 447 455 z "},":":{"ha":834,"x_min":41,"x_max":792,"o":"m 338 970 l 416 970 q 422 964 422 970 l 433 970 l 450 970 q 506 908 506 970 q 562 846 562 888 q 511 796 562 816 q 528 757 528 776 l 528 729 q 511 690 528 710 q 736 381 736 585 l 736 151 q 792 79 792 115 l 792 67 q 713 0 792 9 l 119 0 q 41 67 41 9 l 41 79 q 85 146 41 111 l 85 381 q 293 690 85 570 q 271 751 275 690 q 288 790 271 766 l 288 796 q 237 852 250 796 q 298 913 237 892 q 293 936 293 933 q 338 970 304 970 m 343 925 l 343 920 l 372 874 l 372 858 q 343 846 361 858 q 315 880 323 880 q 276 852 276 861 q 332 819 302 819 l 461 819 q 517 841 474 819 l 517 852 q 484 880 517 861 l 472 880 q 450 846 472 863 q 422 869 422 861 l 456 925 l 343 925 m 310 740 q 332 707 310 718 l 467 707 q 489 729 475 707 l 489 757 q 467 779 489 766 l 349 779 q 310 740 310 779 m 125 376 l 125 146 l 197 146 q 209 134 209 144 l 209 118 q 197 106 209 106 l 119 106 q 80 84 89 106 q 85 79 80 79 l 80 67 q 119 39 87 39 l 713 39 q 753 79 753 39 q 702 112 753 101 l 696 151 l 696 376 q 495 650 696 568 q 411 667 475 661 q 130 431 205 667 q 125 376 125 402 m 399 566 l 416 566 q 427 555 427 564 l 427 505 q 511 431 511 493 l 511 426 q 495 376 511 397 q 545 286 545 345 q 461 202 523 202 l 427 202 l 427 151 q 416 140 427 140 l 399 140 q 388 151 388 140 l 388 202 l 310 202 q 298 213 298 202 l 298 230 q 310 241 300 241 l 338 241 l 338 465 l 304 465 q 293 477 293 465 l 293 493 q 304 505 295 505 l 388 505 l 388 555 q 399 566 390 566 m 382 465 l 382 387 l 433 387 q 472 426 472 387 l 472 437 q 427 465 458 465 l 382 465 m 377 342 l 377 241 l 450 241 q 506 297 506 249 q 450 347 506 332 l 422 342 l 394 347 q 377 342 383 342 z "},";":{"ha":940,"x_min":27,"x_max":905,"o":"m 536 972 l 552 972 q 562 962 562 970 l 562 863 q 552 852 562 852 l 536 852 q 526 863 526 852 l 526 962 q 536 972 528 972 m 464 915 l 479 915 q 490 904 490 913 l 490 863 q 479 852 490 852 l 464 852 q 453 863 453 852 l 453 904 q 464 915 455 915 m 604 894 l 630 894 l 630 863 q 620 852 630 852 l 604 852 q 593 863 593 852 l 593 884 q 604 894 595 894 m 552 826 q 775 644 714 826 q 781 597 775 617 q 604 374 781 440 q 562 369 584 369 l 542 369 q 323 546 381 369 q 318 597 318 573 q 511 826 318 770 l 552 826 m 355 597 q 542 406 380 406 l 557 406 q 734 546 682 406 q 739 587 739 566 l 739 608 q 552 790 739 760 q 355 629 401 790 l 355 597 m 536 753 l 552 753 q 562 743 562 752 l 562 712 q 625 655 625 705 q 614 613 625 632 q 651 551 651 589 q 589 484 633 484 l 562 484 l 562 441 l 536 441 q 521 484 526 441 l 458 484 l 458 509 q 490 519 458 519 l 490 675 q 458 686 458 675 l 458 702 q 469 712 460 712 l 526 712 l 526 743 q 536 753 528 753 m 526 675 l 526 624 l 568 624 q 589 644 576 624 q 573 675 589 671 l 526 675 m 526 587 l 526 519 l 578 519 q 614 556 614 519 q 589 587 607 578 l 526 587 m 74 426 l 178 426 q 235 363 220 426 q 240 369 240 363 q 448 322 351 369 l 552 322 q 630 229 630 322 q 827 296 806 296 l 838 296 q 905 218 893 296 l 905 213 q 760 104 905 146 q 536 21 583 21 q 230 57 327 31 q 178 0 223 0 l 74 0 q 27 57 27 0 l 27 395 q 74 426 45 426 m 64 379 l 64 47 q 74 37 65 37 l 178 37 q 193 52 185 37 l 193 374 q 178 390 193 382 l 74 390 q 64 379 64 388 m 121 353 l 136 353 q 146 343 146 352 l 146 332 q 136 322 146 322 l 121 322 q 111 332 111 322 l 111 343 q 121 353 112 353 m 230 328 l 230 94 q 536 57 345 68 q 708 119 598 69 q 869 203 869 184 l 869 208 q 843 260 869 248 l 827 260 l 562 166 l 406 166 q 396 177 396 166 l 396 193 q 406 203 397 203 l 542 203 q 593 254 593 203 q 552 286 583 286 l 422 286 q 277 328 377 328 l 230 328 z "},";":{"ha":940,"x_min":27,"x_max":905,"o":"m 536 972 l 552 972 q 562 962 562 970 l 562 863 q 552 852 562 852 l 536 852 q 526 863 526 852 l 526 962 q 536 972 528 972 m 464 915 l 479 915 q 490 904 490 913 l 490 863 q 479 852 490 852 l 464 852 q 453 863 453 852 l 453 904 q 464 915 455 915 m 604 894 l 630 894 l 630 863 q 620 852 630 852 l 604 852 q 593 863 593 852 l 593 884 q 604 894 595 894 m 552 826 q 775 644 714 826 q 781 597 775 617 q 604 374 781 440 q 562 369 584 369 l 542 369 q 323 546 381 369 q 318 597 318 573 q 511 826 318 770 l 552 826 m 355 597 q 542 406 380 406 l 557 406 q 734 546 682 406 q 739 587 739 566 l 739 608 q 552 790 739 760 q 355 629 401 790 l 355 597 m 536 753 l 552 753 q 562 743 562 752 l 562 712 q 625 655 625 705 q 614 613 625 632 q 651 551 651 589 q 589 484 633 484 l 562 484 l 562 441 l 536 441 q 521 484 526 441 l 458 484 l 458 509 q 490 519 458 519 l 490 675 q 458 686 458 675 l 458 702 q 469 712 460 712 l 526 712 l 526 743 q 536 753 528 753 m 526 675 l 526 624 l 568 624 q 589 644 576 624 q 573 675 589 671 l 526 675 m 526 587 l 526 519 l 578 519 q 614 556 614 519 q 589 587 607 578 l 526 587 m 74 426 l 178 426 q 235 363 220 426 q 240 369 240 363 q 448 322 351 369 l 552 322 q 630 229 630 322 q 827 296 806 296 l 838 296 q 905 218 893 296 l 905 213 q 760 104 905 146 q 536 21 583 21 q 230 57 327 31 q 178 0 223 0 l 74 0 q 27 57 27 0 l 27 395 q 74 426 45 426 m 64 379 l 64 47 q 74 37 65 37 l 178 37 q 193 52 185 37 l 193 374 q 178 390 193 382 l 74 390 q 64 379 64 388 m 121 353 l 136 353 q 146 343 146 352 l 146 332 q 136 322 146 322 l 121 322 q 111 332 111 322 l 111 343 q 121 353 112 353 m 230 328 l 230 94 q 536 57 345 68 q 708 119 598 69 q 869 203 869 184 l 869 208 q 843 260 869 248 l 827 260 l 562 166 l 406 166 q 396 177 396 166 l 396 193 q 406 203 397 203 l 542 203 q 593 254 593 203 q 552 286 583 286 l 422 286 q 277 328 377 328 l 230 328 z "},"<":{"ha":1229,"x_min":34,"x_max":1179,"o":"m 728 970 q 992 755 921 970 q 1043 699 992 699 q 1179 485 1179 631 q 1009 282 1179 339 l 998 282 l 998 209 q 987 197 998 197 l 970 197 q 958 209 958 197 l 958 276 l 902 276 l 902 209 q 891 197 902 197 l 863 197 l 863 276 l 812 276 l 789 259 q 795 254 789 254 l 789 226 q 846 141 789 201 l 891 85 l 891 62 q 823 0 891 11 q 762 68 779 0 q 806 124 781 124 l 806 130 q 745 220 760 170 q 705 203 716 203 l 705 124 q 745 62 737 124 q 677 0 745 14 q 614 73 628 0 q 665 136 614 98 l 665 186 l 660 186 q 614 180 637 186 q 570 186 593 186 l 558 186 l 558 130 q 597 68 597 99 q 530 0 585 0 q 468 68 482 0 q 519 136 468 103 l 519 203 q 473 226 505 203 l 468 226 q 412 130 468 168 l 412 124 q 451 62 451 109 q 383 0 451 16 q 321 79 330 0 q 372 136 326 104 q 429 220 429 201 l 429 265 q 417 276 429 276 l 372 276 l 372 209 q 361 197 372 197 l 344 197 q 333 209 333 197 l 333 276 l 288 276 l 288 209 q 277 197 288 197 l 260 197 q 248 209 248 197 l 248 276 l 203 276 q 34 429 89 276 l 34 485 q 203 648 34 602 q 389 846 203 793 l 423 846 q 496 834 446 846 q 614 947 522 895 q 728 970 692 970 m 530 812 q 604 728 604 767 q 575 716 593 728 q 406 806 515 806 q 243 643 243 773 q 163 597 243 597 q 73 479 73 548 l 73 463 q 203 316 73 345 l 389 316 q 361 434 367 381 q 604 682 406 682 l 626 682 q 857 490 793 682 q 863 446 863 469 l 863 429 q 835 316 863 363 l 958 316 q 1139 496 1139 336 q 1009 665 1139 615 l 998 665 q 947 547 974 547 l 925 570 q 958 688 958 633 l 958 694 q 778 924 958 863 l 722 930 q 530 818 610 930 l 530 812 m 406 446 l 406 406 q 575 226 406 285 l 626 226 q 823 429 790 226 l 823 439 q 648 643 823 589 l 609 643 q 406 446 406 610 m 604 604 l 621 604 q 631 592 631 602 l 631 558 q 699 485 691 558 q 688 451 699 469 q 728 383 728 422 q 654 304 713 304 l 631 304 l 631 271 q 621 259 631 259 l 604 259 q 592 271 592 259 l 592 304 l 530 304 q 519 316 519 304 l 519 333 q 553 344 519 344 l 553 400 q 547 423 553 413 q 553 446 553 433 q 547 456 553 456 l 553 485 l 553 519 q 519 530 519 519 l 519 547 q 530 558 521 558 l 592 558 l 592 592 q 604 604 594 604 m 592 519 l 592 463 l 626 463 q 660 496 660 463 q 637 519 660 505 l 592 519 m 592 423 l 592 344 l 631 344 q 688 383 688 344 q 631 423 688 423 l 592 423 m 361 56 q 383 39 383 45 q 412 68 412 49 q 395 90 404 90 l 378 90 q 361 56 361 85 m 507 68 q 530 39 508 60 q 558 68 558 49 q 541 90 550 90 q 507 68 513 90 m 654 68 q 677 39 654 60 q 705 73 705 43 q 688 90 705 81 q 654 68 660 90 m 806 73 l 806 56 q 829 39 806 48 q 852 73 852 45 q 835 90 852 81 l 823 90 q 806 73 815 90 z "},"=":{"ha":1048,"x_min":41,"x_max":1008,"o":"m 553 968 q 997 604 868 968 q 1008 512 1008 559 l 1008 467 q 656 23 1008 157 q 542 0 569 12 q 52 399 176 0 q 41 490 52 427 q 462 968 41 855 l 553 968 m 109 490 q 507 80 184 80 l 542 80 q 940 421 839 80 l 940 501 q 542 899 876 899 l 485 899 q 121 569 238 899 q 109 490 121 504 m 530 842 q 883 490 883 794 q 530 136 835 136 l 519 136 q 177 478 177 183 l 177 501 q 530 842 177 799 m 462 718 q 393 661 462 661 l 359 661 l 405 615 l 405 364 l 359 319 q 462 285 462 319 l 462 262 l 507 262 q 530 319 507 319 q 542 262 542 300 l 599 262 q 678 353 599 324 q 701 410 701 353 q 610 512 701 458 q 678 569 657 528 l 678 615 q 599 718 599 669 l 542 718 l 542 672 l 507 672 l 507 718 l 462 718 m 530 649 q 587 604 582 627 l 587 558 q 542 512 587 540 l 519 512 q 496 535 496 512 l 496 626 q 530 649 496 649 m 519 490 q 599 444 580 490 l 599 376 q 564 342 599 359 l 519 342 q 496 364 496 342 l 496 467 q 519 490 500 490 z "},">":{"ha":1055,"x_min":34,"x_max":1006,"o":"m 499 972 l 551 972 q 927 752 758 972 q 1006 486 1006 617 q 703 37 1006 192 q 515 0 595 0 q 81 272 241 0 q 34 465 34 379 l 34 522 q 264 904 34 736 q 499 972 387 972 m 102 496 l 102 481 q 378 94 102 221 q 504 73 440 73 l 546 73 q 901 319 762 73 q 932 475 932 406 l 932 512 q 703 862 932 723 q 525 904 610 904 l 509 904 q 123 622 246 904 q 102 496 102 561 m 525 852 q 833 663 714 852 q 880 486 880 585 l 880 475 q 656 151 880 266 q 530 125 585 125 l 515 125 q 159 413 258 125 l 154 496 q 378 825 154 702 q 525 852 466 852 m 467 773 l 467 721 q 452 711 467 711 q 353 705 369 705 l 353 669 q 384 659 384 669 l 384 340 q 353 329 384 329 l 353 303 q 368 292 353 292 q 467 277 467 292 l 467 230 l 499 230 l 499 272 q 509 282 500 282 l 530 282 q 541 272 541 281 l 541 230 l 572 230 l 572 277 q 666 313 572 284 q 713 392 707 349 l 713 423 q 650 517 713 483 q 692 591 692 548 l 692 616 q 572 715 692 681 l 572 773 l 541 773 l 541 715 l 504 711 l 499 721 l 499 773 l 467 773 m 504 643 l 509 643 q 604 595 604 643 l 604 574 q 541 543 585 543 l 484 543 q 473 554 473 543 l 473 627 q 504 643 478 643 m 484 475 l 520 475 q 625 413 625 475 q 536 361 625 361 l 484 361 q 473 371 473 361 l 473 465 q 484 475 475 475 z "},"?":{"ha":1333,"x_min":34,"x_max":1290,"o":"m 466 974 q 869 663 751 974 q 887 547 887 590 l 881 547 l 887 536 q 812 334 857 334 q 795 317 812 326 l 789 317 q 760 340 785 317 q 823 553 823 437 q 547 905 823 800 l 489 911 l 437 911 q 97 623 201 911 q 92 542 97 614 q 224 265 92 394 q 184 231 224 254 l 172 231 q 34 536 34 363 l 34 576 q 241 916 34 773 q 466 974 336 974 m 443 865 l 484 865 q 743 686 642 865 q 777 547 777 621 q 720 374 777 444 l 714 374 q 627 450 627 444 l 627 501 q 576 576 627 536 l 576 582 q 610 634 610 595 l 610 657 q 512 743 610 720 l 507 755 l 507 795 l 477 795 l 477 755 q 466 743 477 743 l 449 743 q 437 755 437 743 q 443 761 437 761 l 437 772 q 443 778 437 778 q 437 795 437 789 l 414 795 l 414 755 q 311 738 414 738 l 311 709 q 339 697 339 709 l 339 420 q 311 409 339 409 l 311 380 q 385 363 385 376 q 264 294 278 294 q 138 553 138 401 q 380 859 138 763 q 443 865 419 865 m 431 680 l 489 680 q 535 651 520 680 l 535 646 q 443 593 535 593 l 431 593 q 420 605 420 593 l 420 669 q 431 680 422 680 m 1284 657 q 1290 651 1284 651 l 1215 357 l 1204 357 q 1181 461 1181 448 l 1175 461 l 800 115 l 576 294 q 120 5 534 284 l 92 0 q 34 69 92 3 q 570 432 66 104 l 576 432 q 795 254 625 383 q 1100 536 858 306 l 1100 542 q 991 565 1076 542 l 991 576 q 1284 657 1014 576 m 431 536 l 484 536 q 547 490 547 536 l 547 478 q 460 432 505 432 l 431 432 q 420 444 420 432 l 420 524 q 431 536 422 536 m 610 213 l 650 173 q 449 121 584 121 l 431 121 l 403 127 l 403 132 q 570 201 444 180 l 610 213 z "},"@":{"ha":737,"x_min":34,"x_max":692,"o":"m 204 972 q 395 929 227 972 l 411 929 q 565 961 469 929 q 570 956 565 956 q 517 733 527 733 l 214 733 q 135 951 199 733 q 204 972 175 972 m 199 690 l 528 690 q 692 372 692 573 q 437 11 692 104 q 363 0 380 0 q 45 266 144 0 q 34 382 34 326 q 199 690 34 570 m 326 606 l 326 563 q 241 547 326 547 l 231 547 l 231 515 q 257 505 257 515 l 257 234 q 231 223 257 223 l 231 191 l 241 191 q 326 175 326 191 l 326 138 l 353 138 l 353 175 q 363 186 354 186 l 379 186 q 390 175 390 184 l 390 138 l 416 138 l 416 175 q 496 207 419 188 q 538 287 538 240 l 538 302 q 486 388 538 353 l 486 393 q 522 446 512 393 l 522 456 q 416 552 522 532 l 416 606 l 390 606 l 390 563 q 379 552 390 552 l 363 552 q 353 563 353 552 l 353 606 l 326 606 m 342 488 l 406 488 q 448 446 448 488 q 336 404 448 404 l 332 414 l 332 478 q 342 488 333 488 m 342 345 l 411 345 q 458 319 458 334 l 458 292 q 385 250 458 250 l 342 250 q 332 260 332 250 l 332 334 q 342 345 333 345 z "},"A":{"ha":805,"x_min":34,"x_max":766,"o":"m 281 970 l 347 970 q 378 862 368 970 l 433 862 l 433 948 q 454 970 436 970 l 530 970 q 551 948 551 966 l 551 851 q 724 722 724 832 l 724 668 q 541 528 724 568 l 541 517 q 766 345 766 470 l 766 291 q 551 130 766 159 l 551 22 q 530 0 551 0 l 454 0 q 433 22 433 0 l 433 119 l 368 119 l 368 22 q 347 0 368 0 l 281 0 q 260 22 260 0 l 260 119 l 56 119 q 34 140 34 119 q 142 194 37 164 l 142 787 q 34 840 34 814 q 56 862 37 862 l 260 862 l 260 948 q 281 970 264 970 m 336 808 l 336 538 l 368 538 q 519 679 519 538 l 519 701 q 411 808 505 808 l 336 808 m 336 485 l 336 216 q 411 172 353 172 l 433 172 q 562 323 536 172 q 400 485 545 485 l 336 485 z "},"B":{"ha":1050,"x_min":34,"x_max":1008,"o":"m 526 974 q 939 733 773 974 q 1008 481 1008 627 l 1008 470 q 629 12 1008 132 q 526 0 587 0 l 504 0 q 34 424 152 0 l 34 481 q 423 962 34 832 l 526 974 m 435 802 l 435 745 q 412 722 435 722 l 286 722 l 286 699 q 355 665 355 692 l 355 298 q 286 275 355 275 l 286 264 q 309 241 290 241 l 412 241 q 435 172 435 241 l 504 172 l 504 241 l 526 241 q 549 172 549 241 l 618 172 l 618 229 q 755 355 755 300 l 755 378 q 618 492 755 481 l 618 515 q 733 618 733 531 q 629 722 715 722 q 595 802 614 802 l 549 802 l 549 745 q 526 722 549 722 q 504 745 504 722 l 504 802 l 435 802 m 481 699 l 515 699 q 607 607 607 694 q 504 515 607 534 q 481 538 481 515 l 481 699 m 504 481 l 526 481 q 629 378 629 467 q 561 275 629 315 l 515 275 q 481 309 498 275 l 481 458 q 504 481 484 481 z "},"C":{"ha":1674,"x_min":20,"x_max":1636,"o":"m 794 970 q 1186 739 1035 970 q 1429 543 1429 712 q 1636 312 1636 476 l 1636 243 q 1383 0 1636 50 l 355 0 q 20 347 64 0 q 332 658 82 658 q 794 970 488 970 m 378 554 l 401 566 l 459 566 l 459 543 q 309 462 389 543 l 309 485 q 355 543 332 538 q 344 600 344 562 q 90 323 130 600 q 344 69 132 69 l 401 69 l 1383 69 q 1579 277 1548 69 q 1371 485 1546 485 l 1267 485 q 1360 531 1267 511 l 1360 543 q 1233 669 1360 637 l 1209 669 q 1186 635 1186 669 l 1163 635 q 771 901 1059 901 q 378 577 494 901 l 378 554 m 783 704 q 806 646 806 704 l 852 646 q 875 704 852 704 l 886 704 q 932 646 916 646 q 1025 531 1025 599 q 967 450 1006 450 l 967 439 q 1048 347 1048 407 q 909 208 1018 208 q 886 161 909 161 l 875 161 q 852 219 852 161 l 806 219 q 783 161 806 161 q 760 219 760 161 l 644 219 q 621 243 621 219 l 621 277 q 690 312 621 293 q 701 358 701 332 l 701 531 q 621 589 701 545 l 621 623 q 644 646 625 646 l 760 646 q 783 704 760 704 m 794 566 l 794 473 l 852 473 q 921 519 909 473 q 852 566 909 566 l 794 566 m 794 393 l 794 300 l 875 300 q 944 370 944 300 l 909 393 l 794 393 z "},"D":{"ha":1029,"x_min":34,"x_max":1006,"o":"m 446 972 q 495 956 473 956 q 511 972 498 972 l 528 972 q 561 956 548 956 q 602 972 588 972 q 627 947 602 960 l 635 947 l 676 956 l 709 914 l 726 922 l 742 922 q 825 873 773 879 q 882 807 825 846 q 932 749 882 784 q 924 725 924 734 q 964 692 964 703 l 964 675 q 956 667 964 667 q 989 618 956 659 q 981 585 989 599 q 1006 535 1006 547 q 989 494 989 509 q 1006 477 1006 492 l 1006 453 l 989 428 l 998 379 q 972 346 977 379 l 981 304 q 940 231 950 304 q 899 173 903 231 q 833 115 872 171 q 775 66 805 115 q 709 33 730 66 l 693 33 q 684 41 684 33 q 635 8 677 41 l 586 16 q 561 0 586 0 l 520 8 q 462 0 487 0 q 437 16 462 16 l 396 8 l 372 41 l 330 33 q 248 74 308 68 q 182 132 248 109 q 133 173 182 173 l 133 222 q 83 296 87 222 q 58 313 58 296 l 67 362 q 42 395 46 362 l 50 437 q 34 453 34 437 l 34 461 q 50 503 36 503 q 34 552 34 530 q 58 585 46 552 q 50 618 50 599 q 83 708 75 642 q 116 733 116 708 q 108 758 108 749 q 165 832 165 778 q 231 881 206 832 q 298 922 270 881 l 314 922 q 322 914 322 922 l 372 956 q 396 939 396 947 q 446 972 404 939 m 462 741 q 446 692 462 692 l 330 692 l 330 618 l 355 618 q 404 593 404 612 l 404 370 q 388 354 404 354 l 330 354 l 330 272 l 446 272 q 462 222 462 272 l 503 222 l 511 272 l 545 272 q 561 222 561 272 l 602 222 q 684 288 602 288 q 742 387 736 337 q 668 494 742 444 q 718 585 718 533 q 602 692 718 667 l 602 741 l 561 741 q 545 692 561 692 l 511 692 q 511 733 511 725 l 495 741 l 462 741 m 520 618 q 618 585 618 614 l 618 552 q 520 519 618 519 l 511 519 q 495 535 495 519 l 495 602 q 520 618 495 618 m 511 453 l 536 453 q 644 420 644 447 l 644 387 q 610 354 644 374 l 511 354 q 495 370 495 354 l 495 437 q 511 453 498 453 z "},"E":{"ha":724,"x_min":34,"x_max":689,"o":"m 257 970 l 296 970 q 309 957 309 968 l 309 871 l 368 871 l 368 957 q 381 970 370 970 l 420 970 q 433 957 433 968 l 433 871 q 551 832 499 863 q 656 655 656 764 q 571 511 656 576 q 689 354 689 470 l 689 321 q 433 98 689 138 l 433 13 q 420 0 433 0 l 381 0 q 368 13 368 0 l 368 98 l 309 98 l 309 13 q 296 0 309 0 l 257 0 q 243 13 243 0 l 243 98 q 34 131 34 113 l 34 177 q 47 190 36 190 l 93 190 l 93 780 l 47 780 q 34 793 34 780 l 34 839 q 243 865 34 856 l 243 957 q 257 970 245 970 m 263 728 l 263 564 l 322 564 q 486 642 486 564 l 486 655 q 355 728 486 728 l 263 728 m 263 433 l 263 243 l 381 243 q 512 301 477 243 l 512 374 q 388 433 483 433 l 263 433 z "},"F":{"ha":732,"x_min":54,"x_max":690,"o":"m 207 974 l 273 974 q 278 969 278 973 l 278 861 l 353 861 l 353 969 q 357 974 354 974 l 424 974 q 429 969 429 973 l 429 861 l 446 861 q 639 728 578 861 q 652 662 652 695 l 652 648 q 585 503 652 568 l 583 503 l 583 498 q 690 319 690 435 l 690 314 q 561 128 690 192 q 484 113 526 113 l 429 113 l 429 5 q 424 0 429 0 l 357 0 q 353 5 353 0 l 353 113 l 278 113 l 278 5 q 273 0 278 0 l 207 0 q 203 5 203 0 l 203 113 l 59 113 q 54 117 54 113 l 54 857 q 59 861 55 861 l 203 861 l 203 969 q 207 974 203 974 m 130 786 l 130 524 l 441 524 q 574 629 543 524 q 576 655 576 644 q 477 781 576 749 q 435 786 459 786 l 130 786 m 130 450 l 130 188 l 473 188 q 608 279 575 188 q 614 323 614 300 q 534 438 614 399 q 479 450 514 450 l 130 450 z "},"G":{"ha":1046,"x_min":41,"x_max":1010,"o":"m 44 970 l 1007 970 q 1010 966 1010 969 l 1010 3 q 1007 0 1010 0 l 44 0 q 41 3 41 0 l 41 966 q 44 970 41 970 m 406 878 l 406 790 q 401 787 406 787 l 283 787 l 283 183 l 401 183 q 406 180 406 182 l 406 92 l 465 92 l 465 180 q 468 183 465 183 l 522 183 q 526 180 526 182 l 526 92 l 587 92 l 587 180 q 590 183 587 183 l 644 183 q 775 264 718 183 q 799 347 799 309 q 712 496 799 438 q 768 621 768 551 q 675 770 768 717 q 614 787 640 787 l 590 787 q 587 790 587 787 l 587 878 l 526 878 l 526 790 q 522 787 526 787 l 468 787 q 465 790 465 787 l 465 878 l 406 878 m 348 728 l 608 728 q 700 661 667 728 q 707 631 707 646 l 707 612 q 633 519 707 553 q 606 515 616 515 l 348 515 q 345 519 345 515 l 345 724 q 348 728 345 728 m 348 454 l 637 454 q 734 377 705 454 q 737 354 737 369 l 737 343 q 662 246 737 277 q 635 243 645 243 l 348 243 q 345 246 345 243 l 345 451 q 348 454 345 454 z "},"H":{"ha":1035,"x_min":34,"x_max":1006,"o":"m 513 972 l 527 972 q 901 787 744 972 q 1006 493 1006 650 l 1006 479 q 821 104 1006 262 q 527 0 684 0 l 513 0 q 138 185 296 0 q 34 479 34 321 l 34 493 q 221 869 34 711 q 513 972 357 972 m 115 486 q 296 148 115 283 q 520 81 407 81 q 840 239 708 81 q 925 488 925 354 q 743 824 925 688 q 520 891 633 891 q 187 716 321 891 q 115 486 115 606 m 442 770 l 477 770 q 480 766 480 770 l 480 689 l 520 689 l 520 766 q 524 770 520 770 l 557 770 q 562 766 562 770 l 562 689 q 667 625 629 689 q 682 572 682 598 l 682 562 q 665 507 682 534 q 723 403 723 469 q 637 288 723 326 q 593 283 614 283 l 562 283 l 562 205 q 557 201 562 201 l 524 201 q 520 205 520 201 l 520 283 l 480 283 l 480 205 q 477 201 480 201 l 442 201 q 439 205 439 201 l 439 283 l 361 283 q 358 286 358 283 l 358 686 q 361 689 358 689 l 439 689 l 439 766 q 442 770 439 770 m 439 606 l 439 528 l 563 528 q 601 567 593 528 q 563 606 593 606 l 439 606 m 439 444 l 439 366 l 604 366 q 640 401 640 373 l 640 408 q 604 444 633 444 l 439 444 z "},"I":{"ha":704,"x_min":32,"x_max":660,"o":"m 178 972 l 236 972 q 243 966 243 970 l 243 832 l 311 832 l 311 966 q 317 972 311 972 l 376 972 q 382 966 382 970 l 382 832 q 564 721 497 832 q 589 631 589 675 l 589 613 q 561 520 589 566 q 660 340 660 453 q 511 142 660 208 q 437 134 473 134 l 382 134 l 382 0 q 376 -6 382 -6 l 317 -6 q 311 0 311 -6 l 311 134 l 243 134 l 243 0 q 236 -6 243 -6 l 178 -6 q 172 0 172 -6 l 172 134 l 39 134 q 32 140 32 134 l 32 826 q 39 832 33 832 l 172 832 l 172 966 q 178 972 172 972 m 172 690 l 172 554 l 385 554 q 450 622 437 554 q 385 690 437 690 l 172 690 m 172 412 l 172 275 l 456 275 q 517 338 517 289 l 517 350 q 456 412 505 412 l 172 412 z "},"J":{"ha":1050,"x_min":34,"x_max":1004,"o":"m 515 970 l 524 970 q 871 819 720 970 q 1004 500 1004 670 l 1004 472 q 876 155 1004 304 q 519 0 723 0 q 170 149 320 0 q 34 485 34 297 q 191 842 34 689 q 515 970 335 970 m 411 786 l 411 699 q 408 696 411 696 l 305 696 l 305 640 l 338 640 q 373 608 373 640 l 373 368 q 359 353 371 353 l 316 353 q 303 287 312 353 l 382 287 q 411 282 411 287 l 411 197 l 470 197 l 470 281 q 473 283 470 283 l 509 283 q 513 281 513 283 l 513 197 l 565 197 l 565 282 q 618 290 565 286 q 701 330 676 304 q 728 408 728 366 l 728 427 q 668 505 728 483 q 652 510 659 510 l 652 512 q 696 583 696 540 l 696 599 q 625 684 696 660 q 566 696 603 691 l 565 699 l 565 786 l 513 786 l 513 701 q 509 697 513 697 l 473 697 q 470 701 470 697 l 470 786 l 411 786 m 470 634 l 506 634 q 591 599 576 634 q 595 585 595 589 l 595 577 q 543 528 595 539 q 508 524 519 524 l 470 524 l 470 634 m 470 471 l 505 471 q 617 429 601 471 q 621 415 621 419 l 621 404 q 553 353 621 366 q 475 349 530 349 l 470 349 l 470 471 z "},"K":{"ha":1071,"x_min":41,"x_max":1017,"o":"m 43 977 l 1015 977 q 1017 974 1017 976 l 1017 3 q 1015 0 1017 0 l 43 0 q 41 3 41 0 l 41 974 q 43 977 41 977 m 118 483 q 285 151 118 283 q 522 69 399 69 l 544 69 q 833 197 700 69 q 947 484 947 323 q 807 793 947 662 q 532 898 683 898 q 209 743 345 898 q 118 483 118 625 m 441 742 l 487 742 q 490 739 490 741 l 490 665 q 519 666 510 666 l 526 666 l 526 742 l 570 742 q 572 739 572 741 l 572 663 q 677 612 658 656 q 685 571 685 595 q 646 507 685 527 q 673 496 646 505 q 712 423 712 473 q 650 326 712 350 q 576 312 614 312 l 572 312 l 572 237 q 570 235 572 235 l 526 235 l 526 308 q 524 311 526 311 l 490 311 l 490 237 q 487 235 490 235 l 441 235 q 438 237 438 235 l 438 312 q 384 313 404 313 l 349 313 l 346 315 q 358 370 354 370 l 391 370 q 406 381 406 370 l 406 594 q 384 614 406 612 l 350 614 q 347 617 347 614 l 347 661 q 350 663 348 663 l 438 663 l 438 739 q 441 742 439 742 m 490 610 l 490 517 l 506 517 q 597 564 597 517 q 510 610 597 610 l 490 610 m 490 469 l 490 368 l 524 368 q 618 419 618 368 q 518 471 618 471 q 490 469 500 469 z "},"L":{"ha":1061,"x_min":34,"x_max":1004,"o":"m 519 970 q 979 642 833 970 q 1004 475 1004 550 q 715 41 1004 202 q 519 0 608 0 q 59 323 206 0 q 34 475 34 414 l 34 490 q 327 929 34 782 q 519 970 415 970 m 100 490 l 100 480 q 387 86 100 210 q 524 66 462 66 q 913 343 784 66 q 938 490 938 428 q 650 884 938 757 q 509 904 578 904 q 120 621 249 904 q 100 490 100 545 m 433 808 l 478 808 q 488 798 488 806 l 488 712 l 549 712 l 549 798 q 559 808 551 808 l 605 808 q 615 798 615 806 l 615 712 l 630 712 q 736 591 720 712 q 690 500 736 551 q 771 384 771 462 q 655 258 748 258 l 615 258 l 615 172 q 605 161 615 161 l 559 161 q 549 172 549 161 l 549 258 l 488 258 l 488 172 q 478 161 488 161 l 433 161 q 422 172 422 161 l 422 258 l 302 258 q 292 268 292 258 l 292 313 q 302 323 293 323 l 347 323 q 362 338 354 323 l 362 631 q 347 646 362 639 l 302 646 q 292 656 292 646 l 292 702 q 302 712 293 712 l 422 712 l 422 798 q 433 808 425 808 m 488 646 l 488 530 l 539 530 q 600 581 600 535 l 600 601 q 554 646 593 646 l 488 646 m 488 465 l 488 323 l 559 323 q 615 384 601 323 l 615 394 q 539 465 615 465 l 488 465 z "},"M":{"ha":1071,"x_min":41,"x_max":1009,"o":"m 525 968 q 984 646 834 968 q 1009 494 1009 554 l 1009 479 q 691 25 1009 176 q 540 0 597 0 l 520 0 q 71 318 214 0 q 41 489 41 402 q 313 918 41 762 q 525 968 424 968 m 106 484 q 394 85 106 208 q 520 66 463 66 l 530 66 q 924 353 804 66 q 943 479 943 418 q 616 892 943 785 l 525 903 q 126 610 250 903 q 106 484 106 531 m 434 817 l 454 817 q 465 807 465 816 l 465 747 l 505 747 l 505 807 q 515 817 507 817 l 535 817 q 545 807 545 816 l 545 747 l 636 747 q 782 606 782 726 q 717 489 782 531 l 717 484 q 782 363 782 422 q 621 217 782 233 l 545 217 l 545 157 q 535 146 545 146 l 515 146 q 505 157 505 146 l 505 217 l 465 217 l 465 157 q 454 146 465 146 l 434 146 q 424 157 424 146 l 424 217 l 343 217 q 333 227 333 217 l 333 736 q 343 747 335 747 l 424 747 l 424 807 q 434 817 426 817 m 378 706 l 378 505 l 424 505 l 424 696 q 414 706 424 706 l 378 706 m 465 706 l 465 505 l 505 505 l 505 706 l 465 706 m 545 706 l 545 505 l 641 505 q 736 600 736 519 l 736 610 q 626 706 736 692 l 545 706 m 378 464 l 378 262 l 424 262 l 424 454 q 414 464 424 464 l 378 464 m 465 464 l 465 262 l 505 262 l 505 454 q 494 464 505 464 l 465 464 m 545 454 l 545 262 l 641 262 q 736 358 736 277 l 736 368 q 595 464 736 464 l 555 464 q 545 454 545 463 z "},"N":{"ha":1054,"x_min":41,"x_max":1014,"o":"m 528 973 q 973 674 825 973 q 1014 481 1014 582 q 725 41 1014 198 q 532 0 626 0 l 512 0 q 71 309 224 0 q 41 481 41 397 l 41 492 q 294 912 41 757 q 528 973 411 973 m 502 795 q 416 517 433 526 q 340 461 340 504 q 330 426 340 452 l 334 426 l 401 446 l 401 441 q 350 248 401 431 l 715 248 q 735 330 735 317 l 467 330 l 456 334 q 512 487 494 487 q 588 563 588 498 l 588 578 q 528 557 579 578 q 522 563 528 563 q 588 795 522 572 l 502 795 z "},"O":{"ha":787,"x_min":34,"x_max":736,"o":"m 217 973 l 301 973 q 304 970 304 972 l 304 831 l 306 829 q 356 830 339 830 l 376 830 l 376 970 q 379 973 376 973 l 463 973 q 466 970 466 972 l 466 829 q 530 818 466 825 q 656 751 626 794 q 685 650 685 711 q 609 522 685 568 q 736 373 736 490 l 736 357 q 620 177 736 224 q 468 149 547 149 l 466 146 l 466 3 q 463 0 466 0 l 379 0 q 376 3 376 0 l 376 146 l 304 146 l 304 3 q 301 0 304 0 l 217 0 q 214 3 214 0 l 214 149 l 37 149 q 34 153 34 149 q 53 256 46 234 l 105 256 q 151 291 151 256 l 151 686 q 102 729 151 724 l 37 729 q 34 732 34 729 l 34 824 q 37 827 35 827 q 160 825 134 825 q 214 827 168 825 l 214 970 q 217 973 215 973 m 307 723 l 307 544 l 318 544 q 485 574 456 544 q 516 636 516 595 q 452 712 516 690 q 356 724 409 724 q 307 723 336 723 m 307 454 l 307 256 l 362 256 q 547 314 509 256 q 556 344 556 336 l 556 363 q 492 437 556 410 q 357 454 454 454 l 307 454 z "},"P":{"ha":760,"x_min":41,"x_max":717,"o":"m 244 970 l 313 970 q 319 964 319 969 l 319 841 l 376 841 l 376 964 q 382 970 377 970 l 451 970 q 456 964 456 969 l 456 838 l 466 838 q 678 703 639 838 q 682 661 682 678 l 682 652 q 589 506 682 542 l 583 506 l 583 503 q 717 323 717 461 q 456 117 717 117 l 456 6 q 451 0 456 0 l 382 0 q 376 6 376 0 l 376 117 l 319 117 l 319 6 q 313 0 319 0 l 244 0 q 238 6 238 0 l 238 117 l 47 117 q 41 123 41 117 l 41 248 q 47 254 41 254 l 100 254 l 100 707 l 47 707 q 41 712 41 707 l 41 835 q 47 841 41 841 l 238 841 l 238 964 q 244 970 239 970 m 316 703 l 316 551 l 331 551 q 340 548 340 551 l 355 551 l 394 551 q 448 623 448 551 l 448 631 q 376 703 448 703 l 316 703 m 316 431 l 316 254 l 391 254 q 403 252 397 254 q 481 329 481 270 l 481 341 q 397 431 481 431 l 316 431 z "},"Q":{"ha":1095,"x_min":41,"x_max":1047,"o":"m 555 977 q 854 805 740 977 q 905 625 905 716 q 698 304 905 418 q 553 275 626 275 l 547 275 q 363 332 452 275 q 197 269 253 287 l 197 272 q 257 438 252 418 q 203 610 203 528 l 203 640 q 378 929 203 814 q 555 977 460 977 m 331 625 q 514 399 331 444 q 553 397 528 399 q 760 471 681 397 l 760 473 q 692 551 695 551 l 689 551 q 579 512 646 512 q 496 571 513 512 q 494 580 496 574 l 499 583 l 760 583 q 768 648 768 623 q 653 831 768 782 q 555 849 605 849 q 340 701 398 849 q 331 625 331 650 m 562 737 q 624 672 624 737 q 618 666 624 666 l 503 666 q 496 675 496 666 q 559 737 512 737 l 562 737 m 568 245 l 633 245 q 638 239 638 245 l 638 50 q 656 44 656 50 l 656 12 q 650 6 656 6 l 568 6 q 562 12 562 6 l 562 44 q 576 50 562 50 l 576 201 q 562 207 562 201 l 562 239 q 568 245 562 245 m 674 245 l 736 245 q 742 239 742 245 l 742 50 q 760 44 760 50 l 760 12 q 754 6 760 6 l 671 6 q 665 12 665 6 l 665 30 q 677 50 665 50 l 680 50 l 680 201 q 668 207 668 201 l 668 239 q 674 245 669 245 m 47 228 l 141 228 q 147 222 147 227 l 147 193 q 130 186 147 186 q 147 83 147 88 l 150 83 q 186 228 173 228 l 239 228 q 275 83 252 228 l 277 83 q 295 186 277 106 q 277 193 277 186 l 277 222 q 283 228 278 228 l 363 228 q 369 222 369 227 l 369 193 q 351 184 369 189 q 301 6 309 14 l 233 6 q 203 115 226 6 l 201 115 q 171 6 181 6 l 106 6 q 62 186 98 6 l 47 186 q 41 193 41 186 l 41 222 q 47 228 41 228 m 1015 210 l 1015 165 l 1041 165 q 1047 160 1047 165 l 1047 127 q 1041 121 1047 121 l 1015 121 l 1015 59 q 1023 41 1015 48 q 1044 47 1038 47 l 1047 41 l 1047 12 q 1002 0 1047 2 q 955 68 955 0 l 955 92 l 958 98 q 955 124 955 100 l 949 121 l 943 121 q 937 127 937 121 l 937 160 q 955 165 937 165 l 955 189 q 1015 210 955 197 m 449 174 q 532 115 520 174 l 532 47 l 547 47 q 553 41 553 46 l 553 12 q 547 6 553 6 l 488 6 q 479 18 480 6 l 475 18 q 429 0 455 0 q 369 56 369 8 q 437 113 369 104 q 464 104 451 113 l 467 104 l 467 115 q 455 127 467 120 l 429 127 q 390 115 417 127 q 378 151 378 144 q 449 174 414 174 m 840 169 l 861 169 q 931 92 923 169 q 922 68 930 68 l 843 68 q 840 71 840 68 q 828 68 835 68 q 861 44 828 47 q 899 56 881 44 l 905 56 q 928 30 911 55 q 848 0 904 0 q 766 83 766 11 l 766 89 q 840 169 777 169 m 828 100 l 876 100 l 876 104 q 863 124 871 124 l 843 124 q 828 100 835 124 m 431 62 l 431 54 q 449 41 437 41 q 467 54 467 48 l 467 62 q 449 74 467 68 q 431 62 431 68 z "},"R":{"ha":1067,"x_min":47,"x_max":1017,"o":"m 526 970 l 541 970 q 960 718 799 970 q 1017 494 1017 600 l 1017 479 q 793 75 1017 233 q 541 0 671 0 l 524 0 q 107 248 267 0 q 47 488 47 359 l 47 494 q 290 907 47 747 q 526 970 407 970 m 75 479 q 257 120 75 270 q 535 27 382 27 q 928 254 779 27 q 990 488 990 363 q 795 859 990 710 q 535 943 672 943 q 111 665 253 943 q 75 479 75 572 m 524 910 q 538 904 528 910 q 545 910 539 910 l 550 910 q 556 904 556 909 l 556 886 q 550 880 556 880 l 545 880 q 530 892 531 892 l 526 892 q 517 874 517 889 q 526 856 519 856 l 535 856 l 545 862 l 547 862 q 556 853 551 862 l 556 850 q 532 838 556 842 l 524 838 q 494 868 494 842 l 494 877 q 524 910 499 910 m 479 907 q 484 883 484 896 l 473 877 q 469 889 469 882 l 460 889 q 479 847 465 847 l 479 841 q 446 829 479 831 q 439 838 439 837 l 448 844 q 439 883 446 852 l 433 883 q 428 868 433 868 l 425 868 q 416 892 416 870 q 479 907 429 898 m 595 904 l 604 904 q 634 877 634 900 l 634 862 q 607 832 630 832 l 595 832 q 562 865 562 838 q 595 904 570 904 m 589 862 l 589 856 q 598 847 589 852 q 610 877 606 847 l 610 880 q 602 889 610 884 q 589 862 589 885 m 652 892 q 682 877 667 892 q 661 832 661 851 q 664 823 664 826 q 694 862 675 823 l 691 868 l 691 871 q 697 877 692 877 q 724 826 724 877 q 733 841 731 826 q 730 850 730 847 l 736 853 l 745 853 q 763 838 763 842 q 724 784 751 838 q 700 835 700 784 l 697 835 q 691 823 697 823 l 694 808 q 688 802 694 802 q 664 820 668 810 q 655 817 659 817 q 631 823 636 823 l 631 832 q 652 874 641 839 q 649 886 649 879 l 652 892 m 404 889 l 407 883 l 407 877 q 404 874 407 874 q 428 826 414 836 q 397 814 428 819 l 392 823 q 397 829 397 823 q 374 874 386 864 q 404 889 374 881 m 350 865 l 361 865 q 371 847 371 862 l 368 841 q 389 820 389 841 q 338 784 389 802 l 332 793 l 335 799 q 308 835 321 835 l 308 847 q 350 865 344 865 m 338 847 l 341 832 q 350 835 347 835 l 350 841 q 344 847 350 847 l 338 847 m 350 820 l 350 817 l 356 808 q 365 811 361 811 l 365 820 q 359 826 365 826 l 356 826 q 350 820 350 825 m 517 805 l 547 805 q 820 631 711 805 q 852 500 852 558 l 852 470 q 721 224 852 332 q 547 165 633 165 l 517 165 q 245 338 353 165 q 212 470 212 412 l 212 500 q 386 772 212 663 q 517 805 459 805 m 287 802 l 287 772 q 314 748 287 768 l 314 745 q 272 703 282 745 l 269 703 q 248 730 256 727 l 221 730 q 215 736 215 730 q 233 763 222 736 q 224 793 224 791 l 227 793 q 260 784 233 793 q 287 802 277 802 m 781 802 l 784 802 q 810 784 798 791 q 844 793 831 793 q 835 760 835 766 l 852 733 l 846 730 l 820 730 l 795 703 q 757 743 789 743 l 754 748 l 754 751 q 781 772 763 751 l 781 802 m 230 485 q 401 212 230 308 q 532 182 463 182 q 817 380 726 182 q 835 491 835 429 q 652 763 835 667 q 530 787 595 787 q 260 616 356 787 q 230 485 230 555 m 260 766 l 245 769 l 251 758 l 242 743 q 269 730 258 743 q 287 748 271 748 q 275 775 275 755 l 260 766 m 793 775 q 781 751 793 759 l 781 748 q 795 733 795 748 l 799 733 q 823 745 806 745 q 817 763 817 755 l 817 766 l 820 772 l 805 769 l 793 775 m 475 733 l 505 733 q 511 728 511 732 l 511 667 l 538 667 l 538 728 q 545 733 539 733 l 574 733 q 581 728 581 732 l 581 665 l 589 665 q 694 587 694 654 l 694 566 q 646 497 694 511 l 646 494 q 712 416 712 468 l 712 395 q 581 296 712 296 l 581 243 q 574 237 581 237 l 545 237 q 538 243 538 237 l 538 296 l 511 296 l 511 243 q 505 237 511 237 l 475 237 q 469 243 469 237 l 469 294 l 467 299 l 460 296 l 374 296 q 368 302 368 296 l 368 362 q 374 368 369 368 l 397 368 l 397 569 q 401 572 397 572 l 397 578 l 397 595 q 392 599 392 595 l 386 595 l 380 595 l 374 599 q 371 595 374 595 l 368 602 l 368 661 q 374 667 369 667 l 469 667 l 469 728 q 475 733 471 733 m 179 715 q 233 676 184 703 q 182 656 233 656 q 200 644 182 650 q 206 650 201 650 q 215 641 210 650 q 191 584 203 621 l 185 584 q 146 605 174 597 l 128 602 l 125 608 q 140 635 135 635 l 143 635 q 185 614 151 623 q 197 616 191 616 q 155 646 195 629 q 146 644 149 644 q 140 650 146 650 q 168 676 149 676 q 191 680 180 676 l 191 682 q 179 688 179 682 l 173 686 l 168 686 q 161 692 161 686 q 179 715 174 715 m 888 709 l 895 709 q 916 661 916 667 q 895 646 911 646 l 888 650 q 867 629 888 629 l 861 629 q 831 680 844 644 l 841 686 l 844 680 q 888 709 879 697 m 880 676 q 882 667 882 671 l 895 667 l 895 680 l 880 676 m 856 661 q 859 652 859 656 l 867 652 q 873 659 873 652 l 873 661 q 867 667 873 667 l 856 661 m 924 644 l 937 614 l 930 610 l 924 610 q 922 614 922 610 q 873 589 887 603 q 861 620 867 589 q 871 625 863 620 q 877 620 871 620 q 924 644 905 629 m 939 602 q 954 538 945 588 q 937 533 945 533 l 933 533 q 928 538 928 533 l 928 548 l 937 548 l 937 557 q 895 548 931 554 l 897 542 l 892 538 l 882 538 q 877 572 877 564 l 882 574 l 886 574 q 892 569 892 574 l 930 578 l 930 584 q 916 589 916 584 l 916 593 q 939 602 918 602 m 509 595 l 509 518 l 532 518 q 574 545 574 518 l 574 566 q 545 595 568 595 l 509 595 m 146 589 q 185 559 185 586 l 185 548 q 155 518 181 518 l 146 518 q 113 548 113 524 l 113 554 q 146 589 115 589 m 132 563 q 128 557 132 557 q 158 542 133 542 q 170 551 170 546 q 149 563 165 563 l 132 563 m 916 524 l 924 524 q 958 494 958 518 l 958 488 l 951 479 q 958 473 958 478 l 958 467 q 951 461 958 461 l 933 461 q 928 467 928 461 l 928 473 l 939 488 l 939 491 q 922 500 937 500 q 903 491 903 498 l 903 482 l 913 470 l 901 461 l 897 461 q 886 485 890 461 l 886 494 q 916 524 892 524 m 113 512 l 128 512 q 137 503 133 512 l 137 497 l 125 485 l 125 479 q 146 470 125 472 q 161 482 160 475 q 155 506 155 503 l 164 512 q 179 488 179 504 l 179 476 q 146 446 179 452 q 107 470 119 446 l 107 473 q 111 488 107 483 l 107 506 q 113 512 109 512 m 509 458 l 509 368 q 517 365 517 368 q 526 368 523 368 q 530 365 530 368 q 592 413 592 365 q 547 458 592 458 l 509 458 m 907 452 l 922 452 q 951 422 951 446 l 951 413 q 918 380 945 380 q 880 410 880 386 l 880 422 q 907 452 884 452 m 134 440 l 137 434 l 137 422 l 128 422 l 128 416 l 132 416 q 170 422 168 422 l 168 428 l 179 434 q 188 398 188 417 l 182 395 l 179 395 l 170 401 q 134 395 146 395 l 134 386 l 137 386 l 143 389 l 149 380 l 149 377 q 125 368 149 371 q 111 431 119 382 q 134 440 117 436 m 895 419 q 922 407 899 407 l 928 407 q 937 416 932 407 q 909 428 932 428 l 903 428 q 895 419 899 428 m 871 386 l 880 386 q 922 365 888 375 q 933 368 926 368 l 937 368 l 937 365 q 924 335 932 335 q 880 356 909 351 q 867 353 874 353 q 865 362 865 359 q 871 386 871 381 m 188 380 l 191 380 q 203 350 198 380 l 197 347 q 185 350 186 350 q 143 326 146 337 l 140 326 l 128 356 q 137 362 130 356 q 149 359 139 362 q 188 380 179 369 m 867 353 q 909 323 870 342 q 918 326 916 326 q 924 320 920 320 q 892 294 918 294 l 873 294 l 873 288 q 886 281 886 287 l 892 284 l 901 284 l 901 281 q 886 254 895 254 q 831 294 882 267 q 861 314 831 312 l 880 314 l 880 320 q 867 326 867 320 l 861 323 l 856 323 q 850 329 850 323 q 867 353 858 349 m 188 341 l 203 341 q 233 290 221 326 l 227 288 l 224 288 q 221 290 221 288 q 176 260 185 275 q 149 309 165 260 q 161 323 155 322 l 176 323 q 188 341 176 336 m 191 317 l 191 309 q 197 302 192 302 l 209 309 q 200 320 205 320 q 191 317 195 317 m 170 302 l 170 290 l 173 290 q 182 294 179 294 l 182 299 l 179 305 q 170 302 174 302 m 236 254 q 260 233 236 252 q 293 245 288 245 l 293 243 q 284 212 293 233 l 302 186 l 302 182 l 272 182 l 248 156 l 230 189 q 203 201 203 191 q 230 222 226 212 l 230 248 q 236 254 231 254 m 835 254 l 838 248 l 838 222 l 865 197 q 826 159 826 191 l 826 156 l 817 156 q 793 182 804 182 q 769 180 790 182 l 766 186 l 784 212 q 775 245 775 233 q 808 233 796 240 q 835 254 808 236 m 242 227 q 230 201 242 211 q 248 182 248 198 q 275 195 255 195 l 266 210 l 269 224 l 257 218 l 242 227 m 814 218 l 802 218 l 795 222 l 799 207 l 799 203 l 793 195 l 793 191 q 817 182 809 191 l 820 182 q 835 197 820 197 l 835 201 q 823 224 823 208 q 814 218 815 218 m 341 186 q 361 135 361 186 q 374 153 367 135 q 368 159 368 153 q 376 168 368 163 q 433 144 401 154 l 433 138 q 412 96 422 130 q 416 84 416 91 l 416 81 l 407 81 q 382 93 391 81 l 382 96 q 404 138 399 109 q 401 150 401 143 q 371 108 390 150 q 374 99 374 102 q 368 93 368 98 q 341 123 341 100 q 338 144 341 132 l 335 144 q 329 132 335 132 l 332 125 l 332 120 q 326 114 332 114 q 302 132 302 127 q 341 186 311 132 m 727 186 l 730 180 l 730 176 q 727 174 730 174 q 757 129 741 142 q 709 102 734 106 q 694 114 695 108 l 694 129 q 676 140 681 129 l 676 156 q 727 186 692 174 m 697 153 q 706 144 697 149 l 709 144 q 715 150 715 144 l 709 161 q 697 153 697 157 m 667 156 q 670 146 670 150 l 667 140 q 691 93 675 112 l 661 81 q 655 87 661 87 q 658 99 658 97 q 637 140 653 127 l 637 144 q 667 156 637 151 m 463 140 q 499 111 499 134 l 499 102 q 469 66 496 66 l 460 66 q 428 102 431 66 q 463 140 435 140 m 619 140 l 622 135 l 622 132 l 616 123 q 628 87 621 87 l 631 87 q 637 102 631 102 l 640 102 q 649 78 647 102 q 586 63 635 72 q 581 81 581 73 l 581 90 l 595 90 l 595 81 l 602 81 l 602 84 q 595 123 595 120 l 589 120 l 583 132 q 619 140 600 140 m 715 135 l 715 123 l 727 123 l 727 125 q 724 135 724 132 l 715 135 m 532 132 l 541 132 q 571 93 570 132 q 538 60 566 60 q 526 63 528 63 q 511 60 522 60 l 509 66 l 509 90 l 520 90 q 530 78 530 90 l 538 78 q 547 96 547 81 l 547 102 q 541 114 541 109 l 535 114 q 511 108 532 114 l 509 114 l 509 120 q 532 132 509 127 m 454 96 l 454 90 q 463 81 454 85 q 475 111 472 81 l 475 114 q 467 123 475 118 q 454 96 454 119 z "},"S":{"ha":812,"x_min":41,"x_max":735,"o":"m 278 970 l 295 970 q 388 919 323 970 q 422 868 422 919 l 426 868 q 490 932 426 932 q 532 902 521 932 q 473 787 487 787 l 303 787 q 231 932 288 787 l 231 945 q 278 970 231 957 m 290 766 l 481 766 q 498 749 488 766 l 498 737 q 469 720 491 720 l 367 720 q 350 724 357 720 q 333 720 342 720 q 273 745 273 720 l 273 749 q 290 766 273 756 m 307 699 l 469 699 q 646 491 533 617 q 735 178 735 347 q 684 47 735 79 q 388 0 556 0 q 75 68 75 18 q 41 186 49 68 q 248 618 41 435 q 307 699 256 635 m 333 530 l 333 483 q 320 470 333 477 l 252 470 l 252 440 q 261 436 261 440 l 269 440 q 295 423 295 432 l 295 245 q 278 229 295 239 l 252 229 l 252 195 l 320 195 q 333 182 326 195 l 333 136 l 367 136 l 367 182 q 380 195 367 188 l 401 195 q 414 182 407 195 l 414 144 q 422 136 414 136 l 447 136 l 447 186 q 507 212 447 195 q 536 262 536 241 l 536 271 q 481 339 536 316 l 481 343 q 519 398 519 373 l 519 411 q 447 474 519 454 l 447 525 q 439 534 447 534 l 435 534 l 414 530 l 414 483 q 401 470 414 477 l 380 470 q 367 483 374 470 l 367 530 q 358 534 358 530 l 350 530 q 346 534 346 530 q 333 530 338 530 m 375 436 l 409 436 q 443 402 443 436 l 443 394 q 401 360 443 360 l 375 360 q 367 368 367 360 l 367 428 q 375 436 368 436 m 375 326 l 401 326 q 456 279 456 326 q 405 229 456 229 l 375 229 q 367 237 367 229 l 367 317 q 375 326 368 326 z "},"T":{"ha":1200,"x_min":41,"x_max":1138,"o":"m 726 970 l 741 970 q 1128 666 1023 970 q 1138 578 1138 617 l 1138 564 q 859 186 1138 302 l 844 186 l 844 196 q 893 412 893 311 q 653 798 893 652 q 467 852 600 833 l 462 862 q 726 970 579 970 m 457 808 q 834 524 720 808 q 854 412 849 468 l 849 401 q 854 397 849 397 q 648 54 854 188 q 442 0 557 0 q 60 279 179 0 q 41 406 41 361 q 320 789 41 669 q 457 808 397 808 m 109 426 l 109 382 q 359 73 109 177 q 447 64 426 64 q 775 318 682 64 q 785 377 785 353 l 785 421 q 574 720 785 612 q 452 749 501 745 q 188 627 311 749 q 109 426 109 522 m 447 725 q 643 656 587 706 q 766 397 766 553 q 574 113 766 217 q 462 88 509 88 l 433 88 q 158 274 256 88 q 129 406 129 334 q 378 715 129 629 q 447 725 413 715 m 374 632 l 374 578 q 364 568 374 568 l 334 568 q 281 553 281 568 l 281 524 l 315 524 q 330 494 330 519 l 330 299 q 281 279 330 286 l 281 255 q 290 245 282 245 l 359 245 q 374 230 366 245 l 374 186 q 384 176 375 176 l 413 176 l 413 230 q 442 245 418 245 l 452 245 q 467 230 459 245 l 467 186 q 477 176 469 176 l 506 176 l 506 230 q 589 274 506 237 q 609 318 609 300 l 609 343 q 545 412 609 382 l 545 416 q 589 475 589 450 l 589 500 q 511 568 589 541 l 511 632 l 467 632 l 467 578 q 457 568 467 568 l 428 568 q 413 583 420 568 l 413 632 l 374 632 m 428 524 l 462 524 q 506 480 506 517 q 462 436 498 436 l 428 436 q 413 450 420 436 l 413 509 q 428 524 413 516 m 428 397 l 437 397 q 516 343 516 397 q 467 284 511 284 l 422 284 q 413 294 413 284 l 413 382 q 428 397 413 389 z "},"U":{"ha":1064,"x_min":47,"x_max":1021,"o":"m 536 973 q 979 684 826 973 q 1021 489 1021 581 q 709 33 1021 179 q 532 0 609 0 q 90 289 248 0 q 47 489 47 404 q 355 941 47 785 q 536 973 460 973 m 127 503 l 127 470 q 378 107 127 237 q 517 79 452 79 l 551 79 q 871 256 739 79 q 946 489 946 370 q 681 871 946 741 q 532 899 632 889 q 145 624 277 899 q 127 503 127 551 m 522 866 l 559 866 q 881 647 753 866 q 913 498 913 568 l 913 475 q 657 125 913 239 q 541 107 597 107 l 527 107 q 169 377 279 107 q 155 479 155 436 l 155 494 q 439 857 155 751 q 522 866 485 866 m 448 745 l 452 722 l 452 699 q 444 671 452 686 q 429 675 438 671 q 355 671 382 671 q 350 675 355 675 l 345 666 l 345 633 q 397 619 345 624 l 401 596 l 401 382 q 382 349 401 357 l 345 349 l 345 307 q 355 298 347 298 l 439 298 q 452 284 446 298 l 452 224 l 490 224 q 499 233 499 224 l 499 289 q 509 298 500 298 l 551 298 q 559 289 559 296 l 559 224 l 606 224 l 606 294 q 681 321 608 304 q 723 396 723 361 l 723 410 q 648 498 723 459 q 704 577 704 545 q 611 675 704 644 q 606 680 606 675 l 606 749 l 559 749 l 559 684 q 546 671 559 677 l 513 671 q 499 684 507 671 l 499 745 q 485 754 499 754 q 448 745 471 754 m 509 624 l 551 624 q 602 577 589 624 q 527 522 602 522 l 509 522 q 499 531 499 522 l 499 614 q 509 624 500 624 m 509 475 l 551 475 q 611 414 611 470 l 611 400 q 559 349 604 349 l 509 349 q 494 363 502 349 l 494 414 l 499 442 q 494 456 494 452 q 509 475 501 475 z "},"V":{"ha":825,"x_min":34,"x_max":763,"o":"m 401 973 l 405 973 q 736 738 690 973 q 741 676 741 710 l 741 642 q 732 633 741 633 l 610 633 q 602 642 602 633 l 602 681 q 401 833 602 833 l 387 833 q 208 755 251 833 l 191 703 l 195 681 l 195 659 q 182 633 195 636 l 64 633 q 52 650 54 633 q 401 973 52 973 m 724 581 q 763 563 757 581 l 763 135 q 654 4 763 31 q 602 0 631 0 l 191 0 q 174 4 181 0 l 165 0 q 34 131 34 20 l 34 550 q 43 576 34 562 l 724 581 m 331 498 l 331 450 q 322 441 331 441 l 252 441 q 243 432 243 439 l 243 406 q 287 393 287 401 l 287 192 q 243 174 287 180 l 243 149 q 252 140 245 140 l 322 140 q 331 131 331 138 l 331 79 l 353 74 q 374 140 374 80 l 409 140 q 418 131 418 138 l 418 79 l 439 74 q 457 87 457 81 l 457 135 q 518 157 457 141 q 553 222 550 189 q 492 292 553 272 l 492 301 q 532 358 532 332 l 532 380 q 466 436 532 420 q 457 450 457 448 l 457 484 l 453 506 l 427 506 q 418 498 418 505 l 418 450 q 409 441 418 441 l 378 441 q 366 467 366 445 l 366 471 q 370 489 366 481 q 366 506 366 496 l 339 506 q 331 498 331 505 m 378 401 l 414 401 q 453 358 448 401 q 401 319 446 319 l 378 319 q 366 332 375 319 l 370 353 l 366 393 l 378 401 m 378 283 l 387 283 q 462 235 462 283 l 462 231 q 418 179 457 179 l 374 179 q 366 188 366 179 l 366 271 q 378 283 366 277 z "},"W":{"ha":1071,"x_min":47,"x_max":1015,"o":"m 532 970 q 924 766 767 970 q 1015 488 1015 635 q 810 90 1015 245 q 532 0 675 0 q 132 210 290 0 q 47 460 47 340 l 47 504 q 243 877 47 714 q 532 970 380 970 m 500 935 q 503 877 503 893 l 522 877 l 522 935 l 500 935 m 538 935 l 538 877 l 557 877 q 562 935 557 892 l 538 935 m 462 926 q 470 874 462 916 l 489 874 q 484 932 484 922 l 481 932 q 462 926 462 931 m 576 932 l 576 929 q 573 874 576 922 l 592 874 l 592 877 q 600 929 592 887 l 581 932 l 576 932 m 423 918 q 437 866 431 877 q 454 869 441 869 l 445 926 q 423 918 423 924 m 617 926 l 606 871 q 625 866 620 866 l 639 921 q 617 926 622 926 m 385 913 l 385 910 l 401 858 q 420 863 420 858 q 407 918 407 911 q 385 913 393 913 m 652 916 q 644 861 644 884 l 658 861 l 677 910 q 655 916 667 916 l 652 916 m 347 897 l 372 844 q 388 850 382 850 q 366 905 372 905 l 347 897 m 690 902 q 674 850 674 860 q 690 847 682 847 q 712 897 712 892 q 690 902 705 902 m 312 880 q 345 831 337 831 q 358 836 353 836 q 331 888 336 887 q 312 880 317 880 m 726 885 q 707 836 707 849 q 720 831 715 831 l 747 877 l 747 880 q 726 885 734 885 m 279 855 q 309 812 303 827 l 312 812 q 326 823 325 819 q 298 869 306 859 q 279 855 281 862 m 758 869 q 734 823 758 861 q 750 812 734 818 q 781 855 758 825 l 781 861 q 764 869 774 861 l 758 869 m 249 833 q 284 793 277 797 l 298 801 q 265 847 269 846 q 249 833 249 838 m 791 847 q 764 801 764 805 l 775 793 l 778 793 q 813 836 804 821 q 797 847 808 836 l 791 847 m 173 485 q 382 158 173 272 q 522 128 460 128 l 532 128 q 859 343 747 128 q 886 466 886 414 l 886 498 q 726 785 886 667 q 543 842 634 842 l 524 842 q 203 632 317 842 q 173 485 173 555 m 219 809 q 260 768 219 806 q 271 782 271 781 q 235 823 238 823 q 219 809 224 819 m 789 779 l 805 768 l 843 809 l 827 823 q 789 779 808 807 m 192 779 l 235 744 l 246 758 q 208 795 246 762 l 205 795 q 192 779 201 795 m 816 758 q 829 744 816 753 q 867 779 829 747 l 867 782 q 854 795 867 785 q 816 758 850 795 m 181 768 l 168 749 l 168 747 q 214 716 173 747 l 224 733 q 181 768 191 758 m 878 768 q 838 730 838 733 q 846 716 846 721 q 892 747 888 747 l 892 752 q 878 768 882 768 m 450 747 l 494 747 q 500 741 500 745 l 500 673 q 505 667 500 667 l 549 667 l 549 741 q 554 747 549 747 l 597 747 q 603 741 603 745 l 603 667 q 696 589 696 648 l 696 564 q 639 498 696 519 l 693 469 q 718 409 718 441 l 718 392 q 603 302 718 321 l 603 229 q 597 223 603 223 l 554 223 q 549 229 549 223 l 549 300 l 500 300 l 500 229 q 494 223 500 223 l 450 223 q 445 229 445 223 l 445 300 l 347 300 q 342 305 342 300 l 342 351 q 347 357 342 357 l 377 357 q 393 365 391 357 l 393 594 q 396 597 393 597 q 385 613 391 613 l 347 613 q 342 618 342 613 l 342 662 q 347 667 342 667 l 445 667 l 445 741 q 450 747 446 747 m 157 736 l 146 716 q 195 689 190 689 l 203 703 q 157 736 202 709 m 857 705 q 867 689 860 696 q 913 713 909 713 q 903 736 913 726 q 857 705 865 709 m 135 700 q 130 681 130 688 q 178 659 163 663 l 186 675 l 135 703 l 135 700 m 876 673 q 881 659 881 664 q 932 684 892 659 q 924 703 924 697 q 876 673 884 683 m 118 665 l 110 646 q 165 627 114 646 l 170 646 q 118 665 128 665 m 889 643 q 895 629 895 634 l 900 629 l 949 646 q 941 667 949 652 q 889 643 902 651 m 104 632 q 99 610 99 613 l 99 608 q 154 594 106 608 q 159 613 154 602 q 104 632 124 624 m 903 610 q 908 594 903 606 l 963 610 q 958 629 958 621 l 952 629 q 903 610 941 629 m 500 613 l 500 528 q 508 523 500 523 q 587 558 587 523 l 587 578 q 543 613 579 613 l 500 613 m 94 594 q 88 572 94 589 q 146 561 105 567 l 149 581 q 94 594 143 581 m 911 581 l 916 561 q 971 575 971 569 q 963 594 968 594 q 911 581 922 581 m 85 555 l 83 531 l 140 531 q 143 545 140 541 l 85 555 m 919 542 l 919 528 l 922 528 q 977 531 969 531 l 977 542 l 974 555 q 919 542 919 547 m 83 517 l 80 493 l 138 493 l 138 512 q 83 517 117 512 m 922 512 l 922 493 l 979 493 l 979 515 l 977 515 q 922 512 959 515 m 80 477 l 80 469 q 85 455 81 455 q 138 458 129 458 l 138 477 l 80 477 m 922 477 l 922 458 l 924 458 q 979 455 932 458 l 979 477 l 922 477 m 500 469 l 500 357 l 543 357 q 600 409 600 357 l 600 417 q 549 469 593 469 l 500 469 m 132 441 q 83 439 121 441 q 88 417 85 417 q 143 425 102 417 q 140 444 140 429 q 132 441 135 441 m 922 444 l 919 439 l 919 425 l 974 414 l 977 433 l 977 439 q 922 444 936 441 m 88 400 l 88 397 q 94 376 94 384 q 149 389 138 389 q 143 409 149 409 q 88 400 98 400 m 916 409 q 911 389 911 395 q 966 376 924 389 q 968 400 968 377 l 916 409 m 99 362 q 107 340 99 342 q 159 357 153 357 q 154 376 154 368 l 99 362 m 908 376 q 905 357 905 374 q 955 340 949 340 l 958 340 q 960 362 960 353 q 908 376 955 362 m 110 324 q 121 302 115 309 q 170 324 163 324 q 162 343 166 343 q 110 324 151 338 m 895 340 q 889 327 895 336 l 941 302 q 949 324 949 321 q 895 340 911 340 m 126 286 q 140 267 136 267 q 186 294 153 279 q 176 311 180 311 q 126 286 127 290 m 881 311 l 876 294 l 924 267 q 932 289 932 287 q 881 311 888 311 m 146 254 l 157 234 q 203 267 202 263 q 192 281 195 280 q 146 254 146 256 m 865 281 l 857 267 l 857 264 q 903 234 861 264 l 905 234 q 913 251 905 241 l 913 256 q 865 281 869 281 m 211 254 q 168 223 174 223 l 168 220 q 181 204 177 204 q 224 239 187 205 q 211 254 214 254 m 846 254 q 838 239 846 249 q 878 204 838 235 q 892 223 892 212 q 848 254 873 235 l 846 254 m 233 226 q 192 193 197 193 l 192 191 q 208 174 192 187 q 246 212 212 174 q 233 226 246 216 m 813 212 l 854 174 q 867 193 867 182 q 827 226 865 193 q 813 212 823 226 m 257 201 l 219 161 l 235 147 q 271 191 269 184 l 257 201 m 789 188 q 824 147 791 188 q 840 161 835 151 l 840 163 q 802 201 840 168 q 789 188 798 201 m 281 180 q 249 136 277 172 q 265 123 249 132 q 298 169 269 123 q 281 180 284 180 m 775 180 q 764 166 764 168 q 794 123 771 153 q 813 139 806 127 l 775 180 m 309 158 q 279 112 309 154 q 301 104 290 104 q 326 150 326 144 q 309 158 315 158 m 734 147 q 764 101 759 102 l 781 112 q 747 158 760 146 q 734 147 734 151 m 704 131 q 728 82 718 99 q 747 93 747 90 q 720 142 722 136 q 704 131 704 135 m 339 139 q 315 90 315 98 q 334 82 320 90 q 355 134 355 126 q 339 139 347 139 m 372 125 q 347 73 353 87 q 369 65 351 73 q 385 120 385 107 l 372 125 m 674 115 q 693 65 689 67 q 712 76 712 72 q 690 125 701 97 q 674 115 674 125 m 401 112 l 385 60 q 407 54 395 54 l 420 109 l 401 112 m 642 109 l 642 106 q 652 54 652 58 q 677 60 659 54 q 655 112 660 111 l 642 109 m 434 104 q 426 49 426 68 q 445 46 429 46 q 450 101 450 75 q 434 104 448 101 m 606 101 q 617 43 614 52 l 639 49 q 625 104 625 100 l 606 101 m 470 96 q 465 41 465 79 l 484 38 l 484 41 l 489 96 l 470 96 m 573 96 q 578 38 575 38 q 600 41 598 41 q 592 96 592 84 l 573 96 m 503 93 l 503 90 q 500 35 503 82 l 522 35 l 522 93 l 503 93 m 538 93 l 538 35 l 557 35 l 562 38 q 557 93 557 77 l 538 93 z "},"X":{"ha":1050,"x_min":27,"x_max":990,"o":"m 513 966 q 898 768 740 966 q 990 496 990 638 l 990 461 q 827 119 990 280 q 507 0 680 0 q 122 195 281 0 q 27 480 27 328 l 27 486 q 222 871 27 715 q 513 966 354 966 m 65 483 q 282 100 65 245 q 502 38 399 38 q 911 293 770 38 q 952 469 952 385 l 952 496 q 746 860 952 711 q 510 928 629 928 q 114 689 260 928 q 65 483 65 587 m 510 890 q 860 689 728 890 q 914 502 914 588 l 914 464 q 743 149 914 289 q 513 76 627 76 q 157 279 289 76 q 103 483 103 374 q 307 836 103 706 q 510 890 404 890 m 426 741 l 426 670 q 420 665 426 665 l 323 665 l 323 613 l 358 613 q 377 589 377 613 l 377 469 q 374 458 377 463 q 377 448 377 454 l 377 380 q 374 377 377 377 l 377 372 q 366 355 372 355 l 323 355 l 323 301 l 420 301 q 426 296 426 300 l 426 225 l 477 225 l 477 296 q 483 301 478 301 l 524 301 q 529 296 529 300 l 529 225 l 581 225 l 581 298 q 637 315 581 302 q 694 393 694 351 l 694 412 q 618 491 694 464 l 616 491 l 616 496 q 673 564 673 521 l 673 583 q 581 665 673 642 l 581 741 l 529 741 l 529 670 q 524 665 529 665 l 483 665 q 477 670 477 665 l 477 741 l 426 741 m 483 613 l 499 613 q 570 567 570 613 q 521 521 570 525 l 483 521 q 477 526 477 521 l 477 608 q 483 613 478 613 m 480 469 l 513 469 q 581 410 581 469 q 518 353 581 353 l 480 353 q 475 358 475 353 l 475 464 q 480 469 475 469 z "},"Y":{"ha":1043,"x_min":34,"x_max":997,"o":"m 514 966 q 926 738 768 966 q 997 502 997 616 l 997 467 q 783 81 997 241 q 517 0 654 0 q 104 231 265 0 q 34 488 34 350 q 237 876 34 719 q 514 966 368 966 m 72 480 q 273 111 72 257 q 519 38 390 38 q 878 225 731 38 q 959 461 959 347 l 959 505 q 812 814 959 671 q 511 928 682 928 q 205 800 344 928 q 72 480 72 663 m 519 890 q 869 686 734 890 q 924 486 924 580 q 718 130 924 262 q 514 76 620 76 q 161 282 298 76 q 110 486 110 382 q 283 817 110 683 q 519 890 391 890 m 460 719 q 389 486 399 495 q 335 456 335 470 q 324 412 332 435 l 327 412 q 376 429 367 429 l 376 426 q 340 296 376 419 l 693 296 q 718 374 700 296 l 503 374 l 503 377 q 541 488 527 488 q 595 521 595 501 q 604 562 604 552 q 549 543 558 543 l 549 545 q 595 716 595 711 l 595 719 l 460 719 z "},"Z":{"ha":1071,"x_min":47,"x_max":1010,"o":"m 528 966 q 956 711 798 966 q 1010 499 1010 597 l 1010 458 q 853 125 1010 281 q 530 0 707 0 q 123 222 281 0 q 47 483 47 345 q 302 909 47 753 q 528 966 420 966 m 503 909 q 514 838 508 838 l 549 838 q 555 909 555 885 l 503 909 m 186 735 q 243 697 191 735 q 400 817 326 791 q 484 836 459 836 l 487 836 q 481 906 487 850 l 479 906 q 245 803 380 906 q 186 735 201 758 m 576 903 q 571 838 576 871 q 739 773 647 831 q 815 697 789 732 q 872 738 867 730 q 650 892 798 844 q 576 903 626 903 m 205 483 q 294 260 205 362 q 525 160 393 160 l 530 160 q 829 358 732 160 q 853 483 853 417 q 693 762 853 659 q 533 806 618 806 l 519 806 q 300 711 400 806 q 205 483 205 607 m 449 743 l 495 743 q 500 738 500 743 l 500 665 l 547 665 q 549 673 547 673 l 547 678 l 547 713 l 549 730 q 547 741 547 734 l 552 743 l 598 743 q 604 738 604 743 l 604 667 q 642 654 604 664 q 696 581 696 625 l 696 572 q 642 496 696 517 l 639 496 l 639 491 q 715 418 715 469 q 718 401 718 418 q 625 304 718 328 q 604 301 623 304 l 604 228 q 598 222 604 222 l 576 222 q 549 231 549 222 q 547 244 547 235 l 547 279 q 549 290 547 286 q 547 298 547 296 l 500 298 l 500 236 q 498 233 500 233 l 500 228 l 500 225 q 490 222 490 225 l 476 225 l 444 225 l 444 298 l 343 298 l 343 355 l 378 355 q 395 372 395 355 l 395 594 q 378 610 395 610 l 343 610 l 343 665 l 444 665 l 444 738 q 449 743 444 743 m 172 719 q 148 675 171 713 l 148 673 q 213 646 205 646 l 213 648 l 229 675 l 229 678 q 172 719 229 682 m 883 719 l 829 675 q 848 643 834 675 q 913 673 882 661 q 883 719 889 718 m 137 654 q 102 480 102 564 q 137 312 102 402 q 199 345 199 340 q 172 486 172 420 q 199 624 172 540 l 137 654 m 859 621 q 886 496 886 557 l 886 464 q 859 342 886 414 l 921 312 q 956 472 956 391 l 956 494 q 924 651 956 566 l 921 651 q 859 621 859 627 m 500 610 l 500 521 l 525 521 q 587 567 587 521 l 587 572 q 541 610 587 603 l 500 610 m 498 467 l 498 355 l 544 355 q 601 410 601 355 q 547 467 595 467 l 498 467 m 848 323 q 829 288 848 316 l 829 285 q 886 247 834 285 q 913 293 911 288 q 848 323 908 293 m 148 293 l 148 290 l 172 247 q 229 288 218 275 l 229 290 q 210 320 212 320 q 148 293 206 320 m 186 231 q 294 125 234 167 q 481 57 391 67 q 487 127 487 111 q 332 184 393 144 q 243 269 292 210 q 186 231 192 231 m 815 269 q 623 138 755 180 q 571 127 578 127 q 576 60 574 121 l 582 60 q 812 160 677 60 q 872 228 858 207 q 815 269 871 232 m 511 127 q 503 57 509 122 q 533 54 527 54 q 555 57 536 54 q 549 127 552 121 l 536 125 l 511 127 z "},"[":{"ha":1057,"x_min":41,"x_max":1004,"o":"m 524 966 q 928 746 766 966 q 1004 494 1004 621 l 1004 472 q 776 71 1004 233 q 524 0 646 0 q 119 217 278 0 q 41 483 41 342 q 260 887 41 732 q 524 966 385 966 m 117 486 l 117 480 q 288 152 117 282 q 526 76 395 76 q 857 252 723 76 q 928 472 928 358 l 928 494 q 727 836 928 700 q 521 890 622 890 q 193 719 326 890 q 117 486 117 612 m 507 860 l 537 860 q 846 681 718 860 q 901 486 901 583 q 681 138 901 256 q 540 106 603 106 l 505 106 q 222 252 348 106 q 144 486 144 359 q 336 814 144 686 q 507 860 431 860 m 434 760 q 363 518 369 525 q 307 486 307 505 q 277 363 277 372 l 323 380 l 326 374 q 296 266 296 273 l 724 266 l 765 415 l 762 415 q 751 418 751 415 l 746 415 l 553 415 q 548 420 548 415 q 575 469 559 469 q 627 507 627 479 l 656 621 l 654 621 q 605 605 610 605 l 602 605 q 646 760 608 635 l 434 760 m 477 727 l 532 727 q 543 724 538 727 q 553 727 547 727 l 594 727 q 600 722 600 726 l 551 548 q 605 567 583 563 l 605 564 q 564 499 605 507 q 526 464 526 494 q 505 382 505 387 l 716 382 l 722 380 q 694 298 701 303 l 345 298 l 339 301 l 377 434 l 374 434 q 326 420 347 420 q 361 483 332 483 q 404 534 404 488 q 461 724 456 715 l 477 727 z "},"\\":{"ha":1067,"x_min":41,"x_max":1004,"o":"m 521 966 q 914 762 758 966 q 1004 480 1004 633 q 808 95 1004 252 q 524 0 673 0 q 111 228 271 0 q 41 464 41 350 l 41 496 q 255 884 41 727 q 521 966 383 966 m 114 483 q 282 155 114 289 q 518 76 394 76 q 884 298 753 76 q 928 486 928 391 q 700 849 928 716 q 524 890 603 890 q 165 681 300 890 q 114 483 114 575 m 513 860 l 537 860 q 838 692 710 860 q 901 483 901 586 q 697 146 901 271 q 532 106 611 106 l 505 106 q 201 279 330 106 q 144 477 144 378 l 144 488 q 347 819 144 696 q 513 860 431 860 m 401 776 l 401 703 q 396 697 401 697 l 307 697 l 301 700 l 301 578 l 347 578 q 353 572 353 577 l 353 396 q 347 391 353 391 l 301 391 l 301 266 q 307 263 307 266 q 317 266 308 263 l 331 263 q 342 266 332 263 l 374 263 l 393 266 q 396 263 393 263 q 399 266 396 266 l 401 260 l 401 195 q 407 190 402 190 l 624 190 q 629 195 629 190 l 629 269 q 678 288 633 273 q 746 399 746 338 q 694 502 746 454 q 722 575 722 526 q 629 692 722 656 l 629 776 l 401 776 m 442 743 l 486 743 q 491 738 491 743 l 491 665 l 540 665 l 540 738 q 545 743 541 743 l 589 743 q 594 738 594 743 l 594 665 q 686 578 686 647 l 686 562 q 632 496 686 519 l 632 491 q 703 431 703 468 q 708 412 708 431 l 708 391 q 600 301 708 321 l 594 301 l 594 228 q 589 222 594 222 l 545 222 q 540 228 540 222 l 540 298 l 491 298 l 491 228 q 486 222 491 222 l 442 222 q 437 228 437 222 l 437 298 l 339 298 q 334 304 334 298 l 334 350 q 339 355 334 355 l 377 355 q 388 369 381 355 l 385 374 l 385 434 q 388 448 385 443 l 385 464 l 385 583 q 388 594 385 589 q 377 610 382 610 l 339 610 q 334 616 334 610 l 334 659 q 339 665 334 665 l 437 665 l 437 738 q 442 743 437 743 m 491 610 l 491 521 l 518 521 q 578 556 578 521 l 578 575 q 526 610 578 610 l 491 610 m 491 467 l 491 404 q 488 366 491 389 q 491 355 491 361 l 543 355 q 591 407 586 355 l 591 415 q 532 467 591 467 l 491 467 z "},"]":{"ha":1050,"x_min":34,"x_max":997,"o":"m 517 966 q 910 762 749 966 q 997 499 997 629 l 997 458 q 861 146 997 296 q 509 0 715 0 q 129 193 294 0 q 34 486 34 330 q 254 887 34 730 q 517 966 379 966 m 490 909 q 498 838 496 844 l 517 841 l 522 841 l 536 838 q 541 909 541 892 l 490 909 m 175 735 l 229 697 q 425 827 302 793 q 473 836 448 836 l 473 838 l 468 906 l 465 906 q 262 827 385 906 q 175 735 184 761 m 563 903 q 557 838 563 871 q 739 762 678 817 q 802 697 802 704 q 859 738 838 720 q 639 892 784 844 q 563 903 609 903 m 191 486 q 376 190 191 296 q 506 160 446 160 l 528 160 q 796 320 690 160 q 840 488 840 394 q 652 779 840 671 q 519 806 585 806 l 506 806 q 229 632 334 806 q 191 486 191 555 m 159 719 q 134 673 134 677 q 197 646 191 646 l 199 646 q 216 675 199 650 l 216 678 q 159 719 215 682 m 869 719 q 815 681 847 696 l 815 678 q 834 643 834 650 q 899 673 895 673 q 869 719 879 715 m 593 719 q 598 713 598 718 l 549 543 q 604 562 600 562 q 606 559 604 559 q 576 499 597 499 q 528 467 528 486 l 503 377 l 715 377 l 720 374 q 693 293 703 300 l 340 293 l 340 296 q 376 426 340 306 l 373 426 q 327 410 367 426 l 324 415 q 362 477 332 477 q 397 502 397 486 q 460 719 454 707 l 593 719 m 123 654 q 88 483 88 563 q 123 312 88 401 l 189 342 q 159 488 159 410 q 186 624 159 541 l 123 654 m 845 621 q 872 496 872 558 l 872 464 q 845 342 872 414 l 907 312 q 943 472 943 389 l 943 494 q 907 654 943 576 q 845 621 845 625 m 134 290 q 161 247 144 269 l 216 288 l 216 290 q 199 320 199 315 q 134 290 186 320 m 834 320 q 818 285 818 295 l 872 247 l 875 247 q 899 293 875 251 q 834 320 840 320 m 172 231 q 389 73 230 137 q 468 60 444 60 l 468 62 q 473 127 473 114 q 273 220 378 136 q 232 269 245 248 q 172 231 176 231 m 802 269 q 604 136 734 176 q 557 127 598 136 q 566 60 564 60 q 793 157 665 60 q 859 228 848 208 q 802 269 858 232 m 498 127 q 490 57 496 121 l 517 54 l 522 54 l 541 57 q 536 127 541 77 l 522 125 l 503 125 l 498 127 z "},"^":{"ha":1071,"x_min":47,"x_max":1010,"o":"m 530 966 q 864 830 715 966 q 1010 499 1010 677 l 1010 472 q 804 87 1010 244 q 533 0 673 0 q 121 228 275 0 q 47 480 47 347 l 47 486 q 267 887 47 732 q 530 966 391 966 m 123 483 q 368 109 123 237 q 530 76 458 76 q 883 282 749 76 q 935 472 935 376 l 935 494 q 734 836 935 700 q 528 890 629 890 q 183 697 320 890 q 123 483 123 594 m 514 860 l 544 860 q 853 681 725 860 q 907 486 907 583 l 907 483 q 663 127 907 243 q 547 106 594 106 l 519 106 q 183 328 304 106 q 151 480 151 413 q 365 825 151 703 q 514 860 448 860 m 189 496 l 189 469 q 321 212 189 323 q 522 141 417 141 l 525 141 q 853 372 755 141 q 872 480 872 436 q 671 795 872 685 q 530 825 600 825 q 213 613 318 825 q 189 496 189 551 m 601 727 l 606 724 q 557 551 601 701 l 563 551 l 612 570 q 614 567 612 567 q 576 502 605 502 q 536 472 536 494 q 511 382 522 429 l 723 382 l 728 380 q 701 298 707 303 l 351 298 q 346 304 346 298 l 384 434 l 381 434 q 332 418 365 426 l 332 420 q 368 483 338 483 q 406 513 406 490 q 468 727 460 707 l 601 727 z "},"_":{"ha":1057,"x_min":41,"x_max":1004,"o":"m 518 966 q 933 735 774 966 q 1004 477 1004 616 q 811 98 1004 254 q 513 0 680 0 q 138 187 303 0 q 41 464 41 327 l 41 496 q 179 822 41 675 q 518 966 330 966 m 117 499 l 117 461 q 279 155 117 294 q 524 76 397 76 q 854 250 720 76 q 928 491 928 357 q 730 833 928 695 q 521 890 624 890 q 176 700 313 890 q 117 499 117 594 m 513 860 l 537 860 q 838 692 710 860 q 901 477 901 588 q 722 160 901 290 q 532 106 625 106 l 505 106 q 201 279 330 106 q 144 477 144 378 l 144 494 q 331 811 144 683 q 513 860 423 860 m 179 488 q 277 244 179 348 q 521 141 380 141 q 844 363 739 141 q 863 472 863 430 l 863 494 q 703 773 863 660 q 521 825 618 825 q 225 654 336 825 q 179 488 179 569 m 442 743 l 486 743 q 491 738 491 743 l 491 667 l 540 667 l 540 738 q 545 743 541 743 l 589 743 q 594 738 594 743 l 594 670 q 646 651 597 666 q 689 575 689 618 q 629 496 689 522 l 629 494 q 708 415 708 471 l 708 393 q 602 304 708 325 l 594 304 l 594 231 q 589 225 594 225 l 545 225 q 540 231 540 225 l 540 296 q 534 301 540 301 l 496 301 q 491 296 491 300 l 491 231 q 486 225 491 225 l 442 225 q 437 231 437 225 l 437 301 l 339 301 q 334 307 334 301 l 334 353 q 339 358 334 358 l 377 358 q 388 391 385 358 q 385 399 385 396 l 388 399 l 385 404 l 385 545 q 388 570 385 555 q 385 589 385 573 l 385 605 q 377 613 385 609 l 339 613 q 334 618 334 613 l 334 662 q 339 667 334 667 l 437 667 l 437 738 q 442 743 437 743 m 491 613 l 491 524 l 524 524 q 578 559 578 524 l 578 578 q 524 613 578 610 l 491 613 m 491 469 l 491 355 l 515 355 q 589 399 589 355 q 591 415 591 399 q 529 469 591 469 l 491 469 z "},"`":{"ha":1323,"x_min":34,"x_max":1266,"o":"m 944 973 q 1266 835 1266 949 l 1266 731 q 938 593 1266 617 q 610 754 610 612 l 610 800 q 840 968 610 933 q 944 973 909 973 m 673 852 l 673 829 q 949 749 726 749 q 1208 829 1150 749 l 1208 852 q 938 933 1145 933 q 673 852 699 918 m 339 887 q 593 835 574 876 l 593 818 q 581 806 593 806 q 368 846 486 846 q 97 772 168 846 q 92 749 92 762 l 92 743 q 304 662 92 693 l 368 662 q 587 703 504 662 q 598 691 589 691 l 593 662 l 593 622 l 598 553 q 581 541 581 547 l 541 547 l 506 547 q 276 513 393 547 q 34 645 34 553 l 34 737 q 339 887 34 861 m 627 668 q 944 576 732 576 q 1255 668 1141 576 q 1266 656 1266 666 l 1266 576 q 967 444 1266 471 l 892 444 q 748 501 820 444 q 616 570 616 534 q 610 599 610 580 l 610 650 q 627 668 610 659 m 45 582 q 230 495 108 528 l 230 490 q 149 391 174 448 l 138 391 q 34 501 34 436 l 34 570 q 45 582 36 582 m 500 530 q 829 391 829 506 l 829 300 q 564 150 829 188 l 506 150 q 178 271 255 150 q 172 323 172 302 l 172 374 q 500 530 172 511 m 1266 513 l 1266 426 q 932 288 1266 309 l 915 288 q 846 311 846 288 l 846 391 l 840 420 l 852 426 l 972 426 q 1255 513 1139 426 l 1266 513 m 230 397 q 500 305 270 305 l 506 305 q 771 386 714 305 l 771 391 q 500 490 771 475 q 230 397 230 469 m 45 426 q 155 363 85 397 l 155 334 q 161 248 155 305 l 143 236 q 34 340 34 284 l 34 414 q 45 426 36 426 m 1255 363 q 1266 351 1266 361 l 1266 271 q 979 138 1266 168 l 863 138 q 846 155 855 138 l 846 265 l 852 277 l 921 271 l 932 271 q 1255 363 1145 271 m 184 224 q 506 132 301 132 q 817 224 703 132 q 829 213 829 223 l 829 144 q 529 0 829 22 l 466 0 q 172 144 192 18 l 172 208 q 184 224 184 222 z "},"a":{"ha":1156,"x_min":34,"x_max":1097,"o":"m 422 973 l 704 973 q 773 888 762 973 l 773 814 q 784 803 774 803 l 1013 803 q 1097 648 1097 803 q 1097 489 1097 492 q 1082 479 1084 479 l 831 479 q 779 564 826 479 q 587 665 688 665 l 545 665 q 305 479 389 665 l 45 479 q 34 489 34 479 l 34 718 q 114 803 46 803 l 348 803 q 358 814 358 803 l 358 904 q 422 973 376 973 m 444 867 l 444 814 q 454 803 445 803 l 672 803 q 688 829 684 803 q 672 883 685 883 l 459 883 q 444 867 452 883 m 502 627 l 528 627 q 545 612 536 627 l 545 564 q 560 558 550 564 q 576 564 571 564 l 576 617 q 587 627 578 627 l 619 627 q 629 617 629 626 l 629 569 q 709 494 709 527 l 709 479 q 672 410 709 443 q 730 335 730 382 q 629 239 730 266 q 614 176 629 176 l 592 176 q 576 191 585 176 l 576 239 l 545 239 l 545 191 q 528 176 545 184 l 502 176 q 486 191 494 176 l 486 239 l 417 239 q 401 255 409 239 l 401 287 q 444 303 401 298 l 444 505 l 417 505 q 401 521 409 505 l 401 548 q 412 558 403 558 l 475 558 q 491 622 486 558 l 502 627 m 545 505 l 545 441 l 587 441 q 608 463 595 441 l 608 484 q 571 505 600 505 l 545 505 m 45 404 l 109 399 l 284 399 q 311 298 290 399 q 560 122 404 122 q 831 346 761 122 q 848 399 831 399 l 1088 399 q 1092 69 1097 399 q 1018 0 1092 17 l 119 0 q 34 85 34 11 l 34 388 l 45 404 m 545 383 l 539 330 l 539 324 l 545 298 l 592 298 q 619 340 619 311 q 576 383 619 383 l 545 383 z "},"b":{"ha":972,"x_min":34,"x_max":924,"o":"m 616 977 l 629 977 q 633 972 633 976 l 633 934 l 649 934 l 649 972 q 654 977 650 977 l 669 977 q 674 972 674 976 l 674 934 l 679 934 q 740 888 729 934 l 740 868 q 722 832 740 849 q 747 787 747 812 l 747 784 q 679 718 747 726 l 671 718 l 671 688 l 712 688 q 717 683 717 688 l 717 524 q 715 521 717 521 l 717 516 l 717 412 l 737 412 q 743 425 737 425 l 747 425 q 752 412 752 425 l 765 412 q 770 425 765 425 l 775 425 q 785 412 782 412 q 795 408 795 412 l 795 361 l 920 361 q 924 357 924 361 l 924 5 q 920 0 924 0 l 39 0 q 34 5 34 0 l 34 253 q 39 258 35 258 l 130 258 l 130 399 q 135 405 131 405 l 208 405 q 214 399 214 404 l 214 202 l 227 202 l 227 460 l 249 460 q 259 463 254 460 l 264 460 q 267 463 267 460 l 279 460 l 335 460 l 335 678 q 340 683 336 683 l 355 683 l 355 726 q 360 731 356 731 l 373 731 l 373 797 q 388 804 373 801 q 391 873 391 851 l 391 886 q 406 890 391 890 l 406 962 q 411 966 407 966 l 414 966 q 418 962 418 966 l 418 890 q 429 883 429 890 l 431 802 l 446 802 l 446 731 l 459 731 q 464 726 464 730 l 464 688 q 484 681 464 683 l 484 471 l 557 471 l 557 683 q 563 688 558 688 l 608 688 l 608 718 l 563 718 q 557 724 557 718 l 557 751 q 573 756 557 756 l 573 893 q 557 898 557 893 l 557 928 q 563 934 558 934 l 606 934 q 611 939 611 934 l 611 972 q 616 977 612 977 m 613 890 l 613 852 l 679 852 q 702 876 702 852 q 667 896 702 896 l 618 896 q 613 890 613 895 m 613 812 l 613 759 l 686 759 q 709 784 703 759 q 684 812 703 812 l 613 812 m 631 718 l 631 688 l 646 688 l 646 718 l 631 718 m 373 643 l 370 630 l 376 627 l 386 627 l 386 643 l 373 643 m 401 637 l 401 633 q 406 627 401 627 l 416 627 l 416 643 l 406 643 q 401 637 401 642 m 436 643 l 436 627 l 446 627 q 452 633 452 627 q 449 643 449 637 l 436 643 m 598 640 l 598 91 l 603 91 l 603 635 q 598 640 603 640 m 616 635 l 616 91 l 621 91 l 621 640 q 616 635 616 640 m 633 640 l 633 91 l 639 91 l 639 640 l 633 640 m 651 635 l 651 91 l 659 91 l 656 96 l 656 367 q 659 377 656 372 q 656 387 656 381 l 659 387 l 656 392 l 656 458 q 659 460 656 460 l 656 465 l 656 640 q 651 635 651 640 m 671 640 l 669 635 l 669 91 l 677 91 l 677 635 q 671 640 677 640 m 686 635 l 686 91 l 692 91 q 694 96 692 96 l 692 101 l 692 114 q 694 121 692 121 l 692 134 l 692 326 q 694 339 692 335 l 692 354 l 692 488 q 694 498 692 494 q 692 509 692 503 l 692 640 q 686 635 686 640 m 581 637 l 581 91 l 585 91 l 585 637 l 581 637 m 370 612 l 370 600 l 386 600 l 386 612 l 370 612 m 401 607 l 401 600 l 416 600 l 416 612 l 406 612 q 401 607 401 612 m 436 612 l 436 600 l 449 600 l 449 612 l 436 612 m 370 587 l 370 574 l 386 574 l 386 587 l 370 587 m 401 582 l 401 574 l 416 574 l 416 587 l 406 587 q 401 582 401 586 m 436 587 l 436 574 l 449 574 l 449 587 l 436 587 m 370 562 l 370 549 l 386 549 l 386 562 l 370 562 m 401 562 l 401 549 l 416 549 l 416 562 l 401 562 m 436 562 l 436 549 l 446 549 l 452 551 q 449 562 449 556 l 436 562 m 370 534 l 370 521 l 386 521 l 386 534 l 370 534 m 401 534 l 401 521 l 416 521 l 416 534 l 401 534 m 436 534 l 436 521 l 449 521 l 449 534 l 436 534 m 370 498 l 370 486 l 386 486 l 386 498 l 370 498 m 401 498 l 401 486 l 416 486 l 416 498 l 401 498 m 436 498 l 436 486 l 449 486 l 449 498 l 436 498 m 370 468 l 370 456 l 386 456 l 386 468 q 380 471 380 468 q 370 468 376 468 m 401 468 l 401 460 q 406 456 401 456 l 416 456 l 416 471 q 401 468 412 468 m 436 468 l 436 456 l 449 456 l 449 468 l 436 468 m 370 443 l 370 430 l 386 430 l 386 443 l 370 443 m 401 443 l 401 435 q 406 430 401 430 l 416 430 l 416 443 l 401 443 m 436 443 l 436 430 l 449 430 l 449 443 l 436 443 m 370 420 l 370 405 l 380 405 q 386 410 386 405 l 386 420 l 370 420 m 401 415 l 401 410 q 406 405 401 405 l 416 405 l 416 420 l 406 420 q 401 415 401 419 m 436 420 l 436 405 l 449 405 l 449 420 l 436 420 m 370 390 l 370 377 l 386 377 l 386 390 l 370 390 m 401 390 l 401 382 q 406 377 401 377 l 416 377 l 416 390 l 401 390 m 436 390 l 436 377 l 449 377 l 449 390 l 436 390 m 370 359 l 370 347 q 378 344 378 347 q 386 347 383 347 l 386 359 l 370 359 m 401 354 l 401 347 q 416 344 412 347 l 416 359 l 406 359 q 401 354 401 359 m 436 359 l 436 347 l 449 347 l 449 359 l 436 359 m 806 339 l 806 326 l 818 326 l 818 339 l 806 339 m 833 339 l 833 326 l 846 326 l 846 339 l 833 339 m 864 339 l 864 326 l 874 326 l 874 339 l 864 339 m 889 339 l 889 326 l 902 326 l 902 339 l 889 339 m 370 329 l 370 316 l 386 316 l 386 329 l 370 329 m 401 329 l 401 321 q 406 316 401 316 l 416 316 l 416 329 l 401 329 m 436 329 l 436 316 l 449 316 l 449 329 l 436 329 m 806 306 l 806 296 l 818 296 l 818 311 l 810 311 q 806 306 806 311 m 864 311 l 864 296 l 874 296 q 876 304 874 304 q 874 311 874 309 l 864 311 m 889 306 l 889 301 q 894 296 890 296 l 902 296 l 902 311 l 894 311 q 889 306 889 311 m 833 309 l 833 296 l 846 296 l 846 309 l 833 309 m 370 298 l 370 291 l 386 291 l 386 304 l 376 304 q 370 298 370 303 m 401 298 l 401 291 l 416 291 l 416 304 l 406 304 q 401 298 401 303 m 436 304 l 436 291 l 449 291 l 449 304 l 436 304 m 806 283 l 806 271 l 818 271 l 818 283 l 806 283 m 833 283 l 833 271 l 846 271 l 846 283 l 833 283 m 864 283 l 864 271 l 874 271 l 874 283 l 864 283 m 889 283 l 889 271 l 902 271 l 902 283 l 889 283 m 370 278 l 370 266 l 386 266 l 386 278 l 370 278 m 401 278 l 401 271 q 406 266 401 266 l 416 266 l 416 278 l 401 278 m 436 278 l 436 266 l 449 266 l 449 278 l 436 278 m 806 258 l 806 245 l 818 245 l 818 258 l 806 258 m 833 258 l 833 245 l 846 245 l 846 258 l 833 258 m 864 258 l 864 245 l 874 245 l 874 258 l 864 258 m 889 258 l 889 245 l 902 245 l 902 258 l 889 258 m 370 250 l 370 238 l 386 238 l 386 250 l 370 250 m 401 250 l 401 243 q 406 238 401 238 l 416 238 l 416 250 l 401 250 m 436 250 l 436 238 l 449 238 l 449 250 l 436 250 m 47 238 l 47 228 l 57 228 l 57 238 l 47 238 m 69 238 l 69 228 l 79 228 l 79 238 l 69 238 m 92 238 l 92 228 l 102 228 l 102 238 l 92 238 m 115 238 l 115 228 l 125 228 l 125 238 l 115 238 m 806 230 l 806 218 l 818 218 l 818 230 l 806 230 m 833 230 l 833 218 l 846 218 l 846 230 l 833 230 m 864 230 l 864 218 l 874 218 l 874 230 l 864 230 m 889 230 l 889 218 l 902 218 l 902 230 l 889 230 m 47 215 l 47 205 l 57 205 l 57 215 l 47 215 m 69 215 l 69 205 l 79 205 l 79 215 l 69 215 m 92 215 l 92 205 l 102 205 l 102 215 l 92 215 m 115 215 l 115 205 l 125 205 l 125 215 l 115 215 m 370 215 l 370 202 l 386 202 l 386 215 l 370 215 m 401 215 l 401 202 l 416 202 l 416 215 l 401 215 m 436 215 l 436 202 l 449 202 l 449 215 l 436 215 m 47 195 l 47 184 l 57 184 l 57 195 l 47 195 m 69 195 l 69 184 l 79 184 l 79 190 q 75 195 79 195 l 69 195 m 92 195 l 92 184 l 102 184 l 102 190 q 97 195 102 195 l 92 195 m 115 195 l 115 184 l 125 184 l 125 190 q 120 195 125 195 l 115 195 m 806 195 l 806 182 q 818 180 814 182 l 818 195 l 806 195 m 833 195 l 833 182 l 846 182 l 846 195 l 833 195 m 864 195 l 864 180 q 874 182 868 182 l 874 195 l 864 195 m 889 195 l 889 182 q 894 180 894 182 q 902 182 899 182 l 902 195 l 889 195 m 370 182 l 370 172 l 380 172 q 386 177 386 172 l 386 182 q 380 187 386 187 l 376 187 q 370 182 370 186 m 401 182 l 401 177 q 406 172 401 172 l 416 172 l 416 187 l 406 187 q 401 182 401 186 m 436 187 l 436 172 l 449 172 l 449 187 l 436 187 m 47 174 l 47 164 l 57 164 l 57 174 l 47 174 m 69 174 l 69 164 l 79 164 l 79 174 l 69 174 m 92 174 l 92 164 l 102 164 l 102 174 l 92 174 m 115 174 l 115 164 l 125 164 l 125 174 l 115 174 m 806 164 l 806 152 l 818 152 l 818 164 l 806 164 m 833 164 l 833 152 l 846 152 l 846 164 l 833 164 m 864 164 l 864 152 l 874 152 l 874 164 l 864 164 m 889 164 l 889 152 l 902 152 l 902 164 l 889 164 m 370 159 l 370 146 l 386 146 l 386 159 l 370 159 m 401 159 l 401 146 l 416 146 l 416 159 l 401 159 m 436 159 l 436 146 l 449 146 l 449 159 l 436 159 m 47 152 l 47 142 l 57 142 l 57 152 l 47 152 m 69 152 l 69 142 l 79 142 l 79 152 l 69 152 m 92 152 l 92 142 l 102 142 l 102 152 l 92 152 m 115 152 l 115 142 l 125 142 l 125 146 q 120 152 125 152 l 115 152 m 806 139 l 806 127 l 818 127 l 818 139 l 806 139 m 833 139 l 833 127 l 846 127 l 846 139 l 833 139 m 864 139 l 864 127 l 874 127 l 874 139 l 864 139 m 889 139 l 889 127 l 902 127 l 902 139 l 889 139 m 370 136 l 370 124 l 383 121 l 386 127 l 386 136 l 370 136 m 401 132 l 401 127 q 406 121 401 121 l 416 121 l 416 136 l 406 136 q 401 132 401 136 m 436 136 l 436 127 q 441 121 437 121 q 449 124 446 124 l 449 136 l 436 136 m 47 121 l 47 111 l 57 111 l 57 121 l 47 121 m 69 121 l 69 111 l 79 111 l 79 121 l 69 121 m 92 121 l 92 111 l 102 111 l 102 121 l 92 121 m 115 121 l 115 111 l 125 111 l 125 121 l 115 121 m 806 114 l 806 101 l 818 101 l 818 114 l 806 114 m 833 114 l 833 101 l 846 101 l 846 114 l 833 114 m 861 114 q 864 101 864 110 l 874 101 l 874 114 l 861 114 m 889 114 l 889 101 l 902 101 l 902 114 l 889 114 m 370 106 l 370 94 l 386 94 l 386 106 l 370 106 m 401 106 l 401 98 q 406 94 401 94 l 416 94 l 416 106 l 401 106 m 436 106 l 436 94 l 449 94 l 449 106 l 436 106 m 47 98 l 47 89 l 57 89 l 57 98 l 47 98 m 69 98 l 69 89 l 79 89 l 79 98 l 69 98 m 92 98 l 92 89 l 102 89 l 102 98 l 92 98 m 115 98 l 115 89 l 125 89 l 125 98 l 115 98 m 806 86 l 806 73 l 818 73 l 818 86 l 806 86 m 833 86 l 833 73 l 846 73 l 846 86 l 833 86 m 864 86 l 864 73 l 874 73 l 874 86 l 864 86 m 889 86 l 889 73 l 902 73 l 902 86 l 889 86 m 47 79 l 47 71 q 52 66 47 66 q 57 71 57 66 l 57 79 l 47 79 m 69 79 l 69 66 l 75 66 q 79 71 79 66 l 79 73 q 75 79 79 79 l 69 79 m 92 79 l 92 66 l 97 66 q 102 71 102 66 l 102 79 l 92 79 m 115 79 l 115 66 l 120 66 q 125 71 125 66 l 125 73 q 120 79 125 79 l 115 79 m 47 58 l 47 48 l 57 48 l 57 58 l 47 58 m 69 58 l 69 48 l 79 48 l 79 58 l 69 58 m 92 58 l 92 48 l 102 48 l 102 58 l 92 58 m 115 58 l 115 48 l 125 48 l 125 58 l 115 58 m 47 33 l 47 23 l 57 23 l 57 35 l 54 35 q 47 33 50 33 m 69 35 l 69 23 l 72 23 q 79 25 77 25 l 79 31 q 75 35 79 35 l 69 35 m 92 35 l 92 23 l 102 23 l 102 35 l 92 35 m 115 35 l 115 23 l 120 23 q 125 28 125 23 l 125 31 q 120 35 125 35 l 115 35 z "},"c":{"ha":1019,"x_min":41,"x_max":958,"o":"m 123 970 l 147 970 q 153 965 153 969 l 153 908 l 174 908 l 174 965 q 180 970 176 970 l 204 970 q 210 965 210 969 l 210 908 q 306 838 292 908 l 309 823 q 276 759 309 776 q 319 682 319 733 q 316 662 316 665 q 564 764 437 764 l 591 764 q 867 633 743 764 q 958 404 958 519 l 958 362 q 832 97 958 221 q 572 0 720 0 q 349 77 458 0 q 197 372 197 201 l 197 395 q 264 600 197 500 l 261 600 q 207 590 243 590 l 204 590 l 204 543 q 199 538 204 538 l 174 538 q 170 543 170 538 l 170 590 l 150 590 l 150 543 q 145 538 150 538 l 117 538 q 113 543 113 538 l 113 590 l 45 590 q 41 595 41 590 l 41 640 q 45 645 41 645 l 63 645 l 63 848 l 45 848 q 41 853 41 848 l 41 903 q 45 908 41 908 l 117 908 l 117 965 q 123 970 119 970 m 123 848 l 123 789 l 222 789 q 252 826 252 789 q 224 848 243 848 l 123 848 m 123 729 l 123 650 l 237 650 q 261 687 261 664 q 227 729 254 729 l 123 729 m 509 677 q 515 652 515 654 q 457 518 469 518 l 373 461 l 400 404 l 406 404 q 452 446 422 446 q 547 365 482 446 q 562 286 562 298 l 482 97 l 485 97 q 569 82 524 82 l 591 82 q 768 146 675 82 l 768 305 q 675 377 675 348 l 671 414 q 768 491 671 477 q 790 494 777 494 l 812 494 q 862 481 831 494 l 862 484 q 814 566 849 526 l 795 566 q 753 516 760 566 q 738 509 743 509 q 688 528 707 509 l 688 553 q 693 558 689 558 l 720 558 l 720 573 q 690 590 690 586 q 747 630 723 630 q 723 648 747 633 l 718 648 q 703 635 704 635 q 701 637 701 635 l 696 635 l 659 635 q 641 652 654 635 q 653 675 650 671 q 576 684 618 682 q 509 677 545 682 m 283 452 q 276 382 276 404 q 400 139 276 237 l 403 139 l 403 216 q 338 286 403 229 q 355 382 351 363 l 283 452 z "},"d":{"ha":945,"x_min":41,"x_max":885,"o":"m 551 977 q 885 871 588 967 l 885 303 q 880 298 885 298 l 553 298 q 548 303 548 298 l 548 921 l 546 921 q 428 859 428 861 l 428 767 q 423 762 428 762 l 382 762 q 378 767 378 762 l 378 885 q 551 977 378 895 m 604 885 l 604 804 q 659 793 651 793 l 659 871 l 604 885 m 709 859 l 709 782 l 755 774 l 755 846 q 709 859 730 852 m 798 835 l 798 765 l 837 758 l 837 825 q 798 835 833 825 m 231 796 q 473 717 472 722 l 473 303 q 469 298 473 298 l 233 298 q 229 303 229 298 l 229 743 q 146 705 149 709 l 146 577 q 91 507 146 567 l 91 296 q 86 291 91 291 l 45 291 q 41 296 41 291 l 41 519 q 89 580 41 530 l 96 589 l 96 731 q 231 796 97 742 m 604 758 l 604 676 q 659 671 639 671 l 659 748 l 604 758 m 709 741 l 709 664 l 712 664 q 755 661 722 664 l 755 734 l 753 734 q 709 741 743 734 m 269 729 l 269 669 l 308 661 l 308 719 q 269 729 304 719 m 798 726 l 798 656 l 837 652 l 837 719 q 798 726 805 724 m 346 707 l 346 656 q 380 647 346 652 l 380 688 q 346 707 380 707 m 411 690 l 411 640 q 440 635 423 640 l 440 686 q 411 690 414 690 m 269 635 l 269 575 q 305 572 293 572 l 308 572 l 308 599 l 310 613 q 283 633 310 633 q 269 635 271 635 m 606 630 l 604 625 l 604 549 l 659 549 l 659 625 l 642 628 l 611 628 l 606 630 m 346 623 l 346 568 l 375 565 l 380 565 l 380 613 q 346 623 380 618 m 709 623 l 709 549 l 755 549 l 755 621 l 739 621 l 709 623 m 798 616 l 798 549 l 837 549 l 837 611 q 832 616 837 616 l 798 616 m 411 611 l 411 560 l 416 560 l 440 558 l 440 608 l 411 611 m 269 541 l 269 481 l 308 481 l 308 538 l 305 538 q 269 541 275 541 m 346 536 l 346 481 l 380 481 l 380 534 l 375 534 l 346 536 m 411 532 l 411 481 l 440 481 l 440 532 l 411 532 m 125 279 l 139 279 q 144 274 144 278 l 144 238 l 156 238 l 156 274 l 159 279 q 180 272 180 277 l 180 238 l 185 238 q 245 185 245 232 l 245 183 q 226 140 245 160 q 252 92 244 140 q 195 34 237 34 l 178 34 l 178 5 q 173 0 178 0 l 159 0 q 154 5 154 0 l 154 34 l 142 34 l 142 5 q 137 0 142 0 l 123 0 q 117 5 117 0 l 117 34 l 77 34 q 72 39 72 34 l 72 67 l 86 70 l 86 195 l 72 204 l 72 233 q 77 238 73 238 l 120 238 l 120 274 q 125 279 121 279 m 387 238 q 476 34 398 230 l 471 31 l 440 31 q 416 79 436 31 l 327 79 q 305 31 327 64 l 274 31 q 269 36 269 31 q 356 238 342 211 l 387 238 m 507 238 l 538 238 l 633 106 l 633 233 q 637 238 633 238 l 664 238 q 669 233 669 237 l 669 36 q 664 31 669 31 l 640 31 q 543 166 628 40 l 541 166 l 541 36 q 536 31 541 31 l 507 31 q 503 36 503 31 l 503 60 q 505 67 503 67 l 503 79 l 503 233 q 507 238 503 238 m 709 238 l 739 238 q 743 233 743 237 l 743 154 q 815 238 745 154 l 856 238 q 861 233 861 237 l 808 171 q 873 34 873 39 l 868 31 l 837 31 q 781 137 829 34 q 743 89 779 137 l 743 36 q 739 31 743 31 l 709 31 q 705 36 705 31 l 705 233 q 709 238 705 238 m 125 199 l 125 161 l 187 161 q 207 180 207 161 l 207 183 q 190 199 207 199 l 125 199 m 370 180 l 346 118 l 399 118 l 375 180 l 370 180 m 125 123 l 125 70 l 178 70 q 214 98 214 70 q 187 123 214 123 l 125 123 z "},"e":{"ha":1371,"x_min":34,"x_max":1329,"o":"m 306 970 q 501 857 407 970 l 507 857 q 667 881 581 881 l 738 881 q 1175 668 998 881 q 1234 503 1234 576 l 1234 479 q 1329 266 1329 359 l 1317 266 q 1228 414 1317 324 q 1080 189 1228 327 l 1080 53 q 1027 0 1073 0 l 886 0 q 838 83 838 0 l 838 89 q 696 71 808 78 q 560 89 594 77 q 507 0 560 0 l 365 0 q 312 65 312 0 l 312 189 q 235 272 244 256 q 134 243 157 243 q 52 420 91 243 q 34 473 42 420 q 164 544 34 507 q 323 774 164 630 q 282 899 282 833 l 282 935 q 306 970 282 970 m 690 828 l 690 810 q 702 781 692 781 q 1045 663 914 781 q 1080 704 1045 665 q 714 833 917 833 q 690 828 703 828 m 643 656 l 643 615 q 631 603 643 603 l 578 603 l 578 568 l 608 568 q 619 556 619 566 l 619 319 q 608 307 619 307 l 578 307 l 578 266 l 631 266 q 643 254 643 264 l 643 219 l 678 219 l 678 254 q 690 266 680 266 l 720 266 q 732 254 732 264 l 732 219 l 767 219 l 767 254 q 867 290 767 264 q 903 361 903 323 l 903 372 q 850 437 889 437 l 850 444 q 891 520 889 483 q 767 609 891 584 l 767 656 l 743 656 q 726 603 733 656 l 690 603 q 673 656 680 603 l 643 656 m 277 591 l 277 580 l 282 580 q 300 609 284 609 l 312 609 q 330 591 320 609 l 330 574 l 306 550 l 312 550 q 359 597 359 556 q 330 633 351 622 l 318 633 q 277 591 277 633 m 708 568 l 726 568 q 814 515 814 568 l 814 509 q 767 461 814 461 l 708 461 q 696 473 696 461 l 696 556 q 708 568 698 568 m 708 426 l 720 426 q 832 361 832 426 q 762 307 832 315 l 708 307 q 696 319 696 307 l 696 414 q 708 426 698 426 z "},"f":{"ha":945,"x_min":27,"x_max":892,"o":"m 504 966 q 886 840 841 949 q 892 808 892 829 l 892 706 q 472 553 892 577 l 460 553 q 27 687 118 553 l 27 808 q 409 966 27 943 l 504 966 m 65 808 q 466 706 172 706 q 854 820 854 732 q 485 928 770 928 l 421 928 q 65 808 65 905 m 307 897 l 351 897 q 364 878 364 897 l 440 878 q 453 897 440 897 l 498 897 q 511 878 511 897 l 568 878 q 701 846 701 872 q 656 827 677 827 l 656 820 q 726 795 726 815 q 587 763 726 769 l 511 763 q 498 744 511 744 l 453 744 q 440 763 440 744 l 377 763 l 351 744 l 307 744 q 294 763 294 744 q 269 757 280 763 l 256 763 q 250 757 250 763 q 193 763 226 763 q 205 776 195 776 l 256 776 l 256 852 q 243 865 256 865 l 199 865 l 199 878 l 281 878 l 307 897 m 396 865 l 396 833 l 523 833 q 574 852 570 833 q 396 865 464 865 m 396 814 l 396 782 l 530 782 l 593 789 l 593 801 q 472 814 543 814 l 396 814 m 72 763 l 72 655 q 123 629 79 655 q 129 661 123 650 l 123 699 l 129 731 q 72 763 121 738 m 758 725 l 758 616 q 809 642 793 616 l 809 744 q 758 725 777 725 m 155 725 l 155 623 q 212 597 155 612 l 212 706 q 155 725 200 706 m 237 699 l 243 623 l 237 591 l 294 585 l 294 693 l 281 693 l 237 699 m 27 642 l 40 642 q 440 522 131 522 l 479 522 q 886 642 774 522 l 892 642 l 892 534 q 466 369 892 394 q 27 515 61 389 l 27 642 m 72 585 l 72 484 q 123 452 72 467 l 123 559 q 72 585 107 559 m 758 534 l 758 433 q 809 452 801 452 l 809 559 l 803 559 q 758 534 758 545 m 155 541 l 155 433 q 212 420 159 433 l 212 528 l 155 541 m 237 515 l 243 503 l 243 484 q 237 426 243 460 q 294 401 237 404 l 294 509 l 250 515 l 237 515 m 27 458 l 40 458 q 415 337 77 359 l 491 337 q 879 458 788 337 l 892 458 l 892 337 q 460 184 892 210 q 27 331 99 184 l 27 458 m 72 394 l 72 299 q 123 260 72 289 l 123 362 q 78 394 123 370 l 72 394 m 758 356 l 758 248 l 765 248 l 816 273 l 809 286 l 809 375 l 803 375 q 758 356 771 356 m 155 356 l 155 248 q 212 235 195 235 l 212 331 q 155 356 212 343 m 237 331 q 243 324 237 324 l 237 292 l 243 280 q 237 254 237 269 q 294 216 237 216 l 294 324 l 237 331 m 27 273 l 40 273 q 440 146 40 184 l 460 146 q 879 273 850 172 l 892 273 l 892 153 q 460 0 892 24 q 27 153 27 24 l 27 273 m 72 210 l 72 102 q 129 77 121 77 l 123 89 l 123 178 q 78 210 123 186 l 72 210 m 758 172 l 758 64 q 809 89 809 75 l 809 191 q 758 172 777 172 m 155 172 l 155 70 q 212 51 155 55 l 212 146 q 155 172 212 156 m 237 146 l 237 140 l 243 108 l 237 108 l 243 96 l 243 51 l 237 38 l 294 32 l 294 140 l 237 146 z "},"g":{"ha":686,"x_min":34,"x_max":646,"o":"m 34 977 l 207 977 q 414 627 227 963 l 404 621 l 236 621 q 34 977 128 793 m 448 977 l 646 977 q 438 627 646 955 l 433 627 l 335 804 q 448 977 424 953 m 325 597 l 364 597 q 621 404 527 597 q 641 296 641 357 q 433 15 641 100 q 349 0 394 0 l 345 0 q 54 212 137 0 q 44 271 44 246 l 44 326 q 251 587 44 492 q 325 597 297 597 m 83 306 l 83 291 q 295 44 83 104 q 345 39 321 39 q 591 232 517 39 q 601 301 601 286 q 394 553 601 484 q 345 557 368 557 l 335 557 q 108 410 188 557 q 83 306 83 362 m 335 538 q 566 365 502 538 q 576 311 576 346 l 576 296 q 379 64 576 123 l 335 64 q 108 247 174 64 q 103 301 108 257 q 300 532 103 472 q 335 538 315 532 m 266 464 l 266 434 q 256 424 266 424 l 221 424 l 221 395 q 246 385 246 395 l 246 202 l 221 202 l 221 173 l 256 173 q 266 163 266 171 l 266 138 l 290 138 l 290 163 q 300 173 292 173 l 325 173 q 335 163 335 171 l 335 138 l 359 138 l 359 163 q 429 187 359 173 q 463 241 463 213 l 463 247 q 424 306 463 275 q 448 350 448 332 l 448 365 q 359 429 448 410 l 359 464 l 345 464 q 330 424 335 464 l 300 424 q 290 434 290 424 l 290 464 l 266 464 m 305 395 l 355 395 q 399 360 385 395 q 355 315 393 315 l 315 315 q 305 326 305 315 l 305 395 m 315 291 l 355 291 q 409 241 409 281 q 349 202 394 202 l 315 202 q 305 212 305 202 l 305 281 q 315 291 307 291 z "},"h":{"ha":1142,"x_min":41,"x_max":1083,"o":"m 565 970 q 910 781 743 818 l 910 686 q 565 156 903 292 q 280 396 390 217 q 219 652 219 531 l 219 774 q 375 836 220 783 q 565 970 473 895 m 302 708 q 565 251 302 372 l 570 251 q 821 674 821 387 l 821 719 q 565 852 730 736 l 559 852 q 302 713 355 713 l 302 708 m 470 747 l 503 747 l 503 708 l 559 708 l 559 747 l 593 747 l 593 713 q 654 691 593 705 q 699 630 687 669 q 665 563 699 600 l 665 557 q 709 490 699 557 l 709 485 q 621 407 709 424 l 593 407 l 593 374 q 581 362 593 362 l 570 362 q 553 407 559 362 l 515 407 q 498 362 503 407 l 481 362 q 470 374 470 362 l 470 407 l 425 407 q 414 418 414 407 l 414 435 q 425 446 416 446 l 453 446 l 453 658 l 448 669 l 437 663 l 431 663 q 414 680 422 663 l 414 691 q 431 708 414 699 l 470 708 l 470 747 m 102 680 q 130 596 130 648 q 108 552 124 552 q 80 618 80 583 l 80 630 q 102 680 80 673 m 1027 680 q 1050 618 1044 680 q 1016 552 1031 553 q 994 602 1004 552 q 1027 680 994 645 m 526 663 l 526 591 q 536 580 528 580 l 581 580 q 626 624 626 580 q 565 669 626 659 l 553 663 l 548 663 q 543 669 543 663 q 526 663 532 663 m 169 602 l 180 585 q 136 502 161 502 l 130 502 q 119 513 119 502 l 119 518 q 169 602 119 575 m 949 596 l 966 596 q 1005 535 1005 569 l 1005 502 l 994 502 q 949 568 949 533 l 949 596 m 52 585 q 113 513 113 558 l 113 507 l 108 496 q 41 580 41 519 l 52 585 m 1078 585 l 1083 574 l 1083 568 q 1016 496 1063 496 l 1010 507 q 1078 585 1010 561 m 526 541 l 526 446 l 576 446 q 637 479 619 446 l 637 490 q 581 541 637 533 l 526 541 m 174 524 q 191 490 186 524 q 152 418 173 418 q 141 429 141 418 l 141 468 q 174 524 141 501 m 949 524 q 988 452 988 500 l 988 435 q 971 418 988 427 q 938 479 938 454 l 938 513 q 949 524 940 524 m 63 490 q 136 418 136 472 l 136 412 l 124 412 q 52 485 75 412 l 63 490 m 1066 490 q 1072 474 1072 479 q 994 412 1048 412 l 988 424 q 1066 490 1017 490 m 197 452 q 214 407 214 448 q 180 340 214 359 l 174 340 l 169 379 l 169 401 q 197 452 180 452 m 932 452 q 960 385 960 420 l 960 379 q 938 340 960 349 q 916 390 916 374 l 916 418 q 932 452 919 452 m 91 396 l 96 396 q 169 334 169 386 l 158 329 q 80 390 80 348 l 91 396 m 1021 396 l 1033 396 q 1044 385 1044 394 l 1044 379 q 966 329 1017 329 q 955 340 955 329 q 1021 396 979 396 m 905 385 q 922 340 922 357 l 922 323 q 910 273 922 309 l 899 273 q 877 334 882 273 q 905 385 889 385 m 224 379 l 236 379 l 247 340 l 247 312 q 224 273 247 282 q 202 323 210 273 q 224 379 209 379 m 258 317 l 275 317 l 297 256 l 286 212 l 275 212 q 247 279 247 237 l 258 317 m 860 317 q 877 284 877 312 l 877 267 q 849 206 877 226 q 832 256 832 228 q 860 317 841 317 m 136 312 l 141 312 q 214 273 189 312 l 214 256 l 180 256 q 119 301 141 256 l 136 312 m 977 312 l 994 312 q 1005 301 1005 311 l 1005 296 q 949 256 980 256 l 922 256 q 910 267 910 256 q 977 312 942 312 m 314 262 q 353 189 334 262 l 347 156 l 336 156 q 302 212 302 179 l 302 251 q 314 262 304 262 m 815 262 l 827 245 l 827 229 q 782 161 827 161 q 777 184 777 172 l 777 189 q 815 262 777 238 m 186 234 l 219 234 q 269 201 250 234 q 236 184 264 184 q 169 223 191 184 l 186 234 m 910 234 l 938 234 q 955 218 946 234 q 882 184 937 184 q 854 206 857 195 q 910 234 886 234 m 364 218 q 414 145 414 189 l 414 123 q 403 111 414 111 q 358 189 358 139 l 358 206 l 364 218 m 760 218 l 765 218 q 771 195 765 205 q 721 111 771 140 l 715 123 l 715 145 q 760 218 715 190 m 431 178 q 486 89 486 149 l 475 83 l 470 83 q 420 168 420 113 q 431 178 421 178 m 704 178 l 709 168 q 648 83 690 83 l 643 95 q 704 178 659 178 m 286 173 q 336 151 297 173 l 336 145 q 292 123 336 130 l 280 123 q 230 151 230 134 q 286 173 230 166 m 854 173 q 893 151 893 165 q 838 123 881 123 q 793 145 808 123 q 854 173 793 164 m 486 151 l 492 151 q 559 78 540 151 q 543 67 559 67 q 486 134 486 91 l 486 151 m 637 151 l 643 139 q 576 67 623 67 l 570 67 l 570 83 q 637 151 585 151 m 364 123 q 403 100 403 109 q 353 73 403 83 l 336 73 q 302 89 307 73 l 302 100 q 364 123 347 123 m 771 123 q 827 89 827 107 q 787 73 806 73 l 771 73 q 726 100 741 73 q 771 123 726 117 m 437 83 l 448 83 l 475 78 l 475 67 q 414 28 446 28 q 380 45 380 35 l 380 50 q 437 83 407 83 m 682 83 l 687 83 q 749 45 722 83 q 715 28 749 35 q 648 67 674 28 q 682 83 654 83 m 526 61 l 553 61 l 553 45 q 475 0 532 0 l 465 17 q 526 61 486 61 m 581 61 l 593 61 q 665 11 644 61 l 648 0 q 570 56 570 11 l 581 61 z "},"i":{"ha":1081,"x_min":47,"x_max":1005,"o":"m 900 970 l 906 958 l 906 729 q 894 717 906 717 l 653 717 l 653 723 l 721 797 l 721 803 q 554 852 618 852 l 505 852 q 159 568 262 852 q 146 475 146 509 q 387 130 146 251 q 511 105 449 105 l 523 105 l 529 43 l 529 24 l 523 12 q 529 6 529 12 l 517 0 l 492 0 q 79 309 224 0 q 47 469 47 378 l 47 519 q 344 926 47 774 q 492 958 435 958 l 542 958 q 795 877 676 958 l 801 877 l 900 970 m 529 723 q 758 500 758 684 l 758 457 q 566 253 758 318 q 523 247 531 253 q 288 481 288 288 l 288 494 q 467 717 288 652 q 529 723 500 723 m 319 488 q 523 284 351 284 q 727 488 727 311 q 572 686 727 630 q 529 692 554 686 q 319 513 372 692 l 319 488 m 529 673 q 709 507 709 640 l 709 463 q 548 302 667 302 l 517 302 q 338 488 363 302 q 529 673 338 651 m 962 673 l 968 673 l 999 562 q 900 537 984 552 q 869 636 869 628 q 962 673 943 673 m 467 612 q 431 587 467 587 l 431 562 q 455 500 452 562 l 449 469 l 449 420 q 431 408 449 408 l 431 389 q 467 358 467 389 l 486 358 q 498 389 486 389 l 511 389 q 523 358 523 389 l 542 358 q 591 401 542 392 q 622 445 610 406 q 591 494 618 463 l 610 519 l 610 531 q 542 587 610 576 l 542 612 l 523 612 q 511 587 523 587 l 498 587 q 486 612 486 587 l 467 612 m 511 562 l 529 562 q 566 544 566 558 l 566 519 q 529 500 560 500 l 511 500 q 498 513 498 500 l 498 550 q 511 562 500 562 m 511 481 l 529 481 q 578 433 578 481 q 517 408 553 408 l 511 408 q 498 420 498 408 l 498 469 q 511 481 500 481 m 906 445 q 1005 426 982 437 q 968 309 989 323 q 882 346 884 342 q 906 445 894 428 m 832 260 q 912 197 902 216 q 832 111 912 182 l 826 111 q 764 185 816 113 l 832 260 m 677 136 q 721 43 696 109 q 604 6 649 6 q 585 105 591 33 q 677 136 589 105 z "},"j":{"ha":1071,"x_min":47,"x_max":1023,"o":"m 262 970 l 318 970 l 318 876 q 306 863 318 863 l 262 863 q 249 876 249 863 l 249 957 q 262 970 251 970 m 375 970 l 444 970 l 438 939 l 438 876 q 425 863 438 863 l 387 863 q 375 876 375 863 l 375 970 m 513 970 l 564 970 l 570 939 l 570 876 q 557 863 570 863 l 513 863 q 501 876 501 863 l 501 957 q 513 970 503 970 m 640 970 l 690 970 l 690 876 q 677 863 690 863 l 640 863 q 627 876 627 863 l 627 957 q 640 970 629 970 m 753 970 l 803 970 q 816 957 816 968 l 816 876 q 803 863 816 863 l 766 863 q 753 876 753 863 l 753 970 m 255 838 l 822 838 q 885 774 885 825 l 885 195 q 810 132 885 138 l 249 132 q 180 201 180 142 l 180 762 q 255 838 180 838 m 60 768 l 142 768 q 155 755 155 766 l 155 718 q 142 705 155 705 l 60 705 q 47 718 47 705 l 47 755 q 60 768 50 768 m 923 768 l 1011 768 q 1023 755 1023 766 l 1023 705 l 923 705 q 910 718 910 705 l 910 755 q 923 768 912 768 m 268 755 l 262 724 l 262 227 q 274 214 264 214 l 791 214 q 803 227 803 214 l 803 755 l 268 755 m 331 699 l 734 699 q 747 686 747 697 l 747 283 q 734 271 747 271 l 331 271 q 318 283 318 271 l 318 686 q 331 699 320 699 m 60 642 l 142 642 q 155 630 155 640 l 155 592 q 142 579 155 579 l 60 579 q 47 592 47 579 l 47 630 q 60 642 50 642 m 923 642 l 1011 642 q 1023 630 1023 640 l 1023 592 q 1011 579 1023 579 l 923 579 q 910 592 910 579 l 910 630 q 923 642 912 642 m 400 504 l 400 479 q 538 353 400 368 q 665 472 665 374 l 665 498 q 545 617 642 617 l 519 617 q 400 504 433 617 m 494 586 q 507 567 507 586 l 526 567 q 538 586 526 586 l 602 535 l 602 510 l 589 491 l 608 466 l 608 454 q 551 403 608 412 q 538 384 551 384 q 526 403 526 384 l 507 403 q 494 384 507 384 l 457 416 q 475 428 457 428 l 475 542 q 457 554 457 542 l 494 586 m 513 542 l 513 510 q 526 498 515 498 l 545 498 q 564 516 554 498 l 564 523 q 545 542 564 532 l 513 542 m 60 516 l 155 516 l 155 466 q 142 454 155 454 l 60 454 q 47 466 47 454 l 47 504 q 60 516 50 516 m 910 516 l 1023 516 l 1023 466 q 1011 454 1023 454 l 923 454 q 910 466 910 454 l 910 516 m 513 466 l 513 441 q 526 428 515 428 l 532 428 q 570 447 565 428 l 570 460 q 532 479 564 479 l 526 479 q 513 466 513 477 m 60 391 l 142 391 q 155 378 155 389 l 155 340 q 142 328 155 328 l 60 328 q 47 340 47 328 l 47 378 q 60 391 50 391 m 923 391 l 1023 391 l 1023 340 q 1011 328 1023 328 l 923 328 q 910 340 910 328 l 910 378 q 923 391 912 391 m 60 271 l 123 271 l 155 264 l 155 214 q 142 201 155 201 l 60 201 q 47 214 47 201 l 47 258 q 60 271 50 271 m 923 271 l 1011 271 q 1023 258 1023 269 l 1023 214 q 1011 201 1023 201 l 923 201 q 910 214 910 201 l 910 258 q 923 271 912 271 m 262 107 l 306 107 q 318 94 318 105 l 318 13 q 306 0 318 0 l 262 0 q 249 13 249 0 l 249 94 q 262 107 251 107 m 387 107 l 438 107 l 438 13 q 425 0 438 0 l 387 0 q 375 13 375 0 l 375 94 q 387 107 377 107 m 513 107 l 557 107 q 570 94 570 105 q 564 88 570 88 l 570 75 l 570 25 l 564 13 q 570 6 570 13 l 557 0 l 513 0 q 501 13 501 0 l 501 94 q 513 107 503 107 m 640 107 l 677 107 q 690 94 690 105 l 690 13 q 677 0 690 0 l 640 0 q 627 13 627 0 l 627 94 q 640 107 629 107 m 766 107 l 803 107 q 816 94 816 105 l 816 13 q 803 0 816 0 l 766 0 q 753 13 753 0 l 753 94 q 766 107 755 107 z "},"k":{"ha":1139,"x_min":41,"x_max":1078,"o":"m 583 973 l 588 973 q 692 905 656 973 q 703 862 703 882 l 703 851 q 650 760 703 798 q 585 740 621 740 q 480 808 517 740 q 469 857 469 835 q 532 960 469 922 q 583 973 557 973 m 475 701 l 498 701 q 586 665 505 701 q 675 701 669 701 l 699 701 q 796 636 760 701 q 808 574 808 613 l 808 475 q 806 473 808 473 l 747 473 q 744 475 744 473 l 744 602 q 722 631 744 631 l 448 631 q 428 604 431 631 l 428 475 q 426 473 428 473 l 366 473 q 364 475 364 473 l 364 574 q 440 696 364 664 q 475 701 460 701 m 223 564 l 309 564 l 311 563 q 298 473 301 473 l 235 473 q 228 511 230 473 q 221 563 227 511 l 223 564 m 585 564 l 588 564 q 609 543 609 560 l 609 539 q 588 519 605 519 l 585 519 q 564 539 564 522 l 564 543 q 585 564 567 564 m 43 452 l 1076 452 q 1078 449 1078 451 l 1078 362 q 1076 360 1078 360 l 1010 360 l 1010 2 q 1008 0 1010 0 l 110 0 q 108 2 108 0 l 108 360 l 43 360 q 41 362 41 360 l 41 449 q 43 452 41 452 m 533 383 l 533 337 q 530 334 533 334 l 473 334 l 473 305 l 491 305 q 512 288 512 305 l 512 164 q 502 151 512 151 l 481 151 q 473 117 479 151 l 530 117 q 533 115 533 117 l 533 68 l 560 68 l 560 113 q 562 115 561 115 l 583 115 q 585 113 585 115 l 585 68 l 613 68 l 613 115 q 616 117 613 117 q 696 157 680 119 q 701 187 701 174 q 661 237 701 226 l 661 239 q 685 279 685 251 q 646 329 685 316 q 613 336 634 332 l 613 383 l 585 383 l 585 337 l 578 336 l 578 337 l 576 336 l 562 336 l 560 349 l 560 367 q 562 368 560 368 l 560 370 l 560 373 l 562 380 q 560 383 560 382 l 533 383 m 564 302 l 579 302 q 631 273 631 302 q 569 243 631 243 l 564 243 q 562 245 562 243 l 562 300 q 564 302 562 302 m 579 216 q 644 182 644 216 q 572 150 644 150 l 562 151 l 562 212 q 579 216 562 215 z "},"l":{"ha":1091,"x_min":41,"x_max":1030,"o":"m 450 966 q 513 913 495 966 q 515 897 515 907 q 456 831 515 847 l 445 831 q 383 879 402 831 q 380 901 380 886 q 432 965 380 946 q 450 966 444 966 m 627 966 q 690 914 671 966 q 692 898 692 906 l 692 897 q 645 835 692 854 q 632 831 639 831 l 624 831 q 559 882 578 831 q 557 900 557 893 q 611 965 557 947 q 627 966 619 966 m 208 798 l 859 798 q 918 757 896 798 q 999 646 999 657 q 1000 635 1000 644 l 1000 632 q 962 593 992 593 l 954 593 q 893 648 930 593 l 845 710 l 226 710 q 135 597 147 608 q 117 593 122 593 l 106 593 q 72 624 85 593 q 70 638 70 630 l 70 640 q 132 731 70 656 q 193 796 178 796 q 208 798 202 798 m 250 659 l 821 659 q 1030 271 831 644 q 978 153 1023 214 q 541 0 848 0 l 530 0 q 81 169 204 0 q 41 271 41 237 q 250 659 229 625 m 474 568 l 474 513 q 471 510 474 510 l 382 510 l 382 453 q 385 450 382 450 l 411 450 l 411 242 l 382 242 l 382 185 l 471 185 q 474 182 474 184 l 474 128 l 507 128 l 507 182 q 510 185 507 185 l 530 185 q 533 182 533 184 l 533 128 l 567 128 l 567 182 q 570 185 568 185 l 601 185 q 686 255 663 185 l 689 281 q 632 361 689 326 l 632 362 q 673 419 673 382 l 673 439 q 614 503 673 484 q 576 510 599 510 l 570 510 q 567 513 567 510 l 567 568 l 533 568 l 533 513 q 530 510 533 510 l 510 510 q 507 513 507 510 l 507 568 l 474 568 m 507 447 l 544 447 q 570 416 564 447 q 541 377 570 377 l 510 377 q 507 380 507 377 l 507 447 m 510 326 l 538 326 q 582 300 576 326 q 585 284 585 300 q 554 242 585 247 l 510 242 q 507 245 507 242 l 507 278 q 509 279 507 279 l 507 283 l 507 323 q 510 326 507 326 z "},"m":{"ha":1064,"x_min":47,"x_max":1017,"o":"m 531 970 q 854 847 711 970 q 944 741 924 781 q 1017 496 1017 621 l 1017 474 q 901 170 1017 311 q 804 82 842 105 q 544 0 676 0 l 518 0 q 262 81 392 0 q 178 154 227 105 q 113 241 136 202 q 49 471 49 359 l 49 479 q 47 484 49 481 q 49 488 49 485 l 49 498 q 150 783 49 644 q 241 872 211 852 q 531 970 376 970 m 397 863 l 397 757 q 395 755 397 755 l 266 755 l 266 646 l 336 646 q 351 639 351 644 l 351 344 q 348 342 351 342 l 281 342 l 281 340 l 262 224 l 395 224 q 397 222 397 223 l 397 115 l 502 115 l 502 216 q 503 217 502 217 l 502 219 q 504 222 502 222 l 513 222 q 515 219 515 221 l 515 115 l 620 115 l 620 222 q 662 229 620 225 q 755 264 720 241 q 817 402 817 309 q 747 520 817 486 l 747 522 q 779 610 779 557 q 677 741 779 709 q 620 753 662 747 l 620 863 l 515 863 l 515 760 q 513 758 515 758 l 504 758 q 502 760 502 758 l 502 863 l 397 863 m 416 850 l 416 848 l 418 850 l 486 850 q 488 847 488 849 l 488 744 q 528 745 519 745 l 528 846 q 532 850 528 848 l 604 850 q 606 847 606 849 l 606 741 q 699 720 665 735 q 766 608 766 686 q 719 517 766 551 q 789 465 769 500 q 804 399 804 434 q 715 258 804 295 q 606 237 652 237 l 606 129 l 531 129 q 528 132 528 129 l 528 234 q 526 236 528 236 l 518 236 q 515 235 515 236 l 509 236 l 488 236 l 488 132 q 486 129 488 129 l 410 129 l 410 237 l 279 237 l 279 238 q 294 328 292 328 l 296 328 q 337 328 305 328 q 340 328 339 328 q 345 328 342 328 q 365 351 365 328 l 365 633 q 336 659 365 659 l 281 659 q 279 661 279 659 l 279 739 q 281 741 279 741 l 410 741 l 410 848 l 416 850 m 426 834 l 426 729 q 424 727 426 727 l 294 727 l 294 676 q 296 673 294 673 l 338 673 q 376 650 364 673 q 379 633 379 643 l 379 349 q 337 313 379 313 l 320 313 l 313 314 q 310 313 311 313 l 310 314 q 301 285 303 314 q 296 252 300 284 l 424 252 q 426 250 426 252 l 426 144 l 474 144 l 474 248 q 476 250 474 250 l 518 250 q 543 250 526 250 l 543 144 l 592 144 l 592 250 q 696 267 667 256 q 789 401 789 296 q 761 477 789 448 q 686 512 737 499 l 686 515 q 734 552 714 528 q 751 609 751 576 q 662 717 751 692 q 593 728 637 724 l 592 730 l 592 834 l 543 834 l 543 732 q 541 730 543 730 q 475 729 497 729 l 474 732 l 474 834 l 426 834 m 525 670 q 637 630 610 670 q 646 595 646 612 l 644 595 q 646 595 644 595 q 561 524 646 538 q 517 522 537 522 l 478 522 q 476 524 476 522 l 476 667 q 478 669 477 669 q 525 670 496 669 m 490 654 l 490 536 l 517 536 q 631 595 631 536 q 522 656 631 656 q 490 654 508 654 m 506 642 l 531 642 q 614 611 600 642 q 616 602 616 607 l 616 590 q 506 550 616 550 q 504 552 504 550 l 504 639 q 506 642 505 642 m 528 474 q 675 392 675 474 q 615 324 675 344 q 530 313 579 313 l 478 313 q 476 315 476 313 l 476 471 q 478 473 477 473 l 484 473 q 528 474 510 473 m 511 458 l 490 458 l 490 328 l 528 328 q 661 393 661 328 q 530 460 661 460 q 511 458 521 458 m 506 446 l 535 446 q 648 393 648 446 q 522 340 648 340 l 506 340 q 504 343 504 340 l 504 443 q 506 446 505 446 z "},"n":{"ha":1061,"x_min":41,"x_max":1010,"o":"m 129 970 l 922 970 q 1010 882 1010 955 l 1010 88 q 922 0 996 0 l 129 0 q 41 88 41 15 l 41 882 q 129 970 56 970 m 383 825 l 383 762 q 372 752 383 752 l 342 752 l 342 243 l 372 243 q 383 233 383 242 l 383 171 l 445 171 l 445 233 q 456 243 447 243 l 544 243 q 554 233 554 242 l 554 171 l 621 171 l 621 243 q 704 308 688 263 q 720 374 720 352 l 720 399 q 648 498 692 498 l 648 503 q 715 607 715 555 q 621 742 715 701 l 621 825 l 554 825 l 554 762 q 544 752 554 752 l 456 752 q 445 762 445 752 l 445 825 l 383 825 m 456 664 l 538 664 q 606 596 606 664 q 528 534 606 543 l 456 534 q 445 545 445 534 l 445 654 q 456 664 447 664 m 456 462 l 554 462 q 616 384 608 462 q 533 316 616 328 l 456 316 q 445 327 445 316 l 445 451 q 456 462 447 462 z "},"o":{"ha":822,"x_min":47,"x_max":758,"o":"m 220 973 l 227 973 q 322 943 314 943 q 406 967 370 967 q 484 943 433 967 q 585 973 488 943 q 591 967 585 967 q 519 794 549 882 q 531 758 531 774 l 531 752 l 525 722 q 746 430 663 655 q 758 322 758 347 q 489 12 758 102 l 406 0 q 71 221 177 0 q 47 328 54 264 q 256 711 47 534 l 280 722 q 275 770 275 755 l 286 794 l 220 973 m 328 907 q 275 920 283 920 q 316 806 316 833 l 489 806 q 531 920 502 854 l 525 920 q 477 907 487 907 q 418 931 435 931 l 399 931 q 328 907 370 931 m 310 770 l 310 752 q 322 741 312 741 l 484 741 q 501 758 492 741 q 489 770 501 770 l 310 770 m 83 322 q 316 47 83 131 q 406 36 359 36 q 710 251 627 36 q 722 317 722 274 l 722 340 q 525 686 722 528 q 465 711 486 711 l 340 711 q 137 519 255 711 q 83 322 83 418 m 364 579 l 376 579 q 388 549 388 579 l 418 549 q 429 579 418 579 l 441 579 q 484 543 460 543 q 531 460 531 513 l 531 436 q 501 370 531 413 q 549 281 535 370 q 454 161 549 161 q 441 132 454 132 l 429 132 q 418 161 418 132 l 388 161 q 376 132 388 132 l 364 132 q 352 143 352 132 l 352 149 l 358 161 l 286 161 q 275 173 275 161 l 275 185 q 304 197 275 197 l 304 513 q 275 526 275 513 l 275 537 q 286 549 276 549 l 358 549 l 352 562 l 352 567 q 364 579 354 579 m 340 513 l 340 197 l 459 197 q 513 262 513 197 l 513 292 q 454 364 513 334 l 454 376 q 501 454 501 414 q 454 513 501 509 l 340 513 m 382 502 l 418 502 q 465 471 450 502 l 465 448 q 424 406 465 406 l 382 406 q 370 418 370 406 l 370 490 q 382 502 372 502 m 406 466 l 406 436 l 424 436 q 435 448 435 436 l 435 454 q 424 466 435 466 l 406 466 m 382 340 l 424 340 q 484 281 484 328 l 484 269 q 406 209 484 216 l 382 209 q 370 221 370 209 l 370 328 q 382 340 372 340 m 406 311 l 406 245 l 429 245 q 454 275 442 248 q 406 311 441 311 z "},"p":{"ha":893,"x_min":41,"x_max":840,"o":"m 614 966 l 625 966 q 774 908 714 966 q 840 754 840 844 q 758 587 840 654 q 629 543 699 543 q 444 648 513 543 q 416 756 416 701 q 501 925 416 857 q 614 966 562 966 m 583 882 l 583 846 q 581 844 583 844 l 536 844 l 536 821 q 564 812 564 821 q 564 804 564 809 l 564 697 q 545 693 564 694 q 538 669 538 693 l 538 667 q 559 666 553 666 l 577 666 q 583 663 583 665 l 583 627 l 605 627 q 610 666 607 666 l 623 666 q 625 664 625 665 l 625 627 l 650 627 l 650 663 q 686 671 650 665 q 720 723 720 683 q 701 758 720 747 q 690 765 690 764 q 707 800 707 778 q 681 838 707 827 q 650 845 675 839 l 650 882 l 625 882 l 625 848 q 623 846 625 846 l 610 846 q 605 882 606 846 l 583 882 m 610 817 l 620 817 q 663 795 659 817 l 664 794 q 632 771 657 771 q 623 770 632 770 l 610 770 q 608 772 608 770 l 608 816 q 610 817 608 817 m 254 779 q 366 728 347 740 q 308 635 366 722 q 300 623 300 625 l 297 623 q 281 666 286 665 l 279 666 q 195 614 243 657 q 142 514 151 563 q 134 471 136 471 l 132 471 q 73 473 110 471 l 73 474 l 73 486 q 130 640 73 557 q 224 715 184 699 q 264 730 237 723 q 251 778 256 755 q 254 779 253 779 m 609 747 q 673 723 673 747 l 673 716 q 636 694 673 699 l 610 694 q 608 696 608 694 l 608 745 l 609 747 m 789 517 l 790 517 q 800 454 797 517 l 800 440 q 697 236 800 325 q 673 219 688 229 q 699 176 699 177 q 697 174 697 176 q 572 194 572 191 l 572 195 q 612 313 601 287 l 612 313 q 637 276 616 311 l 638 276 q 697 330 660 283 q 735 449 735 387 q 730 501 735 458 q 789 517 774 517 m 264 450 q 446 359 371 450 q 490 227 490 296 l 490 224 q 406 50 490 121 q 267 0 344 0 l 258 0 q 112 60 180 0 q 41 227 41 131 q 140 411 41 336 q 264 450 202 450 m 98 228 l 98 224 q 189 75 98 129 q 267 56 229 56 q 391 113 336 56 q 432 216 432 163 l 432 223 q 367 357 432 307 q 277 391 325 391 l 250 391 q 144 340 197 391 q 98 228 98 288 m 266 363 q 363 323 323 363 q 405 226 405 281 l 405 225 q 330 100 405 144 q 266 85 300 85 q 146 152 193 85 q 127 218 127 189 l 127 226 q 197 345 127 299 q 266 363 224 363 m 262 326 l 262 319 q 233 310 262 315 q 202 269 202 298 q 241 219 202 231 q 262 211 262 213 l 262 170 q 258 161 262 162 l 258 161 q 232 182 244 161 q 229 189 231 189 l 225 189 q 197 180 201 189 l 197 178 q 218 147 203 158 q 260 133 242 133 q 264 111 262 133 q 269 109 267 109 l 273 109 q 275 113 274 109 l 275 123 q 280 134 275 134 q 325 149 298 134 q 338 186 338 163 q 304 234 338 222 q 275 245 275 242 l 275 267 q 279 288 275 288 q 300 267 290 288 q 302 264 300 264 q 334 271 334 267 q 314 304 334 286 q 278 315 292 315 q 275 324 275 319 l 275 332 l 271 333 l 266 333 q 262 326 262 333 m 260 289 q 262 283 262 286 l 262 248 l 262 245 q 237 267 237 251 l 237 269 q 255 289 237 283 l 260 289 m 277 210 q 305 186 305 201 l 305 182 q 280 161 305 167 l 279 161 q 275 189 275 163 l 275 208 q 277 210 276 210 z "},"q":{"ha":924,"x_min":54,"x_max":848,"o":"m 317 966 q 370 909 358 966 q 336 861 370 884 l 380 808 l 385 780 l 385 761 l 422 761 l 422 861 q 385 909 385 877 l 385 913 q 441 966 385 954 q 494 909 482 966 q 461 857 494 890 l 461 761 l 485 761 l 485 832 q 494 842 486 842 l 509 842 q 518 832 518 840 l 518 761 l 552 761 l 552 852 q 509 913 509 884 q 566 966 509 954 q 618 913 618 957 l 618 909 q 585 857 618 884 l 585 761 l 623 761 l 623 780 q 671 857 623 823 l 671 861 q 633 913 644 861 q 700 966 633 961 q 743 913 743 950 l 743 909 q 705 857 743 877 q 657 789 705 846 l 657 761 l 690 761 l 690 785 q 700 794 692 794 l 715 794 q 724 785 724 793 l 724 761 q 815 646 815 761 l 815 593 q 848 526 848 561 l 848 469 q 815 397 848 435 l 815 330 q 724 220 802 220 q 715 177 724 177 l 700 177 q 690 186 690 177 l 690 220 l 657 220 l 657 201 q 700 134 657 168 q 743 72 700 119 l 743 53 q 681 0 743 9 q 633 62 633 18 q 671 105 633 87 l 671 115 q 623 196 623 153 l 623 220 l 585 220 l 585 110 q 618 58 618 84 l 618 53 q 562 0 618 12 q 509 58 521 0 q 552 115 509 81 l 552 220 l 518 220 l 518 153 q 509 144 518 144 l 494 144 q 485 153 485 144 l 485 220 l 461 220 l 461 110 q 494 58 494 84 q 437 0 484 0 q 385 67 390 0 q 422 105 399 105 l 422 220 l 385 220 l 385 191 q 336 115 385 153 l 336 110 q 370 48 370 80 q 313 0 349 0 q 260 53 260 15 l 260 58 q 303 115 260 87 q 346 172 303 136 l 351 201 l 351 220 l 327 220 l 327 186 q 317 177 327 177 l 303 177 q 294 186 294 177 l 294 225 q 212 306 212 238 q 83 387 154 306 q 54 478 54 427 l 54 498 q 183 661 54 610 q 222 718 214 661 q 294 761 257 760 l 294 785 q 303 794 295 794 l 317 794 q 327 785 327 793 l 327 761 l 351 761 l 351 780 q 289 866 351 799 q 260 909 267 866 l 260 913 q 317 966 260 960 m 294 909 q 322 890 298 890 l 336 909 l 336 913 q 313 933 327 933 q 294 909 294 928 m 418 909 q 441 890 422 890 q 461 918 461 895 q 437 933 445 933 q 418 909 418 928 m 557 933 l 543 913 l 543 909 q 566 890 552 890 q 585 913 585 895 q 557 933 581 933 m 681 933 q 667 913 671 913 q 690 890 675 890 q 709 913 709 895 q 681 933 705 933 m 245 675 q 303 655 245 667 q 413 493 413 597 l 413 484 q 284 316 413 364 q 245 306 254 306 q 294 258 255 258 l 657 258 q 676 254 668 258 q 781 326 781 254 l 781 387 l 657 387 q 585 459 585 406 l 585 526 q 686 608 585 608 l 781 608 l 781 646 q 724 727 781 727 l 308 727 q 245 675 245 727 m 87 503 l 87 473 q 236 340 87 366 q 375 450 331 340 q 380 488 380 468 q 279 627 380 587 l 236 636 q 87 503 117 636 m 222 608 l 236 608 q 250 579 243 608 q 298 526 289 579 q 294 498 294 521 q 317 454 306 495 q 245 387 317 404 q 236 363 245 363 l 222 363 q 212 392 212 363 l 174 392 q 164 402 164 392 l 164 416 q 183 426 164 426 l 183 545 q 164 555 164 545 l 164 569 q 174 579 165 579 l 212 579 q 222 608 212 608 m 618 526 l 618 469 q 667 421 625 421 l 767 421 q 815 469 815 427 l 815 526 q 743 574 815 574 l 690 574 q 618 526 618 574 m 217 545 l 217 512 l 250 512 q 264 526 254 512 q 250 545 258 545 l 217 545 m 686 541 q 734 493 734 534 q 686 445 724 445 q 638 498 649 445 q 686 541 653 541 m 671 498 q 676 484 676 488 l 690 484 q 700 493 700 484 l 700 498 q 690 507 700 507 l 686 507 l 671 498 m 217 469 l 217 435 q 227 426 218 426 l 250 426 q 284 450 275 426 q 241 478 284 478 l 227 478 q 217 469 217 477 m 294 53 q 313 33 297 38 q 336 58 326 33 q 308 77 332 77 q 294 53 297 77 m 418 48 l 437 33 l 441 33 q 461 58 461 43 q 432 77 456 77 q 418 48 418 72 m 543 48 q 566 33 558 33 q 585 58 585 38 q 562 77 581 77 q 543 48 543 72 m 667 58 q 690 33 667 45 q 709 62 709 38 q 695 77 709 69 q 667 58 671 77 z "},"r":{"ha":1084,"x_min":47,"x_max":1026,"o":"m 52 977 l 1022 977 q 1026 972 1026 976 l 1026 4 q 1022 0 1026 0 l 52 0 q 47 4 47 0 l 47 972 q 52 977 48 977 m 121 494 l 121 481 q 296 148 121 286 q 537 72 408 72 q 891 270 758 72 q 952 487 952 371 q 750 844 952 712 q 543 903 650 903 l 530 903 q 193 722 330 903 q 121 494 121 612 m 424 813 l 507 813 q 511 809 511 812 l 511 722 l 517 722 q 522 726 522 722 l 522 809 q 526 813 522 813 l 608 813 q 613 809 613 812 l 613 735 q 611 733 613 733 l 613 728 l 613 718 l 615 718 q 702 687 702 702 q 748 602 748 659 l 748 585 q 722 520 748 553 q 781 422 781 486 l 781 409 q 687 279 781 311 q 613 263 666 270 l 613 174 q 608 170 613 170 l 526 170 q 522 174 522 170 l 522 261 l 511 261 l 511 174 q 507 170 511 170 l 424 170 q 419 174 419 170 l 419 263 l 309 263 l 304 265 q 323 366 319 366 l 380 366 l 380 618 q 365 627 380 623 l 354 624 l 311 624 q 307 629 307 624 l 307 715 q 311 720 307 720 l 419 720 l 419 809 q 424 813 420 813 m 435 798 l 435 711 q 430 707 435 707 l 354 707 q 321 705 343 707 l 321 640 l 372 640 q 395 600 395 640 l 395 511 q 393 503 395 506 q 395 494 395 498 l 395 468 q 393 465 395 465 l 395 461 q 393 459 395 459 l 395 448 l 395 446 q 393 444 395 444 l 395 439 l 395 374 q 376 350 395 350 l 332 350 l 321 279 l 430 279 q 435 274 435 278 l 435 185 l 496 185 l 496 272 q 500 276 496 276 l 530 276 q 534 272 534 275 l 534 185 l 597 185 l 597 274 q 602 279 598 279 q 763 378 738 279 l 768 416 q 694 513 768 490 l 694 517 q 734 596 734 543 q 656 696 734 668 q 597 709 597 705 l 597 798 l 534 798 l 534 713 q 530 709 534 709 l 519 709 l 498 707 l 498 798 l 435 798 m 448 789 l 485 789 q 489 785 489 789 l 489 701 l 543 701 l 543 785 q 548 789 544 789 l 585 789 q 589 785 589 789 l 589 698 l 591 698 q 720 635 694 691 q 726 596 726 612 l 726 594 q 674 513 726 541 l 674 511 q 739 476 739 491 q 759 418 759 454 q 589 285 759 285 l 589 196 q 585 191 589 191 l 548 191 q 543 196 543 191 l 543 283 q 489 285 497 285 l 489 196 q 485 191 489 191 l 448 191 q 444 196 444 191 l 444 285 l 334 285 l 330 287 q 343 344 338 344 l 380 344 q 402 366 402 347 l 402 620 q 361 648 402 648 l 334 648 q 330 652 330 648 l 330 694 q 334 698 331 698 l 444 698 l 444 785 q 448 789 444 789 m 489 644 l 489 522 l 524 522 q 631 578 631 522 l 631 587 q 550 644 621 644 l 489 644 m 524 637 q 624 583 624 637 q 534 531 624 531 l 502 531 q 498 535 498 531 l 498 631 q 524 637 498 635 m 513 622 l 513 544 l 515 544 q 608 581 608 544 l 608 583 q 522 622 608 622 l 513 622 m 491 476 l 489 472 l 489 346 q 493 342 490 342 l 509 342 q 656 405 656 342 l 656 409 q 532 476 656 476 q 498 474 515 474 q 491 476 494 476 m 502 468 l 541 468 q 650 409 650 468 q 534 350 650 350 l 502 350 q 498 355 498 350 l 498 463 q 502 468 498 468 m 528 452 l 513 452 l 513 366 l 545 366 q 635 409 635 366 q 572 452 635 443 l 545 452 q 537 454 541 452 q 528 452 533 452 z "},"s":{"ha":1078,"x_min":47,"x_max":1021,"o":"m 524 973 l 545 973 q 942 754 782 973 q 1021 497 1021 628 l 1021 484 q 768 58 1021 216 q 545 0 654 0 l 522 0 q 132 209 296 0 q 47 476 47 342 l 47 497 q 264 895 47 731 q 524 973 395 973 m 397 866 l 397 764 q 391 759 397 759 l 269 759 q 264 754 264 758 l 264 650 l 328 650 q 351 640 347 650 l 351 349 q 346 344 351 344 l 282 344 l 262 224 l 391 224 q 397 219 397 223 l 397 115 l 503 115 l 503 216 q 509 222 505 222 l 511 222 q 516 216 516 221 l 516 115 l 621 115 l 621 219 q 680 232 621 228 q 779 283 745 249 q 819 400 819 327 l 819 410 q 751 525 819 482 q 781 606 781 563 l 781 614 q 680 747 781 712 q 621 762 621 758 l 621 866 l 516 866 l 516 767 q 511 762 516 762 l 509 762 q 503 767 503 762 l 503 866 l 397 866 m 419 851 l 483 851 q 488 846 488 850 l 488 747 l 532 747 l 532 846 q 536 851 532 851 l 600 851 q 606 846 606 850 l 606 741 q 764 644 730 741 q 766 612 766 613 q 718 522 766 550 l 718 517 q 789 466 749 517 q 804 403 804 435 q 725 265 804 303 q 606 239 686 247 l 606 138 q 600 132 606 132 l 536 132 q 532 138 532 132 l 532 239 l 488 239 l 488 138 q 483 132 488 132 l 414 132 l 414 239 l 320 239 q 310 242 314 239 q 300 239 305 239 l 287 239 q 282 245 282 239 q 300 326 292 326 l 340 326 q 366 339 360 326 l 366 428 q 368 441 366 437 l 366 456 l 366 642 q 335 665 366 665 l 287 665 q 282 670 282 665 l 282 739 q 287 744 283 744 l 414 744 l 414 846 q 419 851 415 851 m 425 841 l 425 739 q 419 734 425 734 l 292 734 l 292 675 l 335 675 q 376 640 376 671 l 376 336 q 340 316 366 316 l 302 316 l 302 313 q 292 250 302 305 l 419 250 q 425 245 425 249 l 425 140 l 473 140 q 478 145 478 140 l 478 245 q 483 250 479 250 l 536 250 q 542 245 542 249 l 542 140 l 595 140 l 595 245 q 682 260 595 250 q 794 405 794 286 q 712 509 794 486 q 697 517 697 512 q 755 614 755 552 q 677 718 755 692 q 595 736 654 726 l 595 841 l 542 841 l 542 741 q 536 736 542 736 l 483 736 q 478 741 478 736 l 478 841 l 425 841 m 483 670 l 539 670 q 644 612 644 661 l 644 591 q 542 528 644 537 l 483 528 q 478 532 478 528 l 478 665 q 483 670 479 670 m 488 660 l 488 538 l 529 538 q 633 593 633 538 l 633 609 q 559 660 633 647 l 488 660 m 511 644 l 526 644 q 618 604 618 644 l 618 599 q 509 553 618 553 l 506 558 l 506 640 q 511 644 507 644 m 483 474 l 524 474 q 674 403 674 474 l 674 387 q 575 319 674 335 q 516 316 541 316 l 483 316 q 478 321 478 316 l 478 469 q 483 474 479 474 m 488 464 l 488 326 l 524 326 q 659 367 631 326 l 664 385 l 664 405 q 539 464 664 458 l 488 464 m 536 448 q 649 403 649 442 l 649 395 q 509 341 649 341 l 506 347 l 506 441 q 536 448 506 446 z "},"t":{"ha":1067,"x_min":34,"x_max":1004,"o":"m 522 970 q 925 751 765 970 q 1004 485 1004 626 l 1004 477 q 787 79 1004 240 q 538 0 657 0 l 499 0 q 137 182 300 0 q 34 475 34 324 l 34 492 q 243 884 34 726 q 522 970 370 970 m 46 492 l 46 475 q 238 103 46 257 q 499 12 369 12 l 538 12 q 881 177 722 12 q 991 477 991 321 l 991 485 q 760 891 991 740 q 516 958 646 958 q 117 736 273 958 q 46 492 46 616 m 391 876 l 448 876 q 452 871 452 876 l 452 755 q 457 751 453 751 l 511 751 q 516 755 516 751 l 516 871 q 522 876 517 876 l 575 876 q 581 871 581 876 l 581 763 l 583 751 l 608 751 q 753 662 710 751 q 758 625 758 639 l 758 610 q 701 517 758 553 l 701 512 q 787 450 758 496 q 802 374 802 412 q 671 224 802 264 q 581 210 620 214 l 581 98 q 575 94 581 94 l 519 94 q 514 98 514 94 l 514 207 q 509 212 514 212 l 452 212 l 450 199 l 450 98 q 445 94 450 94 l 391 94 q 386 98 386 94 l 386 207 q 381 212 386 212 l 344 212 q 241 222 241 213 q 258 290 253 290 l 324 290 q 330 296 330 290 l 330 687 l 317 689 l 241 689 q 236 694 236 689 l 236 746 q 241 751 237 751 l 381 751 q 386 755 386 751 l 386 871 q 391 876 387 876 m 452 682 l 452 529 l 516 529 q 622 586 603 529 q 627 610 627 607 q 536 682 627 667 l 452 682 m 452 458 l 452 293 l 538 293 q 659 374 642 293 l 659 389 q 566 460 659 442 q 511 463 537 463 l 457 463 q 452 458 452 462 z "},"u":{"ha":1354,"x_min":34,"x_max":1290,"o":"m 509 973 l 623 973 q 792 883 736 973 l 792 452 l 814 452 q 894 555 870 554 q 1063 589 936 581 q 1278 441 1278 589 l 1290 374 l 1278 374 q 1290 362 1278 362 l 1278 306 l 1278 283 q 1290 237 1278 258 q 1053 102 1290 102 l 939 113 q 770 0 883 0 l 736 0 q 543 181 543 35 l 475 181 q 260 79 475 103 q 34 170 34 108 l 34 543 q 260 633 34 605 l 340 623 l 340 860 q 509 973 357 973 m 385 871 l 385 860 q 509 804 385 821 l 555 804 l 555 781 l 509 781 q 385 826 444 781 l 385 781 q 555 736 466 736 l 577 736 q 747 804 747 747 l 747 826 q 623 781 688 781 l 589 781 l 589 804 l 623 804 q 747 860 747 821 l 747 871 q 577 939 747 928 l 555 939 q 385 871 385 928 m 566 928 l 566 917 l 589 928 q 645 838 633 928 q 577 814 599 814 l 577 826 l 555 814 q 509 826 534 826 l 509 848 l 532 848 l 532 894 l 509 894 l 509 917 l 566 928 m 566 894 l 566 883 l 600 883 l 600 894 l 566 894 m 566 860 l 566 848 l 611 848 l 611 860 l 566 860 m 385 758 l 385 736 q 577 667 385 683 q 747 736 726 679 l 747 758 q 577 713 673 713 l 555 713 q 385 758 459 713 m 385 690 l 385 667 q 509 611 385 629 l 623 611 q 747 667 747 629 l 747 690 l 736 690 q 555 645 671 645 q 396 690 466 645 l 385 690 m 385 633 l 385 623 q 521 543 475 543 l 577 543 q 747 611 747 555 l 747 633 q 623 589 688 589 l 509 589 q 385 633 444 589 m 79 532 l 79 509 q 237 452 79 460 l 305 452 q 441 509 378 452 q 271 589 441 581 l 237 589 q 79 532 79 581 m 260 577 l 260 566 l 283 577 q 328 543 328 560 q 317 532 328 532 l 328 509 l 328 498 q 271 464 328 472 l 271 475 l 249 464 q 203 475 229 475 l 215 532 q 203 566 203 554 l 260 577 m 577 521 l 498 521 q 475 498 475 517 q 543 475 513 475 q 747 543 747 487 l 747 566 q 577 521 673 521 m 249 543 l 249 532 l 294 532 l 294 543 l 249 543 m 882 487 l 882 464 q 1041 408 882 415 l 1097 408 q 1234 464 1234 427 l 1234 487 q 1109 543 1234 526 l 1007 543 q 882 487 882 526 m 1063 532 l 1063 521 l 1086 532 q 1132 498 1132 515 q 1120 487 1132 487 l 1132 464 l 1132 452 q 1053 418 1132 434 q 1007 430 1033 430 l 1019 487 q 1007 521 1007 509 l 1063 532 m 249 509 l 249 498 l 294 498 l 294 509 l 249 509 m 555 452 l 475 464 l 475 441 q 498 418 479 418 l 600 418 q 747 475 747 456 l 747 498 l 736 498 q 555 452 664 452 m 1053 498 l 1053 487 l 1086 487 l 1086 498 l 1053 498 m 305 430 l 237 430 q 79 464 167 430 l 79 441 q 249 385 79 399 l 260 385 q 441 475 441 391 q 305 430 363 430 m 1053 464 l 1053 452 l 1097 452 l 1097 464 l 1053 464 m 882 430 l 882 418 q 1053 340 919 340 l 1063 340 q 1244 430 1244 347 l 1234 430 q 1075 385 1181 385 l 1041 385 q 882 430 935 385 m 623 362 q 770 408 687 408 q 882 362 797 408 l 882 374 q 758 418 814 418 l 747 418 q 623 362 662 418 m 79 408 l 79 362 q 260 317 177 317 q 441 408 441 331 l 430 408 q 260 362 366 362 l 249 362 q 79 408 153 362 m 486 396 q 475 362 486 384 l 498 351 l 555 351 q 600 396 572 351 l 486 396 m 577 215 l 577 203 q 747 34 597 34 l 758 34 q 928 203 928 54 l 928 227 q 758 385 928 359 l 747 385 q 577 215 577 364 m 1041 317 q 951 328 960 328 l 951 317 q 973 283 962 283 q 1063 271 1002 283 q 1234 340 1216 287 l 1234 362 q 1041 317 1165 317 m 249 294 q 79 340 136 306 l 79 317 q 203 260 79 277 l 305 260 q 441 328 401 260 l 441 351 q 249 294 362 294 m 475 328 q 543 283 486 283 l 555 328 l 475 328 m 736 317 l 758 306 l 792 306 l 838 260 l 838 237 l 814 203 q 848 170 831 203 l 848 159 q 781 102 848 142 l 758 113 l 736 102 q 667 136 667 117 q 701 159 667 159 l 701 260 q 667 283 667 260 l 667 294 q 736 317 709 294 m 1063 249 q 962 260 1002 260 l 962 237 q 985 215 965 215 l 1075 215 q 1244 294 1244 222 l 1234 294 q 1063 249 1203 271 m 305 237 l 237 237 q 79 271 167 237 l 79 249 q 249 193 79 208 l 260 193 q 441 283 441 199 q 305 237 363 237 m 486 271 q 475 260 486 260 q 486 227 486 238 l 543 227 l 543 260 l 486 271 m 747 260 l 747 227 l 770 227 q 792 249 792 227 l 792 260 l 747 260 m 1075 193 l 985 193 l 962 203 l 962 159 l 1063 147 q 1244 237 1244 161 l 1234 237 q 1075 193 1181 193 m 79 215 l 79 170 q 271 125 178 125 q 441 215 427 125 l 430 215 q 260 170 366 170 l 249 170 q 79 215 153 170 m 747 193 l 747 159 l 804 159 l 804 170 q 781 193 804 193 l 747 193 z "},"v":{"ha":920,"x_min":41,"x_max":852,"o":"m 165 970 l 718 970 l 718 958 q 593 857 718 943 l 300 857 q 165 947 180 947 l 165 970 m 289 823 l 604 823 q 627 801 627 820 l 604 789 l 289 789 q 267 812 267 789 l 289 823 m 289 778 l 604 778 q 627 755 627 774 l 604 744 l 289 744 q 267 767 267 744 l 289 778 m 616 733 q 852 316 852 420 l 852 293 q 469 0 789 0 l 435 0 q 41 282 107 0 l 41 327 q 267 733 41 406 l 616 733 m 379 597 q 300 553 379 553 l 277 553 l 277 541 q 334 507 334 533 l 334 293 q 277 259 334 259 l 277 248 q 390 203 390 248 q 401 192 390 192 l 413 192 l 458 248 q 480 192 458 192 l 514 192 q 604 293 514 243 q 616 338 616 313 q 537 417 616 359 l 537 429 q 593 496 593 429 l 593 507 q 514 597 514 561 l 458 597 l 458 564 l 435 564 l 435 597 l 379 597 m 447 541 q 503 496 498 519 l 503 463 q 424 417 485 417 l 413 439 l 413 519 q 447 541 413 541 m 435 395 l 480 395 q 526 327 503 395 q 469 259 510 281 l 447 259 q 413 293 431 259 l 413 372 q 435 395 416 395 z "},"w":{"ha":1064,"x_min":41,"x_max":1014,"o":"m 507 973 l 547 973 q 979 674 819 973 q 1014 487 1014 564 q 694 31 1014 183 q 528 0 633 10 q 66 324 218 0 q 41 477 41 416 l 41 502 q 279 907 41 747 q 507 973 396 973 m 106 496 l 106 481 q 411 81 106 206 q 497 71 479 71 l 557 71 q 907 309 766 71 q 948 492 948 410 q 745 846 948 709 q 537 907 650 907 l 502 907 q 142 664 284 907 q 106 496 106 573 m 517 877 l 532 877 q 892 623 774 877 q 918 492 907 585 q 633 111 918 228 q 553 101 576 101 l 502 101 q 168 334 294 101 q 137 487 137 412 l 137 492 q 446 872 137 770 q 517 877 489 877 m 178 487 q 436 152 178 245 q 507 142 474 142 l 547 142 q 852 365 745 142 q 877 487 871 415 q 618 826 877 726 q 543 836 571 836 l 522 836 q 198 603 297 836 q 178 487 178 556 m 456 755 l 487 755 q 497 745 497 753 l 497 680 l 547 680 l 547 745 q 557 755 549 755 l 593 755 q 604 745 604 753 l 604 680 q 700 588 700 665 l 700 573 q 664 502 700 539 q 730 406 730 471 q 614 299 730 307 l 604 299 l 604 223 l 568 218 l 557 218 q 547 228 547 218 l 547 299 l 497 299 l 497 228 q 487 218 497 218 l 456 218 q 446 228 446 218 l 446 299 l 345 299 q 334 309 334 299 l 334 345 q 391 360 334 355 l 395 385 l 395 593 q 355 623 395 623 q 334 633 334 623 l 334 669 q 345 680 336 680 l 446 680 l 446 745 q 456 755 448 755 m 497 623 l 497 527 l 547 527 q 593 578 586 527 q 537 623 593 620 l 497 623 m 497 471 l 497 355 l 543 355 q 604 416 604 358 q 537 471 604 471 l 497 471 z "},"x":{"ha":1074,"x_min":41,"x_max":1014,"o":"m 537 973 q 958 715 798 973 q 1014 477 1014 610 q 700 31 1014 181 q 522 0 607 0 q 76 304 229 0 q 41 492 41 400 q 365 948 41 795 q 537 973 454 973 m 421 821 l 421 760 q 411 750 421 750 l 330 750 l 330 223 l 411 223 q 421 213 421 222 l 421 152 l 456 152 l 456 213 q 467 223 458 223 l 492 223 q 502 213 502 222 l 502 152 l 532 152 q 543 162 543 152 l 543 213 q 553 223 544 223 l 629 223 q 776 370 776 239 q 710 492 776 427 q 776 613 776 531 q 629 750 776 732 l 553 750 q 543 760 543 750 l 543 795 l 537 821 l 502 821 l 502 760 q 492 750 502 750 l 467 750 q 456 760 456 750 l 456 821 l 421 821 m 380 709 l 411 709 q 421 699 421 708 l 421 517 q 411 507 421 507 l 380 507 q 370 517 370 507 l 370 699 q 380 709 372 709 m 467 709 l 492 709 q 502 699 502 708 l 502 517 q 492 507 502 507 l 467 507 q 456 517 456 507 l 456 699 q 467 709 458 709 m 543 709 l 644 709 q 735 618 735 690 l 735 593 q 639 507 735 526 l 553 507 q 543 517 543 507 l 543 709 m 380 467 l 411 467 q 421 456 421 465 l 421 274 q 411 264 421 264 l 380 264 q 370 274 370 264 l 370 456 q 380 467 372 467 m 467 467 l 492 467 q 502 456 502 465 l 502 274 q 492 264 502 264 l 467 264 q 456 274 456 264 l 456 456 q 467 467 458 467 m 553 467 l 639 467 q 735 380 735 447 l 735 350 q 649 264 709 264 l 553 264 q 543 274 543 264 l 543 456 q 553 467 544 467 z "},"y":{"ha":1081,"x_min":34,"x_max":1006,"o":"m 528 977 q 975 667 824 977 q 1006 509 1006 582 l 1006 453 q 797 87 1006 252 q 517 0 667 0 q 64 311 215 0 q 34 453 34 397 l 34 514 q 294 921 34 762 q 528 977 397 977 m 100 504 l 100 473 q 390 87 100 211 q 522 66 462 66 q 914 341 789 66 q 939 473 939 398 l 939 504 q 701 870 939 736 q 512 911 615 911 q 141 671 273 911 q 100 504 100 593 m 528 880 q 873 656 746 880 q 909 498 909 581 l 909 478 q 654 122 909 239 q 512 97 588 97 q 172 311 300 97 q 131 463 131 392 l 131 514 q 380 854 131 730 q 528 880 454 880 m 441 779 l 441 702 q 431 692 441 692 l 319 692 l 319 636 l 370 636 q 385 606 385 631 l 385 372 q 370 341 385 345 l 319 341 l 319 285 l 431 285 q 441 275 441 283 l 441 199 l 492 199 l 492 275 q 502 285 493 285 l 543 285 q 553 275 553 283 l 553 199 l 604 199 l 604 275 q 685 295 604 281 q 746 402 746 332 q 675 498 746 471 l 675 504 q 715 590 715 549 q 604 697 715 678 l 604 779 l 553 779 l 553 702 q 543 692 553 692 l 502 692 q 492 702 492 692 l 492 779 l 441 779 m 502 636 l 553 636 q 599 585 591 636 l 599 580 q 548 529 591 529 l 502 529 q 492 539 492 529 l 492 626 q 502 636 493 636 m 502 473 l 522 473 q 609 417 609 473 l 609 392 q 553 341 609 351 l 502 341 q 492 351 492 341 l 492 463 q 502 473 493 473 z "},"z":{"ha":1067,"x_min":34,"x_max":1007,"o":"m 500 973 l 541 973 q 972 680 812 973 q 1007 492 1007 578 l 1007 487 q 683 31 1007 171 q 526 0 635 10 q 75 299 223 0 q 34 492 34 388 q 333 938 34 784 q 500 973 422 973 m 100 487 q 374 96 100 221 q 505 71 431 71 l 551 71 q 890 289 751 71 q 941 487 941 382 l 941 492 q 642 892 941 770 q 546 907 581 907 l 511 907 q 120 618 243 907 q 100 487 100 538 m 500 877 l 541 877 q 886 633 758 877 q 911 487 911 549 q 622 111 911 219 q 546 101 574 101 l 495 101 q 171 319 297 101 q 130 487 130 406 q 419 867 130 753 q 500 877 477 877 m 460 760 q 378 502 393 510 q 313 436 313 491 l 313 426 l 318 426 q 363 441 323 426 q 368 436 363 436 l 328 294 l 713 294 q 743 380 723 294 l 515 380 l 505 385 q 551 507 532 507 q 617 578 617 517 l 617 583 l 612 583 q 561 568 609 583 q 556 573 561 573 l 612 760 l 460 760 z "},"{":{"ha":1057,"x_min":34,"x_max":1004,"o":"m 519 970 q 954 697 802 970 q 1004 485 1004 590 q 731 50 1004 204 q 519 0 628 0 q 90 258 246 0 q 34 480 34 362 l 34 500 q 342 939 34 784 q 519 970 439 970 m 100 490 l 100 480 q 387 86 100 208 q 519 66 464 66 q 913 343 785 66 q 938 490 938 428 q 650 884 938 756 q 519 904 574 904 q 120 616 239 904 q 100 490 100 551 m 418 783 l 463 783 q 473 773 473 781 l 473 702 q 484 692 475 692 l 539 692 q 554 783 539 783 l 600 783 q 615 728 615 783 l 615 692 l 630 692 q 731 601 700 692 l 731 561 q 696 485 731 524 q 731 409 731 446 l 731 374 q 635 278 731 309 l 615 278 q 610 262 615 262 l 615 237 l 615 227 q 600 187 615 190 l 554 187 q 539 233 539 187 q 544 273 544 269 l 534 278 l 484 278 q 473 268 473 276 l 473 197 q 463 187 473 187 l 418 187 q 403 202 410 187 l 403 262 l 408 273 l 397 278 l 327 278 q 317 288 317 278 l 317 656 l 312 682 l 327 692 l 403 692 l 403 768 q 418 783 403 775 m 433 627 l 433 520 l 539 520 q 615 571 615 520 l 615 581 q 569 627 608 627 l 433 627 m 433 450 l 433 343 l 559 343 q 615 389 615 343 l 615 399 q 539 450 615 450 l 433 450 z "},"|":{"ha":1050,"x_min":34,"x_max":999,"o":"m 514 970 l 519 970 q 968 662 822 970 q 999 520 999 578 l 999 465 q 762 66 999 230 q 509 0 642 0 q 64 303 222 0 q 34 450 34 402 l 34 510 q 271 904 34 744 q 514 970 387 970 m 100 500 l 100 470 q 387 86 100 210 q 519 66 467 66 q 907 338 782 66 q 933 460 933 404 l 933 500 q 650 884 933 756 q 519 904 574 904 l 514 904 q 140 667 269 904 q 100 500 100 589 m 498 813 l 569 813 q 579 803 579 812 q 514 561 514 574 l 585 586 l 589 576 q 514 490 576 490 q 463 384 479 490 q 443 323 460 384 l 731 323 l 741 318 q 706 233 719 233 l 337 233 q 327 243 327 233 q 382 439 337 267 l 377 439 q 307 419 326 419 l 307 425 q 368 510 320 510 q 418 571 418 510 q 488 808 428 589 l 498 813 z "}}}
